<?xml version="1.0" standalone="no"?>
<!DOCTYPE svg PUBLIC "-//W3C//DTD SVG 1.1//EN" "http://www.w3.org/Graphics/SVG/1.1/DTD/svg11.dtd" >
<svg xmlns="http://www.w3.org/2000/svg" xmlns:xlink="http://www.w3.org/1999/xlink" version="1.1">
<metadata>
Created by FontForge 20161013 at Mon Feb 23 18:19:13 2009
 By ,,,
Copyright (c) 2008 - 2009 Linotype GmbH, www.linotype.com. All rights reserved. This font software may not be reproduced, modified, disclosed or transferred without the express written approval of Linotype GmbH.
</metadata>
<defs>
<font id="DINNextLTPro-BoldCondensed" horiz-adv-x="416" >
  <font-face 
    font-family="DIN Next LT Pro Bold Condensed"
    font-weight="700"
    font-stretch="condensed"
    units-per-em="1000"
    panose-1="2 11 8 6 2 2 3 5 2 3"
    ascent="750"
    descent="-250"
    x-height="484"
    cap-height="680"
    bbox="-97.6923 -231 920 906"
    underline-thickness="50"
    underline-position="-150"
    unicode-range="U+0020-FB04"
  />
<missing-glyph horiz-adv-x="413" 
d="M0 10v660q0 10 10 10h393q10 0 10 -10v-660q0 -10 -10 -10h-393q-10 0 -10 10zM65 67q0 -6 6 -6h271q6 0 6 6v546q0 6 -6 6h-271q-6 0 -6 -6v-546zM174 235q-10 0 -10 10v37q0 22 15 48l36 60q16 26 16 61q0 15 -3 24q-6 17 -24 17q-19 0 -25 -17q-3 -7 -3 -37
q0 -11 -11 -9l-59 7q-9 2 -9 11q0 35 6 51q10 30 37 47.5t65 17.5t65 -17.5t37 -47.5q6 -16 6 -44q0 -43 -22 -80l-35 -60q-11 -18 -11 -37v-32q0 -10 -10 -10h-61zM166 124v68q0 10 10 10h59q10 0 10 -10v-68q0 -10 -10 -10h-59q-10 0 -10 10z" />
    <glyph glyph-name="IJ" unicode="IJ" horiz-adv-x="592" 
d="M46 10v660q0 10 10 10h111q10 0 10 -10v-660q0 -10 -10 -10h-111q-10 0 -10 10zM236 41q-6 8 1 14l72 70q7 6 15 -1q17 -15 38 -15q54 0 54 66v495q0 10 10 10h111q10 0 10 -10v-483q0 -100 -49 -148t-137 -48q-84 0 -125 50z" />
    <glyph glyph-name="ij" unicode="ij" horiz-adv-x="426" 
d="M159 562h-105q-10 0 -10 10v98q0 10 10 10h105q10 0 10 -10v-98q0 -10 -10 -10zM159 0h-105q-10 0 -10 10v464q0 10 10 10h105q10 0 10 -10v-464q0 -10 -10 -10zM372 562h-105q-10 0 -10 10v98q0 10 10 10h105q10 0 10 -10v-98q0 -10 -10 -10zM219 -180h-17q-10 0 -10 10
v90q0 10 10 10l14 1q22 2 31.5 14t9.5 43v486q0 10 10 10h105q10 0 10 -10v-486q0 -168 -163 -168z" />
    <glyph glyph-name="napostrophe" unicode="&#x22;n" horiz-adv-x="419" 
d="M-24 494q-9 0 -9 10v166q0 10 10 10h81q10 0 10 -10v-69q0 -13 -9 -23l-70 -77q-6 -7 -13 -7zM368 0h-105q-10 0 -10 10v315q0 57 -42 57t-42 -57v-315q0 -10 -10 -10h-105q-10 0 -10 10v464q0 10 10 10h104q10 0 10 -10v-37h1q29 56 95 56q58 0 86 -36t28 -113v-334
q0 -10 -10 -10z" />
    <glyph glyph-name="f_f" unicode="ff" horiz-adv-x="558" 
d="M181 0h-105q-10 0 -10 10v375q0 6 -6 6h-31q-10 0 -10 10v73q0 10 10 10h31q6 0 6 6v30q0 80 38.5 120t121.5 40h28q10 0 10 -10v-90q0 -10 -10 -10h-26q-21 0 -29 -8t-8 -28v-44q0 -6 6 -6h57q10 0 10 -10v-73q0 -10 -10 -10h-57q-6 0 -6 -6v-375q0 -10 -10 -10zM460 0
h-105q-10 0 -10 10v375q0 6 -6 6h-31q-10 0 -10 10v73q0 10 10 10h31q6 0 6 6v30q0 80 38.5 120t121.5 40h28q10 0 10 -10v-90q0 -10 -10 -10h-26q-21 0 -29 -8t-8 -28v-44q0 -6 6 -6h57q10 0 10 -10v-73q0 -10 -10 -10h-57q-6 0 -6 -6v-375q0 -10 -10 -10z" />
    <glyph glyph-name="fi" unicode="fi" horiz-adv-x="492" 
d="M181 0h-105q-10 0 -10 10v375q0 6 -6 6h-31q-10 0 -10 10v73q0 10 10 10h31q6 0 6 6v30q0 80 38.5 120t121.5 40h28q10 0 10 -10v-90q0 -10 -10 -10h-26q-21 0 -29 -8t-8 -28v-44q0 -6 6 -6h57q10 0 10 -10v-73q0 -10 -10 -10h-57q-6 0 -6 -6v-375q0 -10 -10 -10z
M438 562h-105q-10 0 -10 10v98q0 10 10 10h105q10 0 10 -10v-98q0 -10 -10 -10zM438 0h-105q-10 0 -10 10v464q0 10 10 10h105q10 0 10 -10v-464q0 -10 -10 -10z" />
    <glyph glyph-name="fl" unicode="fl" horiz-adv-x="524" 
d="M181 0h-105q-10 0 -10 10v375q0 6 -6 6h-31q-10 0 -10 10v73q0 10 10 10h31q6 0 6 6v30q0 80 38.5 120t121.5 40h28q10 0 10 -10v-90q0 -10 -10 -10h-26q-21 0 -29 -8t-8 -28v-44q0 -6 6 -6h57q10 0 10 -10v-73q0 -10 -10 -10h-57q-6 0 -6 -6v-375q0 -10 -10 -10zM492 -6
h-11q-86 2 -122.5 38t-36.5 124v514q0 10 10 10h105q10 0 10 -10v-513q0 -45 40 -51l5 -1q10 -2 10 -11v-90q0 -10 -10 -10z" />
    <glyph glyph-name="f_f_i" unicode="ffi" horiz-adv-x="771" 
d="M181 0h-105q-10 0 -10 10v375q0 6 -6 6h-31q-10 0 -10 10v73q0 10 10 10h31q6 0 6 6v30q0 80 38.5 120t121.5 40h28q10 0 10 -10v-90q0 -10 -10 -10h-26q-21 0 -29 -8t-8 -28v-44q0 -6 6 -6h57q10 0 10 -10v-73q0 -10 -10 -10h-57q-6 0 -6 -6v-375q0 -10 -10 -10zM460 0
h-105q-10 0 -10 10v375q0 6 -6 6h-31q-10 0 -10 10v73q0 10 10 10h31q6 0 6 6v30q0 80 38.5 120t121.5 40h28q10 0 10 -10v-90q0 -10 -10 -10h-26q-21 0 -29 -8t-8 -28v-44q0 -6 6 -6h57q10 0 10 -10v-73q0 -10 -10 -10h-57q-6 0 -6 -6v-375q0 -10 -10 -10zM717 562h-105
q-10 0 -10 10v98q0 10 10 10h105q10 0 10 -10v-98q0 -10 -10 -10zM717 0h-105q-10 0 -10 10v464q0 10 10 10h105q10 0 10 -10v-464q0 -10 -10 -10z" />
    <glyph glyph-name="f_f_l" unicode="ffl" horiz-adv-x="803" 
d="M181 0h-105q-10 0 -10 10v375q0 6 -6 6h-31q-10 0 -10 10v73q0 10 10 10h31q6 0 6 6v30q0 80 38.5 120t121.5 40h28q10 0 10 -10v-90q0 -10 -10 -10h-26q-21 0 -29 -8t-8 -28v-44q0 -6 6 -6h57q10 0 10 -10v-73q0 -10 -10 -10h-57q-6 0 -6 -6v-375q0 -10 -10 -10zM460 0
h-105q-10 0 -10 10v375q0 6 -6 6h-31q-10 0 -10 10v73q0 10 10 10h31q6 0 6 6v30q0 80 38.5 120t121.5 40h28q10 0 10 -10v-90q0 -10 -10 -10h-26q-21 0 -29 -8t-8 -28v-44q0 -6 6 -6h57q10 0 10 -10v-73q0 -10 -10 -10h-57q-6 0 -6 -6v-375q0 -10 -10 -10zM771 -6h-11
q-86 2 -122.5 38t-36.5 124v514q0 10 10 10h105q10 0 10 -10v-513q0 -45 40 -51l5 -1q10 -2 10 -11v-90q0 -10 -10 -10z" />
    <glyph glyph-name=".notdef" horiz-adv-x="413" 
d="M0 10v660q0 10 10 10h393q10 0 10 -10v-660q0 -10 -10 -10h-393q-10 0 -10 10zM65 67q0 -6 6 -6h271q6 0 6 6v546q0 6 -6 6h-271q-6 0 -6 -6v-546zM174 235q-10 0 -10 10v37q0 22 15 48l36 60q16 26 16 61q0 15 -3 24q-6 17 -24 17q-19 0 -25 -17q-3 -7 -3 -37
q0 -11 -11 -9l-59 7q-9 2 -9 11q0 35 6 51q10 30 37 47.5t65 17.5t65 -17.5t37 -47.5q6 -16 6 -44q0 -43 -22 -80l-35 -60q-11 -18 -11 -37v-32q0 -10 -10 -10h-61zM166 124v68q0 10 10 10h59q10 0 10 -10v-68q0 -10 -10 -10h-59q-10 0 -10 10z" />
    <glyph glyph-name=".null" horiz-adv-x="500" 
 />
    <glyph glyph-name="nonmarkingreturn" horiz-adv-x="333" 
 />
    <glyph glyph-name="space" unicode=" " horiz-adv-x="195" 
 />
    <glyph glyph-name="exclam" unicode="!" horiz-adv-x="249" 
d="M93 187q-10 0 -10 10l-25 473q0 10 10 10h113q10 0 10 -10l-25 -473q0 -10 -10 -10h-63zM63 10v116q0 10 10 10h102q10 0 10 -10v-116q0 -10 -10 -10h-102q-10 0 -10 10z" />
    <glyph glyph-name="quotedbl" unicode="&#x22;" horiz-adv-x="301" 
d="M183 477q-10 0 -10 10v183q0 10 10 10h70q10 0 10 -10v-183q0 -10 -10 -10h-70zM48 477q-10 0 -10 10v183q0 10 10 10h70q10 0 10 -10v-183q0 -10 -10 -10h-70z" />
    <glyph glyph-name="numbersign" unicode="#" horiz-adv-x="514" 
d="M81 10l20 196h-49q-10 0 -10 10v67q0 10 10 10h58l11 107h-50q-10 0 -10 10v67q0 10 10 10h59l20 183q2 10 11 10h76q11 0 9 -10l-20 -183h82l20 183q2 10 11 10h76q11 0 9 -10l-20 -183h59q10 0 10 -10v-67q0 -10 -10 -10h-68l-11 -107h60q10 0 10 -10v-67
q0 -10 -10 -10h-69l-20 -196q-2 -10 -11 -10h-76q-11 0 -9 10l20 196h-82l-20 -196q-2 -10 -11 -10h-76q-11 0 -9 10zM206 293h82l11 107h-82z" />
    <glyph glyph-name="dollar" unicode="$" 
d="M33 169q0 10 8 11l98 17q11 1 11 -8q1 -49 14 -68.5t43 -19.5q28 0 39.5 17t11.5 67q0 48 -12.5 70t-49.5 36l-41 16q-65 25 -90.5 68t-25.5 124q0 172 138 188v50q0 10 10 10h45q10 0 10 -10v-51q65 -9 96.5 -49.5t37.5 -113.5q0 -9 -9 -11l-95 -15q-11 -2 -11 8
q-3 41 -14.5 57.5t-37.5 16.5t-37 -16.5t-11 -55.5q0 -40 11.5 -58t49.5 -33l41 -16q65 -26 91 -70t26 -130q0 -98 -33.5 -148.5t-104.5 -58.5v-61q0 -10 -10 -10h-45q-10 0 -10 10v61q-74 7 -108 51t-36 125z" />
    <glyph glyph-name="percent" unicode="%" horiz-adv-x="706" 
d="M183 1l253 678q4 10 14 10h67q10 0 7 -10l-254 -678q-3 -10 -13 -10h-67q-10 0 -7 10zM169 329q-81 0 -102 66q-9 26 -9 113q0 86 9 112q21 67 102 67q82 0 103 -67q8 -23 8 -112q0 -90 -8 -113q-21 -66 -103 -66zM169 402q17 0 22 14q3 9 3 92q0 82 -3 91q-5 15 -22 15
t-22 -15q-3 -9 -3 -91q0 -83 3 -92q5 -14 22 -14zM435 60q-9 26 -9 112q0 87 9 113q21 66 102 66q82 0 103 -66q8 -23 8 -113q0 -89 -8 -112q-21 -67 -103 -67q-81 0 -102 67zM515 81q5 -15 22 -15t22 15q3 9 3 91q0 83 -3 92q-5 14 -22 14t-22 -14q-3 -9 -3 -92
q0 -82 3 -91z" />
    <glyph glyph-name="ampersand" unicode="&#x26;" horiz-adv-x="555" 
d="M55 148q0 49 27 98t87 115l-8 14q-65 101 -65 165q0 67 43.5 108t113.5 41t113.5 -40.5t43.5 -108.5q0 -40 -22.5 -83t-79.5 -107l61 -97l42 67q5 9 14 3l67 -44q8 -5 3 -14l-67 -107l19 -30q13 -23 34 -23h4q10 0 10 -10v-85q0 -10 -10 -10h-38q-30 0 -46 9t-32 34
l-9 14q-56 -66 -146 -66q-72 0 -115.5 42.5t-43.5 114.5zM249 446q49 56 49 99q0 24 -12 37.5t-33 13.5q-44 0 -44 -51q0 -31 40 -99zM172 155q0 -27 14.5 -42t38.5 -15q38 0 77 51l-73 117q-57 -67 -57 -111z" />
    <glyph glyph-name="quotesingle" unicode="'" horiz-adv-x="166" 
d="M48 477q-10 0 -10 10v183q0 10 10 10h70q10 0 10 -10v-183q0 -10 -10 -10h-70z" />
    <glyph glyph-name="parenleft" unicode="(" horiz-adv-x="277" 
d="M152 -74q-92 181 -92 402t92 402q5 10 13 10h68q10 0 7 -10q-60 -189 -60 -402t60 -402q3 -10 -7 -10h-68q-8 0 -13 10z" />
    <glyph glyph-name="parenright" unicode=")" horiz-adv-x="277" 
d="M37 -74q60 189 60 402t-60 402q-3 10 7 10h68q8 0 13 -10q92 -181 92 -402t-92 -402q-5 -10 -13 -10h-68q-10 0 -7 10z" />
    <glyph glyph-name="asterisk" unicode="*" horiz-adv-x="345" 
d="M147 376q-10 0 -10 10l1 82l-58 -35q-8 -5 -13 4l-26 44q-5 9 3 14l59 33l-59 33q-8 5 -3 14l26 44q5 9 13 4l58 -35l-1 82q0 10 10 10h51q10 0 10 -10l-1 -82l58 35q8 5 13 -4l26 -44q5 -9 -3 -14l-60 -33l60 -33q8 -5 3 -14l-26 -44q-5 -9 -13 -4l-58 34l1 -81
q0 -10 -10 -10h-51z" />
    <glyph glyph-name="plus" unicode="+" 
d="M154 110v108q0 6 -6 6h-105q-10 0 -10 10v84q0 10 10 10h105q6 0 6 6v108q0 10 10 10h88q10 0 10 -10v-108q0 -6 6 -6h105q10 0 10 -10v-84q0 -10 -10 -10h-105q-6 0 -6 -6v-108q0 -10 -10 -10h-88q-10 0 -10 10z" />
    <glyph glyph-name="comma" unicode="," horiz-adv-x="201" 
d="M43 -92v218q0 10 10 10h95q10 0 10 -10v-96q0 -18 -8 -27l-86 -99q-4 -6 -11 -6q-10 0 -10 10z" />
    <glyph glyph-name="hyphen" unicode="-" horiz-adv-x="366" 
d="M49 208q-10 0 -10 10v94q0 10 10 10h268q10 0 10 -10v-94q0 -10 -10 -10h-268z" />
    <glyph glyph-name="period" unicode="." horiz-adv-x="208" 
d="M43 10v116q0 10 10 10h102q10 0 10 -10v-116q0 -10 -10 -10h-102q-10 0 -10 10z" />
    <glyph glyph-name="slash" unicode="/" horiz-adv-x="263" 
d="M19 1l125 678q2 10 11 10h80q11 0 9 -10l-125 -678q-1 -10 -11 -10h-80q-11 0 -9 10z" />
    <glyph glyph-name="zero" unicode="0" 
d="M51 93q-11 34 -11 247q0 210 12 247q32 102 156 102q61 0 101.5 -26t55.5 -76q11 -34 11 -247t-11 -247q-15 -50 -55.5 -76t-101.5 -26q-60 0 -100.5 26.5t-56.5 75.5zM170 127q8 -26 38 -26t38 26q4 13 4 213t-4 213q-8 26 -38 26t-38 -26q-4 -13 -4 -213t4 -213z" />
    <glyph glyph-name="one" unicode="1" 
d="M160 10v528h-2l-85 -59q-4 -3 -7.5 -1.5t-3.5 7.5v108q0 10 9 16l88 65q9 6 17 6h99q10 0 10 -10v-660q0 -10 -10 -10h-105q-10 0 -10 10z" />
    <glyph glyph-name="two" unicode="2" 
d="M42 10v89q0 9 5 19l171 279q17 27 23.5 50t6.5 63q0 31 -4 42q-9 27 -39 27q-29 0 -38 -27q-4 -11 -4 -57q0 -12 -12 -10l-99 9q-10 1 -10 12q0 52 9 82q33 101 157 101q122 0 156 -101q9 -28 9 -78q0 -55 -11 -91t-37 -78l-142 -228v-1h180q10 0 10 -10v-92
q0 -10 -10 -10h-311q-10 0 -10 10z" />
    <glyph glyph-name="three" unicode="3" 
d="M50 92q-9 30 -9 74q0 11 10 12l100 10q12 2 12 -10q0 -38 3 -50q9 -27 39 -27q29 0 38 26q4 11 4 71q0 62 -4 71q-8 25 -44 25h-15q-10 0 -10 10v93q0 10 10 10h16q35 0 43 24q4 9 4 66q0 45 -4 56q-9 26 -38 26q-30 0 -39 -27q-3 -12 -3 -50q0 -12 -12 -10l-100 10
q-10 1 -10 12q0 44 9 74q33 101 156 101q124 0 157 -100q9 -29 9 -92q0 -57 -7 -79q-12 -38 -52 -62v-2q40 -23 52 -62q7 -22 7 -95q0 -77 -9 -106q-33 -100 -157 -100q-123 0 -156 101z" />
    <glyph glyph-name="four" unicode="4" 
d="M31 101q-10 0 -10 10v96q0 5 2 11l136 454q3 8 11 8h105q11 0 8 -11l-135 -454v-2h73q6 0 6 6v153q0 10 10 10h102q10 0 10 -10v-153q0 -6 5 -6h30q10 0 10 -10v-92q0 -10 -10 -10h-29q-6 0 -6 -6v-85q0 -10 -10 -10h-102q-10 0 -10 10v85q0 6 -6 6h-190z" />
    <glyph glyph-name="five" unicode="5" 
d="M52 92q-9 30 -9 67q0 11 10 12l99 10q12 2 12 -10q0 -32 4 -43q9 -27 38 -27q30 0 39 26q4 11 4 92t-4 92q-9 27 -39 27t-40 -28q-3 -9 -14 -9h-89q-10 0 -10 10v359q0 10 10 10h300q10 0 10 -10v-92q0 -10 -10 -10h-193q-6 0 -6 -6v-142h1q26 26 75 26q96 0 123 -84
q11 -32 11 -143q0 -99 -9 -127q-34 -101 -157 -101t-156 101z" />
    <glyph glyph-name="six" unicode="6" 
d="M50 93q-9 30 -9 106q0 67 7.5 106t27.5 87l115 278q4 10 15 10h106q12 0 7 -12l-109 -265q2 -1 2 -2q8 5 30 5q90 0 122 -95q11 -31 11 -112q0 -76 -9 -106q-33 -102 -158 -102t-158 102zM170 128q9 -27 38 -27t38 27q4 11 4 71q0 61 -4 72q-9 27 -38 27t-38 -27
q-4 -11 -4 -72q0 -60 4 -71z" />
    <glyph glyph-name="seven" unicode="7" 
d="M82 12l168 555v2h-92q-6 0 -6 -6v-56q0 -10 -10 -10h-90q-10 0 -10 10v163q0 10 10 10h314q10 0 10 -10v-90q0 -5 -2 -11l-166 -559q-3 -10 -13 -10h-106q-10 0 -7 12z" />
    <glyph glyph-name="eight" unicode="8" 
d="M50 93q-9 30 -9 105q0 65 9 93q13 42 47 64v2q-33 21 -47 65q-9 26 -9 76q0 59 9 89q33 102 158 102t158 -102q9 -30 9 -89q0 -46 -9 -76q-15 -45 -47 -65v-2q33 -21 47 -64q9 -28 9 -93q0 -75 -9 -105q-33 -102 -158 -102t-158 102zM208 408q29 0 38 27q4 12 4 59
q0 46 -4 58q-9 27 -38 27t-38 -27q-4 -12 -4 -58q0 -47 4 -59q9 -27 38 -27zM170 128q10 -27 38 -27t38 27q4 12 4 72q0 59 -4 71q-10 27 -38 27t-38 -27q-4 -12 -4 -71q0 -60 4 -72z" />
    <glyph glyph-name="nine" unicode="9" 
d="M97 12l109 265q-2 1 -2 2q-8 -5 -30 -5q-90 0 -122 95q-11 31 -11 112q0 76 9 106q33 102 158 102t158 -102q9 -30 9 -106q0 -67 -7.5 -106t-27.5 -87l-115 -278q-4 -10 -15 -10h-106q-12 0 -7 12zM208 382q29 0 38 27q4 11 4 72q0 60 -4 71q-9 27 -38 27t-38 -27
q-4 -11 -4 -71q0 -61 4 -72q9 -27 38 -27z" />
    <glyph glyph-name="colon" unicode=":" horiz-adv-x="221" 
d="M60 348q-10 0 -10 10v116q0 10 10 10h102q10 0 10 -10v-116q0 -10 -10 -10h-102zM50 10v116q0 10 10 10h102q10 0 10 -10v-116q0 -10 -10 -10h-102q-10 0 -10 10z" />
    <glyph glyph-name="semicolon" unicode=";" horiz-adv-x="221" 
d="M60 348q-10 0 -10 10v116q0 10 10 10h102q10 0 10 -10v-116q0 -10 -10 -10h-102zM53 -90v216q0 10 10 10h94q10 0 10 -10v-93q0 -17 -8 -28l-86 -99q-5 -5 -11 -5q-9 0 -9 9z" />
    <glyph glyph-name="less" unicode="&#x3c;" 
d="M43 225q-10 3 -10 14v74q0 11 10 14l330 133q10 3 10 -7v-91q0 -9 -10 -13l-190 -72v-2l190 -72q10 -4 10 -13v-90q0 -10 -10 -7z" />
    <glyph glyph-name="equal" unicode="=" 
d="M43 320q-10 0 -10 10v84q0 10 10 10h330q10 0 10 -10v-84q0 -10 -10 -10h-330zM43 128q-10 0 -10 10v84q0 10 10 10h330q10 0 10 -10v-84q0 -10 -10 -10h-330z" />
    <glyph glyph-name="greater" unicode="&#x3e;" 
d="M43 93q-10 -3 -10 7v90q0 9 10 13l190 72v2l-190 72q-10 4 -10 13v91q0 10 10 7l330 -133q10 -3 10 -14v-74q0 -11 -10 -14z" />
    <glyph glyph-name="question" unicode="?" horiz-adv-x="404" 
d="M138 187q-10 0 -10 10v61q0 35 23 75l53 92q27 45 27 96q0 22 -4 33q-8 25 -39 25q-29 0 -38 -26q-4 -11 -4 -58q0 -12 -11 -10l-100 10q-10 1 -10 12q0 53 9 80q16 48 57 75t100 27q60 0 100 -27.5t56 -74.5q9 -29 9 -66q0 -62 -33 -119l-54 -94q-18 -32 -18 -56v-55
q0 -10 -10 -10h-103zM130 10v116q0 10 10 10h102q10 0 10 -10v-116q0 -10 -10 -10h-102q-10 0 -10 10z" />
    <glyph glyph-name="at" unicode="@" horiz-adv-x="689" 
d="M50 71q-20 58 -20 198q0 139 20 197q31 96 109 149t185 53q108 0 186 -53t109 -149q20 -58 20 -197q0 -94 -11 -125q-28 -87 -125 -87q-85 0 -116 67h-1q-13 -35 -35.5 -51t-62.5 -16q-73 0 -93 66q-11 30 -11 142q0 110 11 142q20 65 90 65q53 0 75 -46h2v29q0 10 10 10
h83q10 0 10 -10v-263q0 -47 38 -47q27 0 35 25q3 10 3 99q0 129 -14 173q-22 65 -74.5 100.5t-128.5 35.5t-128.5 -35.5t-73.5 -100.5q-15 -47 -15 -173q0 -127 15 -174q21 -65 73.5 -100.5t128.5 -35.5q86 0 151 42q8 5 14 -3l38 -53q5 -9 -3 -14q-87 -62 -200 -62
q-107 0 -185 53t-109 149zM310 173q8 -24 34 -24t34 24q4 11 4 92q0 80 -4 91q-8 24 -34 24t-34 -24q-3 -12 -3 -91q0 -80 3 -92z" />
    <glyph glyph-name="A" unicode="A" horiz-adv-x="452" 
d="M9 10l148 660q3 10 11 10h118q9 0 11 -10l146 -660q2 -10 -8 -10h-111q-9 0 -11 10l-22 123h-129l-23 -123q-2 -10 -11 -10h-111q-10 0 -8 10zM181 237h91l-43 236h-3z" />
    <glyph glyph-name="B" unicode="B" horiz-adv-x="445" 
d="M46 10v660q0 10 10 10h172q94 0 138 -43.5t44 -133.5q0 -113 -78 -147v-2q86 -26 86 -154q0 -109 -49 -154.5t-152 -45.5h-161q-10 0 -10 10zM183 401h29q39 0 53 17t14 67q0 49 -14 66.5t-53 17.5h-29q-6 0 -6 -6v-156q0 -6 6 -6zM177 117q0 -6 6 -6h29q42 0 58 20
t16 74q0 53 -16 72.5t-58 19.5h-29q-6 0 -6 -6v-174z" />
    <glyph glyph-name="C" unicode="C" horiz-adv-x="413" 
d="M49 104q-13 42 -13 236t13 236q37 113 169 113q82 0 128.5 -43.5t50.5 -128.5q0 -11 -9 -12l-105 -18q-11 -2 -11 9q-3 75 -52 75q-35 0 -45 -31q-6 -22 -6 -200t6 -200q10 -31 45 -31q49 0 52 75q0 11 11 9l105 -18q9 -1 9 -12q-4 -85 -50.5 -128.5t-128.5 -43.5
q-132 0 -169 113z" />
    <glyph glyph-name="D" unicode="D" horiz-adv-x="456" 
d="M46 10v660q0 10 10 10h172q137 0 174 -113q18 -57 18 -227t-18 -227q-37 -113 -174 -113h-172q-10 0 -10 10zM177 124q0 -6 6 -6h32q47 0 61 42q11 29 11 180t-11 180q-14 42 -61 42h-32q-6 0 -6 -6v-432z" />
    <glyph glyph-name="E" unicode="E" horiz-adv-x="390" 
d="M46 10v660q0 10 10 10h297q10 0 10 -10v-98q0 -10 -10 -10h-170q-6 0 -6 -6v-148q0 -6 6 -6h147q10 0 10 -10v-98q0 -10 -10 -10h-147q-6 0 -6 -6v-154q0 -6 6 -6h170q10 0 10 -10v-98q0 -10 -10 -10h-297q-10 0 -10 10z" />
    <glyph glyph-name="F" unicode="F" horiz-adv-x="386" 
d="M46 10v660q0 10 10 10h297q10 0 10 -10v-98q0 -10 -10 -10h-170q-6 0 -6 -6v-154q0 -6 6 -6h147q10 0 10 -10v-99q0 -10 -10 -10h-147q-6 0 -6 -6v-261q0 -10 -10 -10h-111q-10 0 -10 10z" />
    <glyph glyph-name="G" unicode="G" horiz-adv-x="445" 
d="M49 105q-8 25 -10.5 67t-2.5 168t2.5 168t10.5 67q39 114 175 114q83 0 129.5 -43.5t53.5 -125.5q2 -10 -8 -12l-106 -18q-9 -2 -11 9q-4 72 -57 72q-40 0 -50 -32q-6 -19 -6 -199t6 -198q10 -33 52 -33t52 33q6 21 6 124q0 6 -6 6h-43q-10 0 -10 10v88q0 10 10 10h165
q10 0 10 -10v-30q0 -127 -2.5 -168.5t-11.5 -65.5q-38 -115 -173 -115q-136 0 -175 114z" />
    <glyph glyph-name="H" unicode="H" horiz-adv-x="461" 
d="M46 10v660q0 10 10 10h111q10 0 10 -10v-258q0 -6 6 -6h95q6 0 6 6v258q0 10 10 10h111q10 0 10 -10v-660q0 -10 -10 -10h-111q-10 0 -10 10v272q0 6 -6 6h-95q-6 0 -6 -6v-272q0 -10 -10 -10h-111q-10 0 -10 10z" />
    <glyph glyph-name="I" unicode="I" horiz-adv-x="223" 
d="M46 10v660q0 10 10 10h111q10 0 10 -10v-660q0 -10 -10 -10h-111q-10 0 -10 10z" />
    <glyph glyph-name="J" unicode="J" horiz-adv-x="369" 
d="M13 41q-6 8 1 14l72 70q7 6 15 -1q17 -15 38 -15q54 0 54 66v495q0 10 10 10h111q10 0 10 -10v-483q0 -100 -49 -148t-137 -48q-84 0 -125 50z" />
    <glyph glyph-name="K" unicode="K" horiz-adv-x="466" 
d="M46 10v660q0 10 10 10h111q10 0 10 -10v-261l124 263q4 8 13 8h116q4 0 5.5 -3t-0.5 -7l-136 -264l153 -396q4 -10 -6 -10h-119q-9 0 -10 7l-100 271l-40 -84v-184q0 -10 -10 -10h-111q-10 0 -10 10z" />
    <glyph glyph-name="L" unicode="L" horiz-adv-x="385" 
d="M46 10v660q0 10 10 10h111q10 0 10 -10v-546q0 -6 6 -6h172q10 0 10 -10v-98q0 -10 -10 -10h-299q-10 0 -10 10z" />
    <glyph glyph-name="M" unicode="M" horiz-adv-x="567" 
d="M46 10v660q0 10 10 10h108q13 0 16 -10l104 -357h4l100 357q3 10 16 10h107q10 0 10 -10v-660q0 -10 -10 -10h-97q-10 0 -10 10v393h-6l-74 -272q-3 -10 -13 -10h-55q-10 0 -13 10l-74 272h-6v-393q0 -10 -10 -10h-97q-10 0 -10 10z" />
    <glyph glyph-name="N" unicode="N" horiz-adv-x="474" 
d="M46 10v660q0 10 10 10h125q11 0 14 -10l113 -427h5v427q0 10 10 10h95q10 0 10 -10v-660q0 -10 -10 -10h-120q-11 0 -14 10l-118 427h-5v-427q0 -10 -10 -10h-95q-10 0 -10 10z" />
    <glyph glyph-name="O" unicode="O" horiz-adv-x="448" 
d="M224 -9q-136 0 -174 115q-9 24 -11.5 65.5t-2.5 168.5t2.5 168.5t11.5 65.5q38 115 174 115t174 -115q9 -24 11.5 -65.5t2.5 -168.5t-2.5 -168.5t-11.5 -65.5q-38 -115 -174 -115zM224 109q38 0 48 33q7 22 7 198t-7 198q-10 33 -48 33t-48 -33q-7 -22 -7 -198t7 -198
q10 -33 48 -33z" />
    <glyph glyph-name="P" unicode="P" horiz-adv-x="443" 
d="M167 0h-111q-10 0 -10 10v660q0 10 10 10h160q200 0 200 -214t-200 -214h-33q-6 0 -6 -6v-236q0 -10 -10 -10zM212 367q39 0 56 21.5t17 77.5t-17 77.5t-56 21.5h-29q-6 0 -6 -6v-186q0 -6 6 -6h29z" />
    <glyph glyph-name="Q" unicode="Q" horiz-adv-x="449" 
d="M441 27l-57 -58q-8 -6 -15 1l-45 47q-36 -26 -100 -26q-136 0 -174 115q-9 24 -11.5 65.5t-2.5 168.5t2.5 168.5t11.5 65.5q38 115 174 115t174 -115q9 -24 11.5 -65.5t2.5 -168.5q0 -121 -5 -169.5t-19 -76.5l53 -52q9 -9 0 -15zM239 108l-37 34q-7 7 0 14l41 45
q7 7 14 1l24 -23h2v161q0 173 -8 199q-10 33 -50 33t-50 -33q-7 -22 -7 -199q0 -176 7 -198q11 -35 56 -34h8z" />
    <glyph glyph-name="R" unicode="R" horiz-adv-x="454" 
d="M429 0h-120q-8 0 -11 8l-77 258h-38q-6 0 -6 -6v-250q0 -10 -10 -10h-111q-10 0 -10 10v660q0 10 10 10h162q199 0 199 -208q0 -122 -76 -174l93 -288q4 -10 -5 -10zM212 379q39 0 56 20t17 73q0 52 -17 72.5t-56 20.5h-29q-6 0 -6 -6v-174q0 -6 6 -6h29z" />
    <glyph glyph-name="S" unicode="S" horiz-adv-x="423" 
d="M398 202q0 -107 -44.5 -159t-143.5 -52q-181 0 -184 182q0 10 8 11l107 17q11 2 11 -8q1 -47 15.5 -67.5t43.5 -20.5t41.5 18t12.5 63t-12.5 65.5t-50.5 35.5l-41 16q-72 28 -100.5 71.5t-28.5 125.5q0 189 180 189q172 0 180 -169q0 -10 -9 -11l-102 -16q-11 -2 -11 8
q-2 74 -54 74t-52 -68q0 -38 12 -55t52 -33l41 -16q71 -27 100 -71.5t29 -129.5z" />
    <glyph glyph-name="T" unicode="T" horiz-adv-x="405" 
d="M258 0h-111q-10 0 -10 10v546q0 6 -6 6h-107q-10 0 -10 10v98q0 10 10 10h357q10 0 10 -10v-98q0 -10 -10 -10h-107q-6 0 -6 -6v-546q0 -10 -10 -10z" />
    <glyph glyph-name="U" unicode="U" horiz-adv-x="455" 
d="M227 -9q-86 0 -134.5 49.5t-48.5 143.5v486q0 10 10 10h111q10 0 10 -10v-502q0 -27 13.5 -43t38.5 -16t39 16t14 43v502q0 10 10 10h111q10 0 10 -10v-486q0 -94 -48.5 -143.5t-135.5 -49.5z" />
    <glyph glyph-name="V" unicode="V" horiz-adv-x="428" 
d="M268 0h-108q-8 0 -11 10l-135 660q-3 10 8 10h113q10 0 11 -10l69 -430h3l66 430q1 10 11 10h111q11 0 8 -10l-136 -660q-2 -10 -10 -10z" />
    <glyph glyph-name="W" unicode="W" horiz-adv-x="611" 
d="M477 0h-98q-8 0 -10 10l-61 403h-2l-63 -403q-2 -10 -11 -10h-97q-9 0 -11 10l-110 660q-2 10 9 10h113q10 0 11 -10l45 -419h2l63 419q1 10 11 10h75q9 0 12 -10l63 -419h3l46 419q1 10 11 10h111q11 0 8 -10l-109 -660q-3 -10 -11 -10z" />
    <glyph glyph-name="X" unicode="X" horiz-adv-x="425" 
d="M405 0h-113q-8 0 -11 10l-67 193h-2l-68 -193q-3 -10 -12 -10h-112q-11 0 -8 10l133 344l-122 316q-3 10 8 10h113q8 0 11 -10l57 -176h2l57 176q3 10 11 10h112q11 0 8 -10l-122 -316l133 -344q3 -10 -8 -10z" />
    <glyph glyph-name="Y" unicode="Y" horiz-adv-x="411" 
d="M261 0h-111q-10 0 -10 10v260l-132 400q-3 10 8 10h111q11 0 12 -10l67 -249h4l64 249q3 10 12 10h109q11 0 8 -10l-132 -400v-260q0 -10 -10 -10z" />
    <glyph glyph-name="Z" unicode="Z" horiz-adv-x="382" 
d="M341 0h-300q-10 0 -10 10v94q0 1 3 10l178 446v2h-161q-10 0 -10 10v98q0 10 10 10h290q10 0 10 -10v-95q0 -4 -2 -10l-178 -445v-2h170q10 0 10 -10v-98q0 -10 -10 -10z" />
    <glyph glyph-name="bracketleft" unicode="[" horiz-adv-x="260" 
d="M213 -84h-154q-10 0 -10 10v804q0 10 10 10h154q10 0 10 -10v-77q0 -10 -10 -10h-46q-6 0 -6 -6v-618q0 -6 6 -6h46q10 0 10 -10v-77q0 -10 -10 -10z" />
    <glyph glyph-name="backslash" unicode="\" horiz-adv-x="263" 
d="M235 -9h-80q-10 0 -11 10l-125 678q-2 10 9 10h80q9 0 11 -10l125 -678q2 -10 -9 -10z" />
    <glyph glyph-name="bracketright" unicode="]" horiz-adv-x="260" 
d="M201 -84h-154q-10 0 -10 10v77q0 10 10 10h46q6 0 6 6v618q0 6 -6 6h-46q-10 0 -10 10v77q0 10 10 10h154q10 0 10 -10v-804q0 -10 -10 -10z" />
    <glyph glyph-name="asciicircum" unicode="^" 
d="M381 260h-94q-9 0 -13 10l-64 240h-2l-65 -240q-4 -10 -13 -10h-94q-10 0 -7 10l126 400q3 10 14 10h80q11 0 14 -10l125 -400q3 -10 -7 -10z" />
    <glyph glyph-name="underscore" unicode="_" horiz-adv-x="432" 
d="M432 -142h-432v75h432v-75z" />
    <glyph glyph-name="grave" unicode="`" horiz-adv-x="429" 
d="M302 551h-75q-11 0 -18 10l-93 130q-3 4 -1.5 7t6.5 3h100q10 0 16 -10l71 -130q5 -10 -6 -10z" />
    <glyph glyph-name="a" unicode="a" horiz-adv-x="393" 
d="M344 0h-100q-10 0 -10 10v33h-1q-9 -24 -33 -38t-57 -14q-48 0 -81.5 34.5t-33.5 110.5q0 82 43 118.5t109 36.5h48q6 0 6 6v24q0 35 -13.5 50t-48.5 15q-41 0 -80 -27q-10 -7 -15 4l-32 76q-4 8 4 14q54 40 141 40q89 0 126.5 -40t37.5 -129v-314q0 -10 -10 -10zM185 88
q23 0 36 15.5t13 42.5v50q0 6 -6 6h-27q-58 0 -58 -59q0 -55 42 -55z" />
    <glyph glyph-name="b" unicode="b" 
d="M262 -9q-68 0 -93 58h-1v-39q0 -10 -10 -10h-104q-10 0 -10 10v660q0 10 10 10h105q10 0 10 -10v-235h1q24 58 92 58q81 0 107 -78q13 -42 13 -173t-13 -173q-26 -78 -107 -78zM213 101q31 0 39 27q5 15 5 114t-5 114q-8 27 -39 27t-39 -27q-5 -15 -5 -114t5 -114
q8 -27 39 -27z" />
    <glyph glyph-name="c" unicode="c" horiz-adv-x="372" 
d="M195 -9q-120 0 -152 101q-12 39 -12 150t12 150q32 101 152 101q69 0 112 -37t47 -101q0 -10 -8 -11l-96 -18q-10 -2 -12 9q-4 48 -41 48q-28 0 -37 -25q-4 -15 -4 -116t4 -116q9 -25 37 -25q37 0 41 48q2 11 12 9l96 -18q8 -1 8 -11q-4 -64 -47.5 -101t-111.5 -37z" />
    <glyph glyph-name="d" unicode="d" 
d="M362 0h-104q-10 0 -10 10v39h-1q-25 -58 -93 -58q-81 0 -107 78q-13 42 -13 173t13 173q26 78 107 78q68 0 92 -58h1v235q0 10 10 10h105q10 0 10 -10v-660q0 -10 -10 -10zM203 101q31 0 39 27q5 15 5 114t-5 114q-8 27 -39 27t-39 -27q-5 -15 -5 -114t5 -114
q8 -27 39 -27z" />
    <glyph glyph-name="e" unicode="e" horiz-adv-x="393" 
d="M197 -9q-119 0 -154 102q-12 35 -12 149t12 149q35 102 154 102q120 0 155 -102q12 -35 12 -179q0 -10 -10 -10h-193q-6 0 -6 -6q0 -56 5 -69q9 -28 39 -28q33 0 45 38q3 9 12 7l95 -19q9 -1 7 -12q-10 -57 -53.5 -89.5t-107.5 -32.5zM237 291q6 0 6 6q0 50 -5 67
q-10 26 -39 26t-39 -26q-5 -17 -5 -67q0 -6 6 -6h76z" />
    <glyph glyph-name="f" unicode="f" horiz-adv-x="279" 
d="M181 0h-105q-10 0 -10 10v375q0 6 -6 6h-31q-10 0 -10 10v73q0 10 10 10h31q6 0 6 6v30q0 80 38.5 120t121.5 40h28q10 0 10 -10v-90q0 -10 -10 -10h-26q-21 0 -29 -8t-8 -28v-44q0 -6 6 -6h57q10 0 10 -10v-73q0 -10 -10 -10h-57q-6 0 -6 -6v-375q0 -10 -10 -10z" />
    <glyph glyph-name="g" unicode="g" 
d="M201 -189q-62 0 -104.5 31t-51.5 79q-2 9 5 11l97 28q8 2 12 -6q12 -34 44 -34q44 0 44 51v98h-1q-23 -58 -92 -58q-80 0 -106 79q-14 44 -14 162q0 117 14 161q26 79 106 79q68 0 93 -58h1v40q0 10 10 10h104q10 0 10 -10v-488q0 -85 -45.5 -130t-125.5 -45zM203 120
q31 0 40 28q4 15 4 104q0 88 -4 103q-9 28 -40 28q-30 0 -39 -28q-5 -14 -5 -103q0 -90 5 -104q9 -28 39 -28z" />
    <glyph glyph-name="h" unicode="h" horiz-adv-x="419" 
d="M368 0h-105q-10 0 -10 10v315q0 57 -42 57t-42 -57v-315q0 -10 -10 -10h-105q-10 0 -10 10v660q0 10 10 10h105q10 0 10 -10v-233h1q29 56 94 56q58 0 86 -36t28 -113v-334q0 -10 -10 -10z" />
    <glyph glyph-name="i" unicode="i" horiz-adv-x="213" 
d="M159 562h-105q-10 0 -10 10v98q0 10 10 10h105q10 0 10 -10v-98q0 -10 -10 -10zM159 0h-105q-10 0 -10 10v464q0 10 10 10h105q10 0 10 -10v-464q0 -10 -10 -10z" />
    <glyph glyph-name="j" unicode="j" horiz-adv-x="213" 
d="M159 562h-105q-10 0 -10 10v98q0 10 10 10h105q10 0 10 -10v-98q0 -10 -10 -10zM6 -180h-17q-10 0 -10 10v90q0 10 10 10l14 1q22 2 31.5 14t9.5 43v486q0 10 10 10h105q10 0 10 -10v-486q0 -168 -163 -168z" />
    <glyph glyph-name="k" unicode="k" horiz-adv-x="415" 
d="M398 0h-110q-10 0 -14 11l-71 189l-34 -61v-129q0 -10 -10 -10h-105q-10 0 -10 10v660q0 10 10 10h105q10 0 10 -10v-361l91 166q6 9 14 9h108q11 0 6 -10l-106 -171l122 -293q5 -10 -6 -10z" />
    <glyph glyph-name="l" unicode="l" horiz-adv-x="245" 
d="M213 -6h-11q-86 2 -122.5 38t-36.5 124v514q0 10 10 10h105q10 0 10 -10v-513q0 -45 40 -51l5 -1q10 -2 10 -11v-90q0 -10 -10 -10z" />
    <glyph glyph-name="m" unicode="m" horiz-adv-x="628" 
d="M577 0h-105q-10 0 -10 10v315q0 57 -42 57t-42 -57v-315q0 -10 -10 -10h-105q-10 0 -10 10v315q0 57 -42 57t-42 -57v-315q0 -10 -10 -10h-105q-10 0 -10 10v464q0 10 10 10h104q10 0 10 -10v-37h1q29 56 95 56q71 0 96 -52h1q33 52 102 52q124 0 124 -149v-334
q0 -10 -10 -10z" />
    <glyph glyph-name="n" unicode="n" horiz-adv-x="419" 
d="M368 0h-105q-10 0 -10 10v315q0 57 -42 57t-42 -57v-315q0 -10 -10 -10h-105q-10 0 -10 10v464q0 10 10 10h104q10 0 10 -10v-37h1q29 56 95 56q58 0 86 -36t28 -113v-334q0 -10 -10 -10z" />
    <glyph glyph-name="o" unicode="o" horiz-adv-x="400" 
d="M200 -9q-123 0 -157 106q-12 35 -12 145t12 145q34 106 157 106t157 -106q12 -35 12 -145t-12 -145q-34 -106 -157 -106zM200 101q31 0 40 28q4 15 4 113t-4 113q-9 28 -40 28t-40 -28q-4 -15 -4 -113t4 -113q9 -28 40 -28z" />
    <glyph glyph-name="p" unicode="p" 
d="M159 -180h-105q-10 0 -10 10v644q0 10 10 10h104q10 0 10 -10v-39h1q25 58 93 58q81 0 107 -78q13 -42 13 -173t-13 -173q-26 -78 -107 -78q-68 0 -92 58h-1v-219q0 -10 -10 -10zM213 101q31 0 39 27q5 15 5 114t-5 114q-8 27 -39 27t-39 -27q-5 -15 -5 -114t5 -114
q8 -27 39 -27z" />
    <glyph glyph-name="q" unicode="q" 
d="M362 -180h-105q-10 0 -10 10v219h-1q-24 -58 -92 -58q-81 0 -107 78q-13 42 -13 173t13 173q26 78 107 78q68 0 93 -58h1v39q0 10 10 10h104q10 0 10 -10v-644q0 -10 -10 -10zM203 101q31 0 39 27q5 15 5 114t-5 114q-8 27 -39 27t-39 -27q-5 -15 -5 -114t5 -114
q8 -27 39 -27z" />
    <glyph glyph-name="r" unicode="r" horiz-adv-x="314" 
d="M159 0h-105q-10 0 -10 10v464q0 10 10 10h105q10 0 10 -10v-45h1q30 64 111 64h15q9 -2 8 -10l-23 -107q-1 -7 -10 -6h-17q-85 0 -85 -99v-261q0 -10 -10 -10z" />
    <glyph glyph-name="s" unicode="s" horiz-adv-x="364" 
d="M182 -9q-72 0 -114 34t-47 93q-2 9 8 11l92 17q10 2 12 -8q6 -49 49 -49q20 0 32 12t12 32t-10 31.5t-35 21.5l-39 14q-113 39 -113 147q0 65 41.5 105.5t113.5 40.5q66 0 105 -32t45 -82q2 -11 -6 -13l-87 -16q-9 -2 -11 8q-10 38 -45 38q-18 0 -28.5 -11t-10.5 -29
q0 -30 46 -47l39 -14q61 -21 87 -57t26 -94q0 -69 -43 -111t-119 -42z" />
    <glyph glyph-name="t" unicode="t" horiz-adv-x="275" 
d="M242 -6h-34q-76 0 -110 33t-34 116v242q0 6 -6 6h-30q-10 0 -10 10v73q0 10 10 10h30q6 0 6 6v130q0 10 10 10h105q10 0 10 -10v-130q0 -6 6 -6h47q10 0 10 -10v-73q0 -10 -10 -10h-47q-6 0 -6 -6v-237q0 -42 39 -42h14q10 0 10 -10v-92q0 -10 -10 -10z" />
    <glyph glyph-name="u" unicode="u" horiz-adv-x="417" 
d="M363 0h-105q-10 0 -10 10v37h-1q-29 -56 -94 -56q-57 0 -84.5 36t-27.5 113v334q0 10 10 10h105q10 0 10 -10v-314q0 -58 41 -58t41 58v314q0 10 10 10h105q10 0 10 -10v-464q0 -10 -10 -10z" />
    <glyph glyph-name="v" unicode="v" horiz-adv-x="382" 
d="M240 0h-97q-9 0 -12 10l-118 464q-3 10 7 10h106q9 0 11 -10l56 -285h1l56 285q2 10 11 10h101q10 0 7 -10l-117 -464q-3 -10 -12 -10z" />
    <glyph glyph-name="w" unicode="w" horiz-adv-x="565" 
d="M430 0h-89q-11 0 -12 10l-46 258h-2l-44 -258q-1 -10 -12 -10h-89q-9 0 -12 10l-110 464q-3 10 7 10h104q9 0 11 -10l49 -281h1l50 281q2 10 11 10h73q9 0 11 -10l48 -281h1l50 281q2 10 11 10h103q10 0 7 -10l-109 -464q-3 -10 -12 -10z" />
    <glyph glyph-name="x" unicode="x" horiz-adv-x="384" 
d="M368 0h-104q-9 0 -13 8l-59 136h-1l-58 -136q-4 -8 -14 -8h-103q-10 0 -5 11l117 238l-110 224q-6 11 6 11h103q9 0 13 -8l54 -121h1l50 121q4 8 14 8h102q11 0 5 -11l-111 -224l118 -238q5 -11 -5 -11z" />
    <glyph glyph-name="y" unicode="y" horiz-adv-x="387" 
d="M76 -180h-14q-10 0 -10 10v92q0 10 10 10l14 1q24 1 36 11.5t19 37.5l8 35l-124 457q-3 10 7 10h105q9 0 11 -10l56 -276h1l57 276q2 10 12 10h100q10 0 7 -10l-128 -494q-25 -95 -60 -127.5t-107 -32.5z" />
    <glyph glyph-name="z" unicode="z" horiz-adv-x="342" 
d="M305 0h-267q-10 0 -10 10v85q0 6 3 12l146 269v2h-129q-10 0 -10 10v86q0 10 10 10h257q10 0 10 -10v-76q0 -7 -3 -13l-149 -275v-2h142q10 0 10 -10v-88q0 -10 -10 -10z" />
    <glyph glyph-name="braceleft" unicode="{" horiz-adv-x="323" 
d="M276 -84h-36q-61 0 -94 33t-33 94v167q0 37 -12.5 53.5t-43.5 16.5q-10 0 -10 10v81q0 10 10 10q31 0 43.5 16.5t12.5 53.5v162q0 61 33 94t94 33h36q10 0 10 -10v-77q0 -10 -10 -10h-10q-42 0 -42 -46v-133q0 -61 -11 -89t-45 -43v-3q35 -16 45.5 -43.5t10.5 -88.5v-138
q0 -46 42 -46h10q10 0 10 -10v-77q0 -10 -10 -10z" />
    <glyph glyph-name="bar" unicode="|" horiz-adv-x="276" 
d="M178 -84h-81q-10 0 -10 10v804q0 10 10 10h81q10 0 10 -10v-804q0 -10 -10 -10z" />
    <glyph glyph-name="braceright" unicode="}" horiz-adv-x="323" 
d="M83 -84h-36q-10 0 -10 10v77q0 10 10 10h10q42 0 42 46v138q0 61 10.5 88.5t45.5 43.5v3q-34 15 -45 43t-11 89v133q0 46 -42 46h-10q-10 0 -10 10v77q0 10 10 10h36q61 0 94 -33t33 -94v-162q0 -37 12.5 -53.5t43.5 -16.5q10 0 10 -10v-81q0 -10 -10 -10
q-31 0 -43.5 -16.5t-12.5 -53.5v-167q0 -61 -33 -94t-94 -33z" />
    <glyph glyph-name="asciitilde" unicode="~" 
d="M273 196q-29 0 -70 24q-39 21 -50 21q-15 0 -25 -8.5t-24 -31.5q-4 -7 -13 -3l-59 31q-8 5 -4 14q44 91 114 91q32 0 71 -23q37 -21 50 -21q15 0 24.5 8t23.5 32q4 7 13 3l59 -31q9 -4 4 -15q-43 -91 -114 -91z" />
    <glyph glyph-name="uni00A0" unicode="&#xa0;" horiz-adv-x="195" 
 />
    <glyph glyph-name="exclamdown" unicode="&#xa1;" horiz-adv-x="249" 
d="M155 297q10 0 10 -10l25 -473q0 -10 -10 -10h-113q-10 0 -10 10l25 473q0 10 10 10h63zM185 474v-116q0 -10 -10 -10h-102q-10 0 -10 10v116q0 10 10 10h102q10 0 10 -10z" />
    <glyph glyph-name="cent" unicode="&#xa2;" 
d="M377 121q-6 -55 -40.5 -88.5t-91.5 -39.5v-81q0 -10 -10 -10h-40q-10 0 -10 10v81q-97 10 -126 99q-12 39 -12 150t12 150q29 87 126 99v81q0 10 10 10h40q10 0 10 -10v-81q58 -7 92 -40t40 -88q2 -11 -7 -12l-96 -18q-12 -1 -12 8q-7 42 -45 42q-31 0 -40 -25
q-5 -14 -5 -116t5 -116q9 -25 40 -25q38 0 45 42q0 9 12 8l96 -18q9 -1 7 -12z" />
    <glyph glyph-name="sterling" unicode="&#xa3;" 
d="M378 0h-330q-10 0 -10 10v89q0 4 4 12q26 31 26 89v72q0 6 -6 6h-28q-10 0 -10 10v68q0 10 10 10h28q6 0 6 6v153q0 78 41.5 121t118.5 43q76 0 115.5 -40.5t44.5 -108.5q2 -10 -8 -12l-100 -16q-9 -1 -11 8q-2 32 -11 45.5t-28 13.5q-37 0 -37 -52v-155q0 -6 6 -6h95
q10 0 10 -10v-68q0 -10 -10 -10h-95q-6 0 -6 -6v-72q0 -60 -24 -88v-2h209q10 0 10 -10v-90q0 -10 -10 -10z" />
    <glyph glyph-name="currency" unicode="&#xa4;" 
d="M377 199l-46 -46q-7 -7 -14 0l-42 41q-30 -15 -67 -15q-38 0 -68 15l-41 -41q-7 -7 -14 0l-47 46q-7 7 0 14l42 42q-16 29 -16 68q0 35 16 67l-42 42q-7 7 0 14l47 46q7 7 14 0l41 -41q32 16 68 16q37 0 69 -16l41 41q7 7 14 0l47 -46q7 -7 0 -14l-42 -42q15 -30 15 -67
t-16 -69l41 -41q7 -7 0 -14zM208 265q25 0 41 16.5t16 41.5t-16 41.5t-41 16.5t-40.5 -16t-15.5 -42t15.5 -42t40.5 -16z" />
    <glyph glyph-name="yen" unicode="&#xa5;" 
d="M261 0h-105q-10 0 -10 10v97q0 6 -6 6h-85q-10 0 -10 10v62q0 10 10 10h85q6 0 6 6v35q0 6 -6 6h-85q-10 0 -10 10v61q0 10 10 10h75v3l-111 344q-3 10 8 10h107q9 0 12 -10l63 -249h3l61 249q3 10 12 10h105q11 0 8 -10l-111 -344v-3h75q10 0 10 -10v-61q0 -10 -10 -10
h-85q-6 0 -6 -6v-35q0 -6 6 -6h85q10 0 10 -10v-62q0 -10 -10 -10h-85q-6 0 -6 -6v-97q0 -10 -10 -10z" />
    <glyph glyph-name="brokenbar" unicode="&#xa6;" horiz-adv-x="275" 
d="M178 388h-81q-10 0 -10 10v332q0 10 10 10h81q10 0 10 -10v-332q0 -10 -10 -10zM178 -84h-81q-10 0 -10 10v336q0 10 10 10h81q10 0 10 -10v-336q0 -10 -10 -10z" />
    <glyph glyph-name="section" unicode="&#xa7;" horiz-adv-x="469" 
d="M233 -189q-117 0 -145 88q-9 27 -9 67q0 8 9 10l96 9q8 0 8 -9q0 -32 5 -45q8 -23 35 -23t35 23q5 13 5 35q0 29 -5 43q-11 34 -83 59q-84 29 -105 94q-12 34 -12 90q0 45 9 75q16 51 66 72v1q-39 18 -53 62q-10 29 -10 72q0 40 9 65q30 90 146 90q118 0 144 -88
q8 -24 8 -66q0 -8 -8 -9l-95 -9q-9 0 -9 9q0 32 -4 43q-8 23 -34 23q-25 0 -33 -23q-4 -11 -4 -35q0 -26 5 -40q11 -34 81 -58q84 -29 105 -94q12 -34 12 -90q0 -45 -9 -75q-16 -51 -67 -72v-1q42 -18 56 -62q9 -30 9 -73t-9 -68q-30 -90 -149 -90zM234 161q34 0 44 31
q5 18 5 60t-5 60q-10 31 -44 31q-33 0 -43 -31q-5 -18 -5 -60t5 -60q10 -31 43 -31z" />
    <glyph glyph-name="dieresis" unicode="&#xa8;" horiz-adv-x="429" 
d="M332 562h-77q-10 0 -10 10v98q0 10 10 10h77q10 0 10 -10v-98q0 -10 -10 -10zM174 562h-77q-10 0 -10 10v98q0 10 10 10h77q10 0 10 -10v-98q0 -10 -10 -10z" />
    <glyph glyph-name="copyright" unicode="&#xa9;" horiz-adv-x="703" 
d="M352 -9q-109 0 -186.5 53.5t-109.5 150.5q-19 59 -19 145t19 145q32 97 109.5 150.5t186.5 53.5t185.5 -53.5t109.5 -150.5q19 -54 19 -145t-19 -145q-33 -97 -109.5 -150.5t-185.5 -53.5zM352 66q165 0 215 149q16 50 16 125t-16 125q-50 149 -215 149
q-81 0 -136.5 -38.5t-78.5 -110.5q-17 -53 -17 -125t17 -125q23 -72 78.5 -110.5t136.5 -38.5zM356 143q-96 0 -123 81q-9 28 -9 116t9 116q27 81 123 81q52 0 85.5 -26t38.5 -69q2 -9 -6 -11l-73 -13q-8 -2 -10 6q-7 28 -34 28q-25 0 -32 -22q-4 -11 -4 -90t4 -90
q7 -22 32 -22q27 0 34 28q2 8 10 6l73 -13q8 -2 6 -11q-5 -43 -38.5 -69t-85.5 -26z" />
    <glyph glyph-name="ordfeminine" unicode="&#xaa;" horiz-adv-x="292" 
d="M243 392h-58q-10 0 -10 10v17h-2q-14 -30 -58 -30q-34 0 -55 21.5t-21 63.5q0 50 28 73.5t73 23.5h29q6 0 6 6v5q0 36 -42 36q-22 0 -51 -16q-11 -5 -14 5l-18 44q-3 9 6 13q37 24 90 24q55 0 81 -25t26 -78v-183q0 -10 -10 -10zM143 451q14 0 23 8.5t9 23.5v26q0 6 -6 6
h-19q-36 0 -36 -33q0 -31 29 -31z" />
    <glyph glyph-name="guillemotleft" unicode="&#xab;" horiz-adv-x="491" 
d="M425 68l-185 189q-7 7 0 14l185 189q3 3 6.5 1.5t3.5 -5.5v-101q0 -9 -10 -19l-67 -68q-4 -4 0 -8l67 -68q10 -10 10 -19v-101q0 -4 -3.5 -5.5t-6.5 1.5zM219 68l-185 189q-7 7 0 14l185 189q3 3 6.5 1.5t3.5 -5.5v-101q0 -9 -10 -19l-67 -68q-4 -4 0 -8l67 -68
q10 -10 10 -19v-101q0 -4 -3.5 -5.5t-6.5 1.5z" />
    <glyph glyph-name="logicalnot" unicode="&#xac;" 
d="M373 130h-88q-10 0 -10 10v78q0 6 -6 6h-226q-10 0 -10 10v84q0 10 10 10h330q10 0 10 -10v-178q0 -10 -10 -10z" />
    <glyph glyph-name="uni00AD" unicode="&#xad;" horiz-adv-x="366" 
d="M317 208h-268q-10 0 -10 10v94q0 10 10 10h268q10 0 10 -10v-94q0 -10 -10 -10z" />
    <glyph glyph-name="registered" unicode="&#xae;" horiz-adv-x="426" 
d="M213 303q-59 0 -101.5 29t-59.5 82q-11 31 -11 79q0 47 11 78q17 53 59.5 82t101.5 29q60 0 102 -29t59 -82q12 -34 12 -78q0 -45 -12 -79q-17 -53 -59 -82t-102 -29zM213 343q92 0 121 83q8 24 8 67q0 42 -8 66q-28 83 -121 83t-121 -83q-8 -24 -8 -66q0 -43 8 -67
q29 -83 121 -83zM194 388h-32q-7 0 -7 7v198q0 7 7 7h54q63 0 63 -64q0 -36 -24 -54l29 -87q3 -7 -5 -7h-35q-7 0 -8 7l-23 75h-9q-3 0 -3 -4v-71q0 -7 -7 -7zM211 510q12 0 17 5t5 20t-4.5 19.5t-17.5 4.5h-6q-4 0 -4 -4v-41q0 -4 4 -4h6z" />
    <glyph glyph-name="macron" unicode="&#xaf;" horiz-adv-x="429" 
d="M326 576h-223q-10 0 -10 10v74q0 10 10 10h223q10 0 10 -10v-74q0 -10 -10 -10z" />
    <glyph glyph-name="degree" unicode="&#xb0;" horiz-adv-x="342" 
d="M171 432q-55 0 -91 36t-36 90q0 55 36 91t91 36t91 -36t36 -91q0 -54 -36 -90t-91 -36zM171 500q25 0 40.5 16.5t15.5 41.5q0 26 -15.5 42.5t-40.5 16.5t-40.5 -16.5t-15.5 -42.5q0 -25 15.5 -41.5t40.5 -16.5z" />
    <glyph glyph-name="plusminus" unicode="&#xb1;" 
d="M252 150h-88q-10 0 -10 10v108q0 6 -6 6h-105q-10 0 -10 10v84q0 10 10 10h105q6 0 6 6v108q0 10 10 10h88q10 0 10 -10v-108q0 -6 6 -6h105q10 0 10 -10v-84q0 -10 -10 -10h-105q-6 0 -6 -6v-108q0 -10 -10 -10zM373 0h-330q-10 0 -10 10v84q0 10 10 10h330q10 0 10 -10
v-84q0 -10 -10 -10z" />
    <glyph glyph-name="twosuperior" unicode="&#xb2;" horiz-adv-x="297" 
d="M267 724q0 -48 -31 -94l-80 -116v-1h99q10 0 10 -10v-63q0 -10 -10 -10h-209q-10 0 -10 10v59q0 10 5 16l112 156q18 26 18 52q0 17 -3 26q-4 14 -22 14q-17 0 -22 -14q-3 -7 -3 -35q0 -12 -12 -10l-69 7q-10 1 -10 12q0 28 6 52q11 33 40 51t72 18q91 0 113 -69
q6 -18 6 -51z" />
    <glyph glyph-name="threesuperior" unicode="&#xb3;" horiz-adv-x="297" 
d="M148 422q-91 0 -113 69q-5 20 -5 37q0 11 10 12l68 7q12 2 12 -10q0 -15 3 -21q6 -13 22 -13q17 0 23 14q3 6 3 31q0 26 -3 33q-5 15 -26 15h-7q-10 0 -10 10v64q0 10 10 10h9q20 0 25 15q2 5 2 28q0 21 -3 27q-6 13 -23 13q-16 0 -22 -13q-3 -6 -3 -21q0 -12 -12 -10
l-68 7q-10 1 -10 12q0 17 5 37q22 69 113 69q43 0 72.5 -18.5t40.5 -50.5q5 -20 5 -48q0 -31 -4 -44q-8 -27 -38 -41v-1q28 -15 37 -42q5 -14 5 -52q0 -36 -5 -56q-11 -32 -40.5 -50.5t-72.5 -18.5z" />
    <glyph glyph-name="acute" unicode="&#xb4;" horiz-adv-x="429" 
d="M202 551h-75q-11 0 -6 10l72 130q6 10 16 10h100q5 0 6.5 -3t-1.5 -7l-94 -130q-8 -10 -18 -10z" />
    <glyph glyph-name="mu" unicode="&#xb5;" horiz-adv-x="421" 
d="M367 0h-105q-10 0 -10 10v37h-1q-18 -53 -64 -53q-12 0 -18 3v-167q0 -10 -10 -10h-105q-10 0 -10 10v644q0 10 10 10h105q10 0 10 -10v-314q0 -58 41 -58q42 0 42 58v314q0 10 10 10h105q10 0 10 -10v-464q0 -10 -10 -10z" />
    <glyph glyph-name="mu" unicode="&#x3bc;" horiz-adv-x="421" 
d="M367 0h-105q-10 0 -10 10v37h-1q-18 -53 -64 -53q-12 0 -18 3v-167q0 -10 -10 -10h-105q-10 0 -10 10v644q0 10 10 10h105q10 0 10 -10v-314q0 -58 41 -58q42 0 42 58v314q0 10 10 10h105q10 0 10 -10v-464q0 -10 -10 -10z" />
    <glyph glyph-name="paragraph" unicode="&#xb6;" horiz-adv-x="533" 
d="M468 -180h-79q-10 0 -10 10v741q0 6 -6 6h-47q-6 0 -6 -6v-741q0 -10 -10 -10h-79q-10 0 -10 10v417q-74 5 -121.5 66.5t-47.5 150.5q0 91 55.5 153.5t147.5 62.5h213q10 0 10 -10v-840q0 -10 -10 -10z" />
    <glyph glyph-name="periodcentered" unicode="&#xb7;" horiz-adv-x="208" 
d="M155 197h-102q-10 0 -10 10v116q0 10 10 10h102q10 0 10 -10v-116q0 -10 -10 -10z" />
    <glyph glyph-name="cedilla" unicode="&#xb8;" horiz-adv-x="429" 
d="M136 -150l65 150q4 10 14 10h74q10 0 7 -10l-53 -150q-4 -10 -16 -10h-84q-10 0 -7 10z" />
    <glyph glyph-name="onesuperior" unicode="&#xb9;" horiz-adv-x="297" 
d="M207 430h-75q-10 0 -10 10v292h-2l-56 -32q-12 -7 -12 5v75q0 9 8 14l59 37q10 5 16 5h72q10 0 10 -10v-386q0 -10 -10 -10z" />
    <glyph glyph-name="ordmasculine" unicode="&#xba;" horiz-adv-x="300" 
d="M150 386q-82 0 -104 67q-7 22 -7 84q0 61 7 83q23 68 104 68t104 -68q8 -21 8 -83q0 -63 -8 -84q-23 -67 -104 -67zM182 537q0 49 -3 60q-6 20 -29 20t-29 -20q-3 -11 -3 -60q0 -51 3 -61q6 -20 29 -20t29 20q3 10 3 61z" />
    <glyph glyph-name="guillemotright" unicode="&#xbb;" horiz-adv-x="491" 
d="M457 257l-185 -189q-3 -3 -6.5 -1.5t-3.5 5.5v101q0 9 10 19l67 68q4 4 0 8l-67 68q-10 10 -10 19v101q0 4 3.5 5.5t6.5 -1.5l185 -189q7 -7 0 -14zM251 257l-185 -189q-3 -3 -6.5 -1.5t-3.5 5.5v101q0 9 10 19l67 68q4 4 0 8l-67 68q-10 10 -10 19v101q0 4 3.5 5.5
t6.5 -1.5l185 -189q7 -7 0 -14z" />
    <glyph glyph-name="onequarter" unicode="&#xbc;" horiz-adv-x="766" 
d="M229 274h-75q-10 0 -10 10v292h-2l-56 -32q-12 -7 -12 5v75q0 9 8 14l59 37q10 5 16 5h72q10 0 10 -10v-386q0 -10 -10 -10zM654 0h-68q-10 0 -10 10v37q0 6 -6 6h-130q-10 0 -10 10v64q0 9 3 16l85 253q3 10 12 10h77q10 0 7 -10l-87 -258v-3h43q6 0 6 6v80q0 10 10 10
h68q10 0 10 -10v-80q0 -6 5 -6h11q10 0 10 -10v-62q0 -10 -10 -10h-10q-6 0 -6 -6v-37q0 -10 -10 -10zM273 -9h-67q-10 0 -7 10l253 678q4 10 13 10h67q10 0 7 -10l-253 -678q-4 -10 -13 -10z" />
    <glyph glyph-name="onehalf" unicode="&#xbd;" horiz-adv-x="785" 
d="M229 274h-75q-10 0 -10 10v292h-2l-56 -32q-12 -7 -12 5v75q0 9 8 14l59 37q10 5 16 5h72q10 0 10 -10v-386q0 -10 -10 -10zM710 294q0 -48 -31 -94l-80 -116v-1h99q10 0 10 -10v-63q0 -10 -10 -10h-209q-10 0 -10 10v59q0 10 5 16l112 156q18 26 18 52q0 17 -3 26
q-4 14 -22 14q-17 0 -22 -14q-3 -7 -3 -35q0 -12 -12 -10l-69 7q-10 1 -10 12q0 28 6 52q11 33 40 51t72 18q91 0 113 -69q6 -18 6 -51zM273 -9h-67q-10 0 -7 10l253 678q4 10 13 10h67q10 0 7 -10l-253 -678q-4 -10 -13 -10z" />
    <glyph glyph-name="threequarters" unicode="&#xbe;" horiz-adv-x="812" 
d="M700 0h-68q-10 0 -10 10v37q0 6 -6 6h-130q-10 0 -10 10v64q0 9 3 16l85 253q3 10 12 10h77q10 0 7 -10l-87 -258v-3h43q6 0 6 6v80q0 10 10 10h68q10 0 10 -10v-80q0 -6 5 -6h11q10 0 10 -10v-62q0 -10 -10 -10h-10q-6 0 -6 -6v-37q0 -10 -10 -10zM320 -9h-67
q-10 0 -7 10l253 678q4 10 13 10h67q10 0 7 -10l-253 -678q-4 -10 -13 -10zM193 266q-91 0 -113 69q-5 20 -5 37q0 11 10 12l68 7q12 2 12 -10q0 -15 3 -21q6 -13 22 -13q17 0 23 14q3 6 3 31q0 26 -3 33q-5 15 -26 15h-7q-10 0 -10 10v64q0 10 10 10h9q20 0 25 15q2 5 2 28
q0 21 -3 27q-6 13 -23 13q-16 0 -22 -13q-3 -6 -3 -21q0 -12 -12 -10l-68 7q-10 1 -10 12q0 17 5 37q22 69 113 69q43 0 72.5 -18.5t40.5 -50.5q5 -20 5 -48q0 -31 -4 -44q-8 -27 -38 -41v-1q28 -15 37 -42q5 -14 5 -52q0 -36 -5 -56q-11 -32 -40.5 -50.5t-72.5 -18.5z" />
    <glyph glyph-name="questiondown" unicode="&#xbf;" horiz-adv-x="404" 
d="M266 297q10 0 10 -10v-61q0 -35 -23 -75l-53 -92q-27 -45 -27 -96q0 -22 4 -33q8 -25 39 -25q29 0 38 26q4 11 4 58q0 12 11 10l100 -10q10 -1 10 -12q0 -53 -9 -80q-16 -48 -57 -75t-100 -27q-60 0 -100 27.5t-56 74.5q-9 29 -9 66q0 62 33 119l54 94q18 32 18 56v55
q0 10 10 10h103zM274 474v-116q0 -10 -10 -10h-102q-10 0 -10 10v116q0 10 10 10h102q10 0 10 -10z" />
    <glyph glyph-name="Agrave" unicode="&#xc0;" horiz-adv-x="452" 
d="M9 10l148 660q3 10 11 10h118q9 0 11 -10l146 -660q2 -10 -8 -10h-111q-9 0 -11 10l-22 123h-129l-23 -123q-2 -10 -11 -10h-111q-10 0 -8 10zM181 237h91l-43 236h-3zM261 755h-74q-9 0 -19 10l-104 114q-3 4 -1.5 7t6.5 3h100q9 0 16 -10l82 -114q3 -4 1 -7t-7 -3z" />
    <glyph glyph-name="Aacute" unicode="&#xc1;" horiz-adv-x="452" 
d="M9 10l148 660q3 10 11 10h118q9 0 11 -10l146 -660q2 -10 -8 -10h-111q-9 0 -11 10l-22 123h-129l-23 -123q-2 -10 -11 -10h-111q-10 0 -8 10zM181 237h91l-43 236h-3zM260 755h-74q-5 0 -6.5 3t1.5 7l82 114q7 10 16 10h100q5 0 6.5 -3t-1.5 -7l-104 -114
q-10 -10 -20 -10z" />
    <glyph glyph-name="Acircumflex" unicode="&#xc2;" horiz-adv-x="452" 
d="M9 10l148 660q3 10 11 10h118q9 0 11 -10l146 -660q2 -10 -8 -10h-111q-9 0 -11 10l-22 123h-129l-23 -123q-2 -10 -11 -10h-111q-10 0 -8 10zM181 237h91l-43 236h-3zM362 746h-70q-10 0 -19 10l-47 57h-2l-47 -57q-9 -10 -19 -10h-70q-4 0 -5.5 3t1.5 7l90 130
q7 10 17 10h67q10 0 17 -10l91 -130q3 -4 1.5 -7t-5.5 -3z" />
    <glyph glyph-name="Atilde" unicode="&#xc3;" horiz-adv-x="452" 
d="M9 10l148 660q3 10 11 10h118q9 0 11 -10l146 -660q2 -10 -8 -10h-111q-9 0 -11 10l-22 123h-129l-23 -123q-2 -10 -11 -10h-111q-10 0 -8 10zM181 237h91l-43 236h-3zM274 754q-26 0 -55 19q-26 17 -44 17q-26 0 -55 -29q-4 -4 -7.5 -2.5t-3.5 6.5v73q0 9 9 18
q27 27 58 27q26 0 55 -19q27 -16 44 -16q28 0 54 28q4 4 8 2.5t4 -6.5v-73q0 -9 -9 -18q-27 -27 -58 -27z" />
    <glyph glyph-name="Adieresis" unicode="&#xc4;" horiz-adv-x="452" 
d="M9 10l148 660q3 10 11 10h118q9 0 11 -10l146 -660q2 -10 -8 -10h-111q-9 0 -11 10l-22 123h-129l-23 -123q-2 -10 -11 -10h-111q-10 0 -8 10zM181 237h91l-43 236h-3zM342 760h-77q-10 0 -10 10v98q0 10 10 10h77q10 0 10 -10v-98q0 -10 -10 -10zM184 760h-77
q-10 0 -10 10v98q0 10 10 10h77q10 0 10 -10v-98q0 -10 -10 -10z" />
    <glyph glyph-name="Aring" unicode="&#xc5;" horiz-adv-x="452" 
d="M9 10l148 660q3 10 11 10h118q9 0 11 -10l146 -660q2 -10 -8 -10h-111q-9 0 -11 10l-22 123h-129l-23 -123q-2 -10 -11 -10h-111q-10 0 -8 10zM181 237h91l-43 236h-3zM225 715q-41 0 -68.5 27.5t-27.5 68.5t27.5 68t68.5 27t68.5 -27t27.5 -68t-27.5 -68.5t-68.5 -27.5z
M225 765q19 0 31 13t12 33t-12 32.5t-31 12.5t-31.5 -13t-12.5 -32q0 -20 12.5 -33t31.5 -13z" />
    <glyph glyph-name="AE" unicode="&#xc6;" horiz-adv-x="675" 
d="M638 0h-297q-10 0 -10 10v117q0 6 -6 6h-144l-42 -123q-3 -10 -13 -10h-110q-10 0 -7 10l235 660q3 10 11 10h383q10 0 10 -10v-98q0 -10 -10 -10h-170q-6 0 -6 -6v-148q0 -6 6 -6h147q10 0 10 -10v-98q0 -10 -10 -10h-147q-6 0 -6 -6v-154q0 -6 6 -6h170q10 0 10 -10
v-98q0 -10 -10 -10zM327 562l-111 -325h109q6 0 6 6v319h-4z" />
    <glyph glyph-name="Ccedilla" unicode="&#xc7;" horiz-adv-x="413" 
d="M101 -150l63 147q-86 19 -115 107q-13 42 -13 236t13 236q37 113 169 113q82 0 128.5 -43.5t50.5 -128.5q0 -11 -8 -12l-106 -18q-11 -2 -11 9q-3 75 -52 75q-35 0 -45 -31q-6 -22 -6 -200t6 -200q10 -31 45 -31q49 0 52 75q0 11 11 9l106 -18q8 -1 8 -12
q-8 -149 -138 -169l-51 -144q-4 -10 -16 -10h-84q-10 0 -7 10z" />
    <glyph glyph-name="Egrave" unicode="&#xc8;" horiz-adv-x="390" 
d="M245 755h-74q-9 0 -19 10l-104 114q-3 4 -1.5 7t6.5 3h100q9 0 16 -10l82 -114q3 -4 1 -7t-7 -3zM46 10v660q0 10 10 10h297q10 0 10 -10v-98q0 -10 -10 -10h-170q-6 0 -6 -6v-148q0 -6 6 -6h147q10 0 10 -10v-98q0 -10 -10 -10h-147q-6 0 -6 -6v-154q0 -6 6 -6h170
q10 0 10 -10v-98q0 -10 -10 -10h-297q-10 0 -10 10z" />
    <glyph glyph-name="Eacute" unicode="&#xc9;" horiz-adv-x="390" 
d="M233 755h-74q-5 0 -6.5 3t1.5 7l82 114q7 10 16 10h100q5 0 6.5 -3t-1.5 -7l-104 -114q-10 -10 -20 -10zM46 10v660q0 10 10 10h297q10 0 10 -10v-98q0 -10 -10 -10h-170q-6 0 -6 -6v-148q0 -6 6 -6h147q10 0 10 -10v-98q0 -10 -10 -10h-147q-6 0 -6 -6v-154q0 -6 6 -6
h170q10 0 10 -10v-98q0 -10 -10 -10h-297q-10 0 -10 10z" />
    <glyph glyph-name="Ecircumflex" unicode="&#xca;" horiz-adv-x="390" 
d="M46 10v660q0 10 10 10h297q10 0 10 -10v-98q0 -10 -10 -10h-170q-6 0 -6 -6v-148q0 -6 6 -6h147q10 0 10 -10v-98q0 -10 -10 -10h-147q-6 0 -6 -6v-154q0 -6 6 -6h170q10 0 10 -10v-98q0 -10 -10 -10h-297q-10 0 -10 10zM341 746h-70q-10 0 -19 10l-47 57h-2l-47 -57
q-9 -10 -19 -10h-70q-5 0 -6 3t2 7l90 130q7 10 17 10h67q10 0 17 -10l91 -130q3 -4 2 -7t-6 -3z" />
    <glyph glyph-name="Edieresis" unicode="&#xcb;" horiz-adv-x="390" 
d="M321 760h-77q-10 0 -10 10v98q0 10 10 10h77q10 0 10 -10v-98q0 -10 -10 -10zM163 760h-77q-10 0 -10 10v98q0 10 10 10h77q10 0 10 -10v-98q0 -10 -10 -10zM46 10v660q0 10 10 10h297q10 0 10 -10v-98q0 -10 -10 -10h-170q-6 0 -6 -6v-148q0 -6 6 -6h147q10 0 10 -10
v-98q0 -10 -10 -10h-147q-6 0 -6 -6v-154q0 -6 6 -6h170q10 0 10 -10v-98q0 -10 -10 -10h-297q-10 0 -10 10z" />
    <glyph glyph-name="Igrave" unicode="&#xcc;" horiz-adv-x="223" 
d="M46 10v660q0 10 10 10h111q10 0 10 -10v-660q0 -10 -10 -10h-111q-10 0 -10 10zM150 755h-74q-9 0 -19 10l-104 114q-3 4 -1.5 7t6.5 3h100q9 0 16 -10l82 -114q3 -4 1 -7t-7 -3z" />
    <glyph glyph-name="Iacute" unicode="&#xcd;" horiz-adv-x="223" 
d="M46 10v660q0 10 10 10h111q10 0 10 -10v-660q0 -10 -10 -10h-111q-10 0 -10 10zM142 755h-74q-5 0 -6.5 3t1.5 7l82 114q7 10 16 10h100q5 0 6.5 -3t-1.5 -7l-104 -114q-10 -10 -20 -10z" />
    <glyph glyph-name="Icircumflex" unicode="&#xce;" horiz-adv-x="223" 
d="M46 10v660q0 10 10 10h111q10 0 10 -10v-660q0 -10 -10 -10h-111q-10 0 -10 10zM249 746h-70q-10 0 -19 10l-47 57h-2l-47 -57q-9 -10 -19 -10h-70q-5 0 -6 3t2 7l90 130q7 10 17 10h67q10 0 17 -10l91 -130q3 -4 2 -7t-6 -3z" />
    <glyph glyph-name="Idieresis" unicode="&#xcf;" horiz-adv-x="223" 
d="M46 10v660q0 10 10 10h111q10 0 10 -10v-660q0 -10 -10 -10h-111q-10 0 -10 10zM229 760h-77q-10 0 -10 10v98q0 10 10 10h77q10 0 10 -10v-98q0 -10 -10 -10zM71 760h-77q-10 0 -10 10v98q0 10 10 10h77q10 0 10 -10v-98q0 -10 -10 -10z" />
    <glyph glyph-name="Eth" unicode="&#xd0;" horiz-adv-x="456" 
d="M228 0h-172q-10 0 -10 10v280q0 6 -6 6h-27q-10 0 -10 10v74q0 10 10 10h27q6 0 6 6v274q0 10 10 10h172q137 0 174 -113q18 -57 18 -227t-18 -227q-37 -113 -174 -113zM215 118q47 0 61 42q11 33 11 180t-11 180q-14 42 -61 42h-32q-6 0 -6 -6v-161q0 -6 6 -6h44
q10 0 10 -10v-73q0 -10 -10 -10h-44q-6 0 -6 -6v-166q0 -6 6 -6h32z" />
    <glyph glyph-name="Ntilde" unicode="&#xd1;" horiz-adv-x="474" 
d="M287 754q-26 0 -55 19q-26 17 -44 17q-26 0 -55 -29q-4 -4 -7.5 -2.5t-3.5 6.5v73q0 9 9 18q27 27 58 27q26 0 55 -19q27 -16 44 -16q28 0 54 28q4 4 8 2.5t4 -6.5v-73q0 -9 -9 -18q-27 -27 -58 -27zM46 10v660q0 10 10 10h125q11 0 14 -10l113 -427h5v427q0 10 10 10h95
q10 0 10 -10v-660q0 -10 -10 -10h-120q-11 0 -14 10l-118 427h-5v-427q0 -10 -10 -10h-95q-10 0 -10 10z" />
    <glyph glyph-name="Ograve" unicode="&#xd2;" horiz-adv-x="448" 
d="M267 755h-74q-9 0 -19 10l-104 114q-3 4 -1.5 7t6.5 3h100q9 0 16 -10l82 -114q3 -4 1 -7t-7 -3zM224 -9q-136 0 -174 115q-9 24 -11.5 65.5t-2.5 168.5t2.5 168.5t11.5 65.5q38 115 174 115t174 -115q9 -24 11.5 -65.5t2.5 -168.5t-2.5 -168.5t-11.5 -65.5
q-38 -115 -174 -115zM224 109q38 0 48 33q7 22 7 198t-7 198q-10 33 -48 33t-48 -33q-7 -22 -7 -198t7 -198q10 -33 48 -33z" />
    <glyph glyph-name="Oacute" unicode="&#xd3;" horiz-adv-x="448" 
d="M254 755h-74q-5 0 -6.5 3t1.5 7l82 114q7 10 16 10h100q5 0 6.5 -3t-1.5 -7l-104 -114q-10 -10 -20 -10zM224 -9q-136 0 -174 115q-9 24 -11.5 65.5t-2.5 168.5t2.5 168.5t11.5 65.5q38 115 174 115t174 -115q9 -24 11.5 -65.5t2.5 -168.5t-2.5 -168.5t-11.5 -65.5
q-38 -115 -174 -115zM224 109q38 0 48 33q7 22 7 198t-7 198q-10 33 -48 33t-48 -33q-7 -22 -7 -198t7 -198q10 -33 48 -33z" />
    <glyph glyph-name="Ocircumflex" unicode="&#xd4;" horiz-adv-x="448" 
d="M224 -9q-136 0 -174 115q-9 24 -11.5 65.5t-2.5 168.5t2.5 168.5t11.5 65.5q38 115 174 115t174 -115q9 -24 11.5 -65.5t2.5 -168.5t-2.5 -168.5t-11.5 -65.5q-38 -115 -174 -115zM224 109q38 0 48 33q7 22 7 198t-7 198q-10 33 -48 33t-48 -33q-7 -22 -7 -198t7 -198
q10 -33 48 -33zM361 746h-70q-10 0 -19 10l-47 57h-2l-47 -57q-9 -10 -19 -10h-70q-5 0 -6 3t2 7l90 130q7 10 17 10h67q10 0 17 -10l91 -130q3 -4 2 -7t-6 -3z" />
    <glyph glyph-name="Otilde" unicode="&#xd5;" horiz-adv-x="448" 
d="M272 754q-26 0 -55 19q-26 17 -44 17q-26 0 -55 -29q-4 -4 -7.5 -2.5t-3.5 6.5v73q0 9 9 18q27 27 58 27q26 0 55 -19q27 -16 44 -16q28 0 54 28q4 4 8 2.5t4 -6.5v-73q0 -9 -9 -18q-27 -27 -58 -27zM224 -9q-136 0 -174 115q-9 24 -11.5 65.5t-2.5 168.5t2.5 168.5
t11.5 65.5q38 115 174 115t174 -115q9 -24 11.5 -65.5t2.5 -168.5t-2.5 -168.5t-11.5 -65.5q-38 -115 -174 -115zM224 109q38 0 48 33q7 22 7 198t-7 198q-10 33 -48 33t-48 -33q-7 -22 -7 -198t7 -198q10 -33 48 -33z" />
    <glyph glyph-name="Odieresis" unicode="&#xd6;" horiz-adv-x="448" 
d="M341 760h-77q-10 0 -10 10v98q0 10 10 10h77q10 0 10 -10v-98q0 -10 -10 -10zM183 760h-77q-10 0 -10 10v98q0 10 10 10h77q10 0 10 -10v-98q0 -10 -10 -10zM224 -9q-136 0 -174 115q-9 24 -11.5 65.5t-2.5 168.5t2.5 168.5t11.5 65.5q38 115 174 115t174 -115
q9 -24 11.5 -65.5t2.5 -168.5t-2.5 -168.5t-11.5 -65.5q-38 -115 -174 -115zM224 109q38 0 48 33q7 22 7 198t-7 198q-10 33 -48 33t-48 -33q-7 -22 -7 -198t7 -198q10 -33 48 -33z" />
    <glyph glyph-name="multiply" unicode="&#xd7;" 
d="M363 176l-56 -56q-7 -7 -14 0l-81 82q-4 3 -8 0l-82 -82q-7 -7 -14 0l-56 56q-7 7 0 14l82 82q3 4 0 8l-82 82q-7 7 0 14l56 56q7 7 14 0l82 -82q4 -3 8 0l81 82q7 7 14 0l56 -56q9 -7 0 -14l-81 -82q-3 -4 0 -8l81 -82q9 -7 0 -14z" />
    <glyph glyph-name="Oslash" unicode="&#xd8;" horiz-adv-x="448" 
d="M224 -9q-74 0 -118 34l-21 -46q-5 -9 -15 -9h-41q-11 0 -6 10l43 90q-10 15 -16 36q-9 24 -11.5 65.5t-2.5 168.5t2.5 168.5t11.5 65.5q38 115 174 115q71 0 117 -34l22 46q5 9 14 9h42q11 0 6 -10l-44 -90q8 -13 17 -36q9 -24 11.5 -65.5t2.5 -168.5t-2.5 -168.5
t-11.5 -65.5q-38 -115 -174 -115zM168 340v-61l108 249q-2 19 -17 31.5t-35 12.5q-39 0 -50 -35q-6 -19 -6 -197zM224 108q18 0 31.5 9.5t18.5 23.5q6 19 6 199v56l-108 -248q3 -18 18 -29t34 -11z" />
    <glyph glyph-name="Ugrave" unicode="&#xd9;" horiz-adv-x="455" 
d="M271 755h-74q-9 0 -19 10l-104 114q-3 4 -1.5 7t6.5 3h100q9 0 16 -10l82 -114q3 -4 1 -7t-7 -3zM227 -9q-86 0 -134.5 49.5t-48.5 143.5v486q0 10 10 10h111q10 0 10 -10v-502q0 -27 13.5 -43t38.5 -16t39 16t14 43v502q0 10 10 10h111q10 0 10 -10v-486
q0 -94 -48.5 -143.5t-135.5 -49.5z" />
    <glyph glyph-name="Uacute" unicode="&#xda;" horiz-adv-x="455" 
d="M264 755h-74q-5 0 -6.5 3t1.5 7l82 114q7 10 16 10h100q5 0 6.5 -3t-1.5 -7l-104 -114q-10 -10 -20 -10zM227 -9q-86 0 -134.5 49.5t-48.5 143.5v486q0 10 10 10h111q10 0 10 -10v-502q0 -27 13.5 -43t38.5 -16t39 16t14 43v502q0 10 10 10h111q10 0 10 -10v-486
q0 -94 -48.5 -143.5t-135.5 -49.5z" />
    <glyph glyph-name="Ucircumflex" unicode="&#xdb;" horiz-adv-x="455" 
d="M227 -9q-86 0 -134.5 49.5t-48.5 143.5v486q0 10 10 10h111q10 0 10 -10v-502q0 -27 13.5 -43t38.5 -16t39 16t14 43v502q0 10 10 10h111q10 0 10 -10v-486q0 -94 -48.5 -143.5t-135.5 -49.5zM364 746h-70q-10 0 -19 10l-47 57h-2l-47 -57q-9 -10 -19 -10h-70
q-4 0 -5.5 3t1.5 7l90 130q7 10 17 10h67q10 0 17 -10l91 -130q3 -4 1.5 -7t-5.5 -3z" />
    <glyph glyph-name="Udieresis" unicode="&#xdc;" horiz-adv-x="455" 
d="M344 760h-77q-10 0 -10 10v98q0 10 10 10h77q10 0 10 -10v-98q0 -10 -10 -10zM186 760h-77q-10 0 -10 10v98q0 10 10 10h77q10 0 10 -10v-98q0 -10 -10 -10zM227 -9q-86 0 -134.5 49.5t-48.5 143.5v486q0 10 10 10h111q10 0 10 -10v-502q0 -27 13.5 -43t38.5 -16t39 16
t14 43v502q0 10 10 10h111q10 0 10 -10v-486q0 -94 -48.5 -143.5t-135.5 -49.5z" />
    <glyph glyph-name="Yacute" unicode="&#xdd;" horiz-adv-x="411" 
d="M261 0h-111q-10 0 -10 10v260l-132 400q-3 10 8 10h111q11 0 12 -10l67 -249h4l64 249q3 10 12 10h109q11 0 8 -10l-132 -400v-260q0 -10 -10 -10zM236 755h-74q-5 0 -6.5 3t1.5 7l82 114q7 10 16 10h100q5 0 6.5 -3t-1.5 -7l-104 -114q-10 -10 -20 -10z" />
    <glyph glyph-name="Thorn" unicode="&#xde;" horiz-adv-x="443" 
d="M167 0h-111q-10 0 -10 10v660q0 10 10 10h111q10 0 10 -10v-100q0 -6 6 -6h33q200 0 200 -214t-200 -214h-33q-6 0 -6 -6v-120q0 -10 -10 -10zM212 251q39 0 56 21.5t17 77.5t-17 77.5t-56 21.5h-29q-6 0 -6 -6v-186q0 -6 6 -6h29z" />
    <glyph glyph-name="germandbls" unicode="&#xdf;" horiz-adv-x="432" 
d="M243 -5h-15q-10 0 -10 10v91q0 10 10 10h6q24 0 32 20q4 11 4 95t-4 95q-8 20 -32 20h-6q-10 0 -10 10v90q0 10 10 10h4q23 0 29 20q4 12 4 50q0 63 -47 63q-49 0 -49 -62v-507q0 -10 -10 -10h-105q-10 0 -10 10v496q0 88 43 135.5t130 47.5q82 0 127.5 -44t45.5 -121
q0 -49 -11.5 -75.5t-40.5 -48.5v-2q36 -22 48 -60q9 -27 9 -117q0 -111 -11 -143q-14 -45 -48 -64t-93 -19z" />
    <glyph glyph-name="agrave" unicode="&#xe0;" horiz-adv-x="393" 
d="M344 0h-100q-10 0 -10 10v33h-1q-9 -24 -33 -38t-57 -14q-48 0 -81.5 34.5t-33.5 110.5q0 82 43 118.5t109 36.5h48q6 0 6 6v24q0 35 -13.5 50t-48.5 15q-41 0 -80 -27q-10 -7 -15 4l-32 76q-4 8 4 14q54 40 141 40q89 0 126.5 -40t37.5 -129v-314q0 -10 -10 -10zM185 88
q23 0 36 15.5t13 42.5v50q0 6 -6 6h-27q-58 0 -58 -59q0 -55 42 -55zM247 551h-75q-10 0 -18 10l-93 130q-3 4 -1.5 7t6.5 3h100q10 0 16 -10l71 -130q5 -10 -6 -10z" />
    <glyph glyph-name="aacute" unicode="&#xe1;" horiz-adv-x="393" 
d="M344 0h-100q-10 0 -10 10v33h-1q-9 -24 -33 -38t-57 -14q-48 0 -81.5 34.5t-33.5 110.5q0 82 43 118.5t109 36.5h48q6 0 6 6v24q0 35 -13.5 50t-48.5 15q-41 0 -80 -27q-10 -7 -15 4l-32 76q-4 8 4 14q54 40 141 40q89 0 126.5 -40t37.5 -129v-314q0 -10 -10 -10zM185 88
q23 0 36 15.5t13 42.5v50q0 6 -6 6h-27q-58 0 -58 -59q0 -55 42 -55zM232 551h-75q-11 0 -6 10l72 130q6 10 16 10h100q5 0 6.5 -3t-1.5 -7l-94 -130q-8 -10 -18 -10z" />
    <glyph glyph-name="acircumflex" unicode="&#xe2;" horiz-adv-x="393" 
d="M344 0h-100q-10 0 -10 10v33h-1q-9 -24 -33 -38t-57 -14q-48 0 -81.5 34.5t-33.5 110.5q0 82 43 118.5t109 36.5h48q6 0 6 6v24q0 35 -13.5 50t-48.5 15q-41 0 -80 -27q-10 -7 -15 4l-32 76q-4 8 4 14q54 40 141 40q89 0 126.5 -40t37.5 -129v-314q0 -10 -10 -10zM185 88
q23 0 36 15.5t13 42.5v50q0 6 -6 6h-27q-58 0 -58 -59q0 -55 42 -55zM335 550h-70q-10 0 -19 10l-47 58h-2l-47 -58q-9 -10 -19 -10h-70q-5 0 -6 3t2 7l90 131q7 10 17 10h67q10 0 17 -10l91 -131q3 -4 2 -7t-6 -3z" />
    <glyph glyph-name="atilde" unicode="&#xe3;" horiz-adv-x="393" 
d="M344 0h-100q-10 0 -10 10v33h-1q-9 -24 -33 -38t-57 -14q-48 0 -81.5 34.5t-33.5 110.5q0 82 43 118.5t109 36.5h48q6 0 6 6v24q0 35 -13.5 50t-48.5 15q-41 0 -80 -27q-10 -7 -15 4l-32 76q-4 8 4 14q54 40 141 40q89 0 126.5 -40t37.5 -129v-314q0 -10 -10 -10zM185 88
q23 0 36 15.5t13 42.5v50q0 6 -6 6h-27q-58 0 -58 -59q0 -55 42 -55zM246 558q-26 0 -55 19q-27 16 -44 16q-27 0 -55 -28q-4 -4 -7.5 -2.5t-3.5 6.5v73q0 9 9 18q27 27 58 27q26 0 55 -19q27 -17 44 -17q27 0 54 29q4 4 8 2.5t4 -6.5v-73q0 -9 -9 -18q-27 -27 -58 -27z" />
    <glyph glyph-name="adieresis" unicode="&#xe4;" horiz-adv-x="393" 
d="M344 0h-100q-10 0 -10 10v33h-1q-9 -24 -33 -38t-57 -14q-48 0 -81.5 34.5t-33.5 110.5q0 82 43 118.5t109 36.5h48q6 0 6 6v24q0 35 -13.5 50t-48.5 15q-41 0 -80 -27q-10 -7 -15 4l-32 76q-4 8 4 14q54 40 141 40q89 0 126.5 -40t37.5 -129v-314q0 -10 -10 -10zM185 88
q23 0 36 15.5t13 42.5v50q0 6 -6 6h-27q-58 0 -58 -59q0 -55 42 -55zM315 562h-77q-10 0 -10 10v98q0 10 10 10h77q10 0 10 -10v-98q0 -10 -10 -10zM157 562h-77q-10 0 -10 10v98q0 10 10 10h77q10 0 10 -10v-98q0 -10 -10 -10z" />
    <glyph glyph-name="aring" unicode="&#xe5;" horiz-adv-x="393" 
d="M344 0h-100q-10 0 -10 10v33h-1q-9 -24 -33 -38t-57 -14q-48 0 -81.5 34.5t-33.5 110.5q0 82 43 118.5t109 36.5h48q6 0 6 6v24q0 35 -13.5 50t-48.5 15q-41 0 -80 -27q-10 -7 -15 4l-32 76q-4 8 4 14q54 40 141 40q89 0 126.5 -40t37.5 -129v-314q0 -10 -10 -10zM185 88
q23 0 36 15.5t13 42.5v50q0 6 -6 6h-27q-58 0 -58 -59q0 -55 42 -55zM198 533q-41 0 -68.5 27.5t-27.5 68.5t27.5 68.5t68.5 27.5t68.5 -27.5t27.5 -68.5t-27.5 -68.5t-68.5 -27.5zM198 584q19 0 31 12.5t12 32.5t-12 32.5t-31 12.5t-31.5 -13t-12.5 -32t12.5 -32t31.5 -13z
" />
    <glyph glyph-name="ae" unicode="&#xe6;" horiz-adv-x="594" 
d="M397 -9q-86 0 -127 55h-1q-25 -31 -52 -43t-67 -12q-52 0 -87 35t-35 110q0 82 43 118.5t109 36.5h48q6 0 6 6v24q0 35 -13.5 50t-48.5 15q-41 0 -80 -27q-10 -7 -15 4l-32 76q-4 8 4 14q54 40 141 40q74 0 109 -28h2q35 28 97 28q122 0 155 -102q12 -39 12 -179
q0 -10 -10 -10h-193q-6 0 -6 -6q0 -54 5 -69q9 -28 39 -28q33 0 45 38q3 9 12 7l95 -19q9 -1 7 -12q-10 -57 -54 -89.5t-108 -32.5zM400 390q-29 0 -39 -26q-5 -17 -5 -67q0 -6 6 -6h76q6 0 6 6q0 50 -5 67q-10 26 -39 26zM185 88q23 0 36 15.5t13 42.5v50q0 6 -6 6h-27
q-58 0 -58 -59q0 -55 42 -55z" />
    <glyph glyph-name="ccedilla" unicode="&#xe7;" horiz-adv-x="372" 
d="M69 -150l64 150q-67 20 -90 92q-12 39 -12 150t12 150q33 101 152 101q69 0 112 -37t47 -101q0 -10 -8 -11l-96 -18q-10 -2 -12 9q-4 48 -41 48q-28 0 -37 -25q-4 -15 -4 -116t4 -116q9 -25 37 -25q37 0 41 48q2 11 12 9l96 -18q8 -1 8 -11q-4 -56 -38 -91.5t-90 -43.5
l-50 -144q-4 -10 -16 -10h-84q-10 0 -7 10z" />
    <glyph glyph-name="egrave" unicode="&#xe8;" horiz-adv-x="393" 
d="M197 -9q-119 0 -154 102q-12 35 -12 149t12 149q35 102 154 102q120 0 155 -102q12 -35 12 -179q0 -10 -10 -10h-193q-6 0 -6 -6q0 -56 5 -69q9 -28 39 -28q33 0 45 38q3 9 12 7l95 -19q9 -1 7 -12q-10 -57 -53.5 -89.5t-107.5 -32.5zM237 291q6 0 6 6q0 50 -5 67
q-10 26 -39 26t-39 -26q-5 -17 -5 -67q0 -6 6 -6h76zM240 551h-75q-11 0 -18 10l-93 130q-3 4 -1.5 7t6.5 3h100q10 0 16 -10l71 -130q5 -10 -6 -10z" />
    <glyph glyph-name="eacute" unicode="&#xe9;" horiz-adv-x="393" 
d="M228 551h-75q-11 0 -6 10l72 130q6 10 16 10h100q5 0 6.5 -3t-1.5 -7l-94 -130q-8 -10 -18 -10zM197 -9q-119 0 -154 102q-12 35 -12 149t12 149q35 102 154 102q120 0 155 -102q12 -35 12 -179q0 -10 -10 -10h-193q-6 0 -6 -6q0 -56 5 -69q9 -28 39 -28q33 0 45 38
q3 9 12 7l95 -19q9 -1 7 -12q-10 -57 -53.5 -89.5t-107.5 -32.5zM237 291q6 0 6 6q0 50 -5 67q-10 26 -39 26t-39 -26q-5 -17 -5 -67q0 -6 6 -6h76z" />
    <glyph glyph-name="ecircumflex" unicode="&#xea;" horiz-adv-x="393" 
d="M334 550h-70q-10 0 -19 10l-47 58h-2l-47 -58q-9 -10 -19 -10h-70q-4 0 -5.5 3t1.5 7l90 131q7 10 17 10h67q10 0 17 -10l91 -131q3 -4 1.5 -7t-5.5 -3zM197 -9q-119 0 -154 102q-12 35 -12 149t12 149q35 102 154 102q120 0 155 -102q12 -35 12 -179q0 -10 -10 -10h-193
q-6 0 -6 -6q0 -56 5 -69q9 -28 39 -28q33 0 45 38q3 9 12 7l95 -19q9 -1 7 -12q-10 -57 -53.5 -89.5t-107.5 -32.5zM237 291q6 0 6 6q0 50 -5 67q-10 26 -39 26t-39 -26q-5 -17 -5 -67q0 -6 6 -6h76z" />
    <glyph glyph-name="edieresis" unicode="&#xeb;" horiz-adv-x="393" 
d="M314 562h-77q-10 0 -10 10v98q0 10 10 10h77q10 0 10 -10v-98q0 -10 -10 -10zM156 562h-77q-10 0 -10 10v98q0 10 10 10h77q10 0 10 -10v-98q0 -10 -10 -10zM197 -9q-119 0 -154 102q-12 35 -12 149t12 149q35 102 154 102q120 0 155 -102q12 -35 12 -179q0 -10 -10 -10
h-193q-6 0 -6 -6q0 -56 5 -69q9 -28 39 -28q33 0 45 38q3 9 12 7l95 -19q9 -1 7 -12q-10 -57 -53.5 -89.5t-107.5 -32.5zM237 291q6 0 6 6q0 50 -5 67q-10 26 -39 26t-39 -26q-5 -17 -5 -67q0 -6 6 -6h76z" />
    <glyph glyph-name="igrave" unicode="&#xec;" horiz-adv-x="213" 
d="M159 0h-105q-10 0 -10 10v464q0 10 10 10h105q10 0 10 -10v-464q0 -10 -10 -10zM150 551h-75q-11 0 -18 10l-93 130q-3 4 -1.5 7t6.5 3h100q10 0 16 -10l71 -130q5 -10 -6 -10z" />
    <glyph glyph-name="iacute" unicode="&#xed;" horiz-adv-x="213" 
d="M143 551h-75q-11 0 -6 10l72 130q6 10 16 10h100q5 0 6.5 -3t-1.5 -7l-94 -130q-7 -10 -18 -10zM159 0h-105q-10 0 -10 10v464q0 10 10 10h105q10 0 10 -10v-464q0 -10 -10 -10z" />
    <glyph glyph-name="icircumflex" unicode="&#xee;" horiz-adv-x="213" 
d="M243 550h-70q-10 0 -19 10l-47 58h-2l-47 -58q-9 -10 -19 -10h-70q-5 0 -6 3t2 7l90 131q7 10 17 10h67q10 0 17 -10l91 -131q3 -4 2 -7t-6 -3zM159 0h-105q-10 0 -10 10v464q0 10 10 10h105q10 0 10 -10v-464q0 -10 -10 -10z" />
    <glyph glyph-name="idieresis" unicode="&#xef;" horiz-adv-x="213" 
d="M224 562h-77q-10 0 -10 10v98q0 10 10 10h77q10 0 10 -10v-98q0 -10 -10 -10zM66 562h-77q-10 0 -10 10v98q0 10 10 10h77q10 0 10 -10v-98q0 -10 -10 -10zM159 0h-105q-10 0 -10 10v464q0 10 10 10h105q10 0 10 -10v-464q0 -10 -10 -10z" />
    <glyph glyph-name="eth" unicode="&#xf0;" horiz-adv-x="401" 
d="M327 571l-50 -16l25 -48q40 -76 53.5 -132t13.5 -144q0 -99 -12 -134q-34 -106 -157 -106t-157 106q-12 35 -12 126q0 89 13 131q15 46 47 73t77 27q27 0 41 -10h1l-40 76l-68 -21q-8 -3 -11 6l-18 56q-3 9 6 12l54 17l-41 80q-5 10 7 10h104q8 0 14 -10l23 -45l63 20
q9 3 12 -6l19 -56q3 -9 -7 -12zM200 101q31 0 40 28q4 15 4 94t-4 94q-10 29 -40 29t-40 -29q-4 -15 -4 -94t4 -94q9 -28 40 -28z" />
    <glyph glyph-name="ntilde" unicode="&#xf1;" horiz-adv-x="419" 
d="M368 0h-105q-10 0 -10 10v315q0 57 -42 57t-42 -57v-315q0 -10 -10 -10h-105q-10 0 -10 10v464q0 10 10 10h104q10 0 10 -10v-37h1q29 56 95 56q58 0 86 -36t28 -113v-334q0 -10 -10 -10zM259 558q-26 0 -55 19q-27 16 -44 16q-27 0 -55 -28q-4 -4 -7.5 -2.5t-3.5 6.5v73
q0 9 9 18q27 27 58 27q26 0 55 -19q27 -17 44 -17q27 0 54 29q4 4 8 2.5t4 -6.5v-73q0 -9 -9 -18q-27 -27 -58 -27z" />
    <glyph glyph-name="ograve" unicode="&#xf2;" horiz-adv-x="400" 
d="M200 -9q-123 0 -157 106q-12 35 -12 145t12 145q34 106 157 106t157 -106q12 -35 12 -145t-12 -145q-34 -106 -157 -106zM200 101q31 0 40 28q4 15 4 113t-4 113q-9 28 -40 28t-40 -28q-4 -15 -4 -113t4 -113q9 -28 40 -28zM242 551h-75q-11 0 -18 10l-93 130
q-3 4 -1.5 7t6.5 3h100q10 0 16 -10l71 -130q5 -10 -6 -10z" />
    <glyph glyph-name="oacute" unicode="&#xf3;" horiz-adv-x="400" 
d="M224 551h-75q-11 0 -6 10l72 130q6 10 16 10h100q5 0 6.5 -3t-1.5 -7l-94 -130q-8 -10 -18 -10zM200 -9q-123 0 -157 106q-12 35 -12 145t12 145q34 106 157 106t157 -106q12 -35 12 -145t-12 -145q-34 -106 -157 -106zM200 101q31 0 40 28q4 15 4 113t-4 113
q-9 28 -40 28t-40 -28q-4 -15 -4 -113t4 -113q9 -28 40 -28z" />
    <glyph glyph-name="ocircumflex" unicode="&#xf4;" horiz-adv-x="400" 
d="M338 550h-70q-10 0 -19 10l-47 58h-2l-47 -58q-9 -10 -19 -10h-70q-4 0 -5.5 3t1.5 7l90 131q7 10 17 10h67q10 0 17 -10l91 -131q3 -4 1.5 -7t-5.5 -3zM200 -9q-123 0 -157 106q-12 35 -12 145t12 145q34 106 157 106t157 -106q12 -35 12 -145t-12 -145
q-34 -106 -157 -106zM200 101q31 0 40 28q4 15 4 113t-4 113q-9 28 -40 28t-40 -28q-4 -15 -4 -113t4 -113q9 -28 40 -28z" />
    <glyph glyph-name="otilde" unicode="&#xf5;" horiz-adv-x="400" 
d="M200 -9q-123 0 -157 106q-12 35 -12 145t12 145q34 106 157 106t157 -106q12 -35 12 -145t-12 -145q-34 -106 -157 -106zM200 101q31 0 40 28q4 15 4 113t-4 113q-9 28 -40 28t-40 -28q-4 -15 -4 -113t4 -113q9 -28 40 -28zM250 558q-26 0 -55 19q-27 16 -44 16
q-27 0 -55 -28q-4 -4 -7.5 -2.5t-3.5 6.5v73q0 9 9 18q27 27 58 27q26 0 55 -19q27 -17 44 -17q27 0 54 29q4 4 8 2.5t4 -6.5v-73q0 -9 -9 -18q-27 -27 -58 -27z" />
    <glyph glyph-name="odieresis" unicode="&#xf6;" horiz-adv-x="400" 
d="M318 562h-77q-10 0 -10 10v98q0 10 10 10h77q10 0 10 -10v-98q0 -10 -10 -10zM160 562h-77q-10 0 -10 10v98q0 10 10 10h77q10 0 10 -10v-98q0 -10 -10 -10zM200 -9q-123 0 -157 106q-12 35 -12 145t12 145q34 106 157 106t157 -106q12 -35 12 -145t-12 -145
q-34 -106 -157 -106zM200 101q31 0 40 28q4 15 4 113t-4 113q-9 28 -40 28t-40 -28q-4 -15 -4 -113t4 -113q9 -28 40 -28z" />
    <glyph glyph-name="divide" unicode="&#xf7;" 
d="M208 383q-29 0 -48.5 20t-19.5 49t19.5 49t48.5 20q30 0 49.5 -20t19.5 -49t-19.5 -49t-49.5 -20zM373 224h-330q-10 0 -10 10v84q0 10 10 10h330q10 0 10 -10v-84q0 -10 -10 -10zM208 31q-29 0 -48.5 20t-19.5 49t19.5 49t48.5 20q30 0 49.5 -20t19.5 -49t-19.5 -49
t-49.5 -20z" />
    <glyph glyph-name="oslash" unicode="&#xf8;" horiz-adv-x="400" 
d="M70 -30h-35q-11 0 -6 10l38 69q-15 19 -24 48q-12 35 -12 145t12 145q34 106 157 106q55 0 96 -25l20 36q5 10 14 10h35q11 0 6 -10l-38 -70q15 -19 24 -47q12 -35 12 -145t-12 -145q-34 -106 -157 -106q-58 0 -97 24l-19 -35q-5 -10 -14 -10zM155 242v-36l81 159
q-11 19 -36 19q-31 0 -40 -28q-5 -14 -5 -114zM200 100q32 0 40 29q5 13 5 113v34l-81 -157q11 -19 36 -19z" />
    <glyph glyph-name="ugrave" unicode="&#xf9;" horiz-adv-x="417" 
d="M363 0h-105q-10 0 -10 10v37h-1q-29 -56 -94 -56q-57 0 -84.5 36t-27.5 113v334q0 10 10 10h105q10 0 10 -10v-314q0 -58 41 -58t41 58v314q0 10 10 10h105q10 0 10 -10v-464q0 -10 -10 -10zM253 551h-75q-10 0 -18 10l-93 130q-3 4 -1.5 7t6.5 3h100q10 0 16 -10
l71 -130q5 -10 -6 -10z" />
    <glyph glyph-name="uacute" unicode="&#xfa;" horiz-adv-x="417" 
d="M236 551h-75q-11 0 -6 10l72 130q6 10 16 10h100q5 0 6.5 -3t-1.5 -7l-94 -130q-8 -10 -18 -10zM363 0h-105q-10 0 -10 10v37h-1q-29 -56 -94 -56q-57 0 -84.5 36t-27.5 113v334q0 10 10 10h105q10 0 10 -10v-314q0 -58 41 -58t41 58v314q0 10 10 10h105q10 0 10 -10
v-464q0 -10 -10 -10z" />
    <glyph glyph-name="ucircumflex" unicode="&#xfb;" horiz-adv-x="417" 
d="M347 550h-70q-10 0 -19 10l-47 58h-2l-47 -58q-9 -10 -19 -10h-70q-5 0 -6 3t2 7l90 131q7 10 17 10h67q10 0 17 -10l91 -131q3 -4 2 -7t-6 -3zM363 0h-105q-10 0 -10 10v37h-1q-29 -56 -94 -56q-57 0 -84.5 36t-27.5 113v334q0 10 10 10h105q10 0 10 -10v-314
q0 -58 41 -58t41 58v314q0 10 10 10h105q10 0 10 -10v-464q0 -10 -10 -10z" />
    <glyph glyph-name="udieresis" unicode="&#xfc;" horiz-adv-x="417" 
d="M327 562h-77q-10 0 -10 10v98q0 10 10 10h77q10 0 10 -10v-98q0 -10 -10 -10zM169 562h-77q-10 0 -10 10v98q0 10 10 10h77q10 0 10 -10v-98q0 -10 -10 -10zM363 0h-105q-10 0 -10 10v37h-1q-29 -56 -94 -56q-57 0 -84.5 36t-27.5 113v334q0 10 10 10h105q10 0 10 -10
v-314q0 -58 41 -58t41 58v314q0 10 10 10h105q10 0 10 -10v-464q0 -10 -10 -10z" />
    <glyph glyph-name="yacute" unicode="&#xfd;" horiz-adv-x="387" 
d="M76 -180h-14q-10 0 -10 10v92q0 10 10 10l14 1q24 1 36 11.5t19 37.5l8 35l-124 457q-3 10 7 10h105q9 0 11 -10l56 -276h1l57 276q2 10 12 10h100q10 0 7 -10l-128 -494q-25 -95 -60 -127.5t-107 -32.5zM233 551h-75q-11 0 -6 10l72 130q6 10 16 10h100q5 0 6.5 -3
t-1.5 -7l-94 -130q-7 -10 -18 -10z" />
    <glyph glyph-name="thorn" unicode="&#xfe;" 
d="M159 -180h-105q-10 0 -10 10v840q0 10 10 10h105q10 0 10 -10v-235h1q24 58 92 58q81 0 107 -78q13 -42 13 -173t-13 -173q-26 -78 -107 -78q-68 0 -92 58h-1v-219q0 -10 -10 -10zM213 101q31 0 39 27q5 15 5 114t-5 114q-8 27 -39 27t-39 -27q-5 -15 -5 -114t5 -114
q8 -27 39 -27z" />
    <glyph glyph-name="ydieresis" unicode="&#xff;" horiz-adv-x="387" 
d="M76 -180h-14q-10 0 -10 10v92q0 10 10 10l14 1q24 1 36 11.5t19 37.5l8 35l-124 457q-3 10 7 10h105q9 0 11 -10l56 -276h1l57 276q2 10 12 10h100q10 0 7 -10l-128 -494q-25 -95 -60 -127.5t-107 -32.5zM311 562h-77q-10 0 -10 10v98q0 10 10 10h77q10 0 10 -10v-98
q0 -10 -10 -10zM153 562h-77q-10 0 -10 10v98q0 10 10 10h77q10 0 10 -10v-98q0 -10 -10 -10z" />
    <glyph glyph-name="Amacron" unicode="&#x100;" horiz-adv-x="452" 
d="M9 10l148 660q3 10 11 10h118q9 0 11 -10l146 -660q2 -10 -8 -10h-111q-9 0 -11 10l-22 123h-129l-23 -123q-2 -10 -11 -10h-111q-10 0 -8 10zM181 237h91l-43 236h-3zM336 771h-223q-10 0 -10 10v74q0 10 10 10h223q10 0 10 -10v-74q0 -10 -10 -10z" />
    <glyph glyph-name="amacron" unicode="&#x101;" horiz-adv-x="393" 
d="M344 0h-100q-10 0 -10 10v33h-1q-9 -24 -33 -38t-57 -14q-48 0 -81.5 34.5t-33.5 110.5q0 82 43 118.5t109 36.5h48q6 0 6 6v24q0 35 -13.5 50t-48.5 15q-41 0 -80 -27q-10 -7 -15 4l-32 76q-4 8 4 14q54 40 141 40q89 0 126.5 -40t37.5 -129v-314q0 -10 -10 -10zM185 88
q23 0 36 15.5t13 42.5v50q0 6 -6 6h-27q-58 0 -58 -59q0 -55 42 -55zM309 576h-223q-10 0 -10 10v74q0 10 10 10h223q10 0 10 -10v-74q0 -10 -10 -10z" />
    <glyph glyph-name="Abreve" unicode="&#x102;" horiz-adv-x="452" 
d="M9 10l148 660q3 10 11 10h118q9 0 11 -10l146 -660q2 -10 -8 -10h-111q-9 0 -11 10l-22 123h-129l-23 -123q-2 -10 -11 -10h-111q-10 0 -8 10zM181 237h91l-43 236h-3zM225 736q-61 0 -95.5 36.5t-37.5 92.5q0 10 11 10h53q9 0 12 -10q17 -46 57 -46t57 46q3 10 11 10h53
q11 0 11 -10q-2 -56 -36.5 -92.5t-95.5 -36.5z" />
    <glyph glyph-name="abreve" unicode="&#x103;" horiz-adv-x="393" 
d="M344 0h-100q-10 0 -10 10v33h-1q-9 -24 -33 -38t-57 -14q-48 0 -81.5 34.5t-33.5 110.5q0 82 43 118.5t109 36.5h48q6 0 6 6v24q0 35 -13.5 50t-48.5 15q-41 0 -80 -27q-10 -7 -15 4l-32 76q-4 8 4 14q54 40 141 40q89 0 126.5 -40t37.5 -129v-314q0 -10 -10 -10zM185 88
q23 0 36 15.5t13 42.5v50q0 6 -6 6h-27q-58 0 -58 -59q0 -55 42 -55zM198 549q-61 0 -95.5 36t-37.5 92q0 10 11 10h53q9 0 12 -10q17 -45 57 -45t57 45q3 10 11 10h53q11 0 11 -10q-2 -56 -36.5 -92t-95.5 -36z" />
    <glyph glyph-name="Aogonek" unicode="&#x104;" horiz-adv-x="452" 
d="M368 -191q-44 0 -69.5 23t-25.5 64q0 55 54 104h-3q-9 0 -11 10l-23 123h-128l-23 -123q-2 -10 -11 -10h-111q-10 0 -8 10l148 660q3 10 11 10h118q9 0 11 -10l146 -660q1 -7 -5 -10q-33 -18 -51 -40.5t-18 -41.5q0 -23 18 -23q10 0 17 4q9 6 13 -4l23 -55q3 -8 -5 -13
q-27 -18 -67 -18zM272 237l-43 236h-3l-45 -236h91z" />
    <glyph glyph-name="aogonek" unicode="&#x105;" horiz-adv-x="393" 
d="M278 -191q-44 0 -70 23t-26 64q0 51 56 104q-4 2 -4 10v33h-1q-9 -24 -33 -38t-57 -14q-48 0 -81.5 34.5t-33.5 110.5q0 82 43 118.5t109 36.5h48q6 0 6 6v24q0 35 -13.5 50t-48.5 15q-41 0 -80 -27q-10 -7 -15 4l-32 76q-4 8 4 14q54 40 141 40q89 0 126.5 -40
t37.5 -129v-314q0 -7 -7 -11q-69 -40 -69 -81q0 -23 19 -23q9 0 16 4q9 5 13 -4l23 -55q3 -8 -5 -13q-27 -18 -66 -18zM185 88q23 0 36 15.5t13 42.5v50q0 6 -6 6h-27q-58 0 -58 -59q0 -55 42 -55z" />
    <glyph glyph-name="Cacute" unicode="&#x106;" horiz-adv-x="413" 
d="M49 104q-13 42 -13 236t13 236q37 113 169 113q82 0 128.5 -43.5t50.5 -128.5q0 -11 -9 -12l-105 -18q-11 -2 -11 9q-3 75 -52 75q-35 0 -45 -31q-6 -22 -6 -200t6 -200q10 -31 45 -31q49 0 52 75q0 11 11 9l105 -18q9 -1 9 -12q-4 -85 -50.5 -128.5t-128.5 -43.5
q-132 0 -169 113zM237 755h-74q-5 0 -6.5 3t1.5 7l82 114q7 10 16 10h100q5 0 6.5 -3t-1.5 -7l-104 -114q-10 -10 -20 -10z" />
    <glyph glyph-name="cacute" unicode="&#x107;" horiz-adv-x="372" 
d="M221 551h-75q-11 0 -6 10l72 130q6 10 16 10h100q5 0 6.5 -3t-1.5 -7l-94 -130q-7 -10 -18 -10zM195 -9q-120 0 -152 101q-12 39 -12 150t12 150q32 101 152 101q69 0 112 -37t47 -101q0 -10 -8 -11l-96 -18q-10 -2 -12 9q-4 48 -41 48q-28 0 -37 -25q-4 -15 -4 -116
t4 -116q9 -25 37 -25q37 0 41 48q2 11 12 9l96 -18q8 -1 8 -11q-4 -64 -47.5 -101t-111.5 -37z" />
    <glyph glyph-name="Ccircumflex" unicode="&#x108;" horiz-adv-x="413" 
d="M49 104q-13 42 -13 236t13 236q37 113 169 113q82 0 128.5 -43.5t50.5 -128.5q0 -11 -9 -12l-105 -18q-11 -2 -11 9q-3 75 -52 75q-35 0 -45 -31q-6 -22 -6 -200t6 -200q10 -31 45 -31q49 0 52 75q0 11 11 9l105 -18q9 -1 9 -12q-4 -85 -50.5 -128.5t-128.5 -43.5
q-132 0 -169 113zM354 746h-70q-10 0 -19 10l-47 57h-2l-47 -57q-9 -10 -19 -10h-70q-4 0 -5.5 3t1.5 7l90 130q7 10 17 10h67q10 0 17 -10l91 -130q3 -4 1.5 -7t-5.5 -3z" />
    <glyph glyph-name="ccircumflex" unicode="&#x109;" horiz-adv-x="372" 
d="M331 550h-70q-10 0 -19 10l-47 58h-2l-47 -58q-9 -10 -19 -10h-70q-5 0 -6 3t2 7l90 131q7 10 17 10h67q10 0 17 -10l91 -131q3 -4 2 -7t-6 -3zM195 -9q-120 0 -152 101q-12 39 -12 150t12 150q32 101 152 101q69 0 112 -37t47 -101q0 -10 -8 -11l-96 -18q-10 -2 -12 9
q-4 48 -41 48q-28 0 -37 -25q-4 -15 -4 -116t4 -116q9 -25 37 -25q37 0 41 48q2 11 12 9l96 -18q8 -1 8 -11q-4 -64 -47.5 -101t-111.5 -37z" />
    <glyph glyph-name="Cdotaccent" unicode="&#x10a;" horiz-adv-x="413" 
d="M260 760h-105q-10 0 -10 10v98q0 10 10 10h105q10 0 10 -10v-98q0 -10 -10 -10zM49 104q-13 42 -13 236t13 236q37 113 169 113q82 0 128.5 -43.5t50.5 -128.5q0 -11 -9 -12l-105 -18q-11 -2 -11 9q-3 75 -52 75q-35 0 -45 -31q-6 -22 -6 -200t6 -200q10 -31 45 -31
q49 0 52 75q0 11 11 9l105 -18q9 -1 9 -12q-4 -85 -50.5 -128.5t-128.5 -43.5q-132 0 -169 113z" />
    <glyph glyph-name="cdotaccent" unicode="&#x10b;" horiz-adv-x="372" 
d="M195 -9q-120 0 -152 101q-12 39 -12 150t12 150q32 101 152 101q69 0 112 -37t47 -101q0 -10 -8 -11l-96 -18q-10 -2 -12 9q-4 48 -41 48q-28 0 -37 -25q-4 -15 -4 -116t4 -116q9 -25 37 -25q37 0 41 48q2 11 12 9l96 -18q8 -1 8 -11q-4 -64 -47.5 -101t-111.5 -37z
M240 562h-105q-10 0 -10 10v98q0 10 10 10h105q10 0 10 -10v-98q0 -10 -10 -10z" />
    <glyph glyph-name="Ccaron" unicode="&#x10c;" horiz-adv-x="413" 
d="M49 104q-13 42 -13 236t13 236q37 113 169 113q82 0 128.5 -43.5t50.5 -128.5q0 -11 -9 -12l-105 -18q-11 -2 -11 9q-3 75 -52 75q-35 0 -45 -31q-6 -22 -6 -200t6 -200q10 -31 45 -31q49 0 52 75q0 11 11 9l105 -18q9 -1 9 -12q-4 -85 -50.5 -128.5t-128.5 -43.5
q-132 0 -169 113zM247 741h-67q-10 0 -17 10l-90 130q-3 4 -2 7t6 3h70q10 0 19 -10l47 -57h2l47 57q9 10 19 10h70q5 0 6 -3t-2 -7l-91 -130q-7 -10 -17 -10z" />
    <glyph glyph-name="ccaron" unicode="&#x10d;" horiz-adv-x="372" 
d="M227 549h-67q-10 0 -17 10l-90 130q-3 4 -2 7t6 3h70q10 0 19 -10l47 -57h2l47 57q9 10 19 10h70q5 0 6 -3t-2 -7l-91 -130q-7 -10 -17 -10zM195 -9q-120 0 -152 101q-12 39 -12 150t12 150q32 101 152 101q69 0 112 -37t47 -101q0 -10 -8 -11l-96 -18q-10 -2 -12 9
q-4 48 -41 48q-28 0 -37 -25q-4 -15 -4 -116t4 -116q9 -25 37 -25q37 0 41 48q2 11 12 9l96 -18q8 -1 8 -11q-4 -64 -47.5 -101t-111.5 -37z" />
    <glyph glyph-name="Dcaron" unicode="&#x10e;" horiz-adv-x="456" 
d="M243 741h-67q-10 0 -17 10l-90 130q-3 4 -2 7t6 3h70q10 0 19 -10l47 -57h2l47 57q9 10 19 10h70q5 0 6 -3t-2 -7l-91 -130q-7 -10 -17 -10zM46 10v660q0 10 10 10h172q137 0 174 -113q18 -57 18 -227t-18 -227q-37 -113 -174 -113h-172q-10 0 -10 10zM177 124q0 -6 6 -6
h32q47 0 61 42q11 29 11 180t-11 180q-14 42 -61 42h-32q-6 0 -6 -6v-432z" />
    <glyph glyph-name="dcaron" unicode="&#x10f;" 
d="M411 494q-9 0 -9 10v166q0 10 10 10h81q10 0 10 -10v-69q0 -13 -9 -23l-70 -77q-6 -7 -13 -7zM362 0h-104q-10 0 -10 10v39h-1q-25 -58 -93 -58q-81 0 -107 78q-13 42 -13 173t13 173q26 78 107 78q68 0 92 -58h1v235q0 10 10 10h105q10 0 10 -10v-660q0 -10 -10 -10z
M203 101q31 0 39 27q5 15 5 114t-5 114q-8 27 -39 27t-39 -27q-5 -15 -5 -114t5 -114q8 -27 39 -27z" />
    <glyph glyph-name="Dcroat" unicode="&#x110;" horiz-adv-x="456" 
d="M228 0h-172q-10 0 -10 10v280q0 6 -6 6h-27q-10 0 -10 10v74q0 10 10 10h27q6 0 6 6v274q0 10 10 10h172q137 0 174 -113q18 -57 18 -227t-18 -227q-37 -113 -174 -113zM215 118q47 0 61 42q11 33 11 180t-11 180q-14 42 -61 42h-32q-6 0 -6 -6v-161q0 -6 6 -6h44
q10 0 10 -10v-73q0 -10 -10 -10h-44q-6 0 -6 -6v-166q0 -6 6 -6h32z" />
    <glyph glyph-name="dcroat" unicode="&#x111;" 
d="M372 534v-524q0 -10 -10 -10h-104q-10 0 -10 10v39h-1q-25 -58 -93 -58q-81 0 -107 78q-13 42 -13 173t13 173q26 78 107 78q68 0 92 -58h1v99q0 6 -6 6h-80q-10 0 -10 10v64q0 10 10 10h80q6 0 6 6v40q0 10 10 10h105q10 0 10 -10v-40q0 -6 6 -6h20q10 0 10 -10v-64
q0 -10 -10 -10h-20q-6 0 -6 -6zM203 101q31 0 39 27q5 15 5 114t-5 114q-8 27 -39 27t-39 -27q-5 -15 -5 -114t5 -114q8 -27 39 -27z" />
    <glyph glyph-name="Emacron" unicode="&#x112;" horiz-adv-x="390" 
d="M315 771h-223q-10 0 -10 10v74q0 10 10 10h223q10 0 10 -10v-74q0 -10 -10 -10zM46 10v660q0 10 10 10h297q10 0 10 -10v-98q0 -10 -10 -10h-170q-6 0 -6 -6v-148q0 -6 6 -6h147q10 0 10 -10v-98q0 -10 -10 -10h-147q-6 0 -6 -6v-154q0 -6 6 -6h170q10 0 10 -10v-98
q0 -10 -10 -10h-297q-10 0 -10 10z" />
    <glyph glyph-name="emacron" unicode="&#x113;" horiz-adv-x="393" 
d="M197 -9q-119 0 -154 102q-12 35 -12 149t12 149q35 102 154 102q120 0 155 -102q12 -35 12 -179q0 -10 -10 -10h-193q-6 0 -6 -6q0 -56 5 -69q9 -28 39 -28q33 0 45 38q3 9 12 7l95 -19q9 -1 7 -12q-10 -57 -53.5 -89.5t-107.5 -32.5zM237 291q6 0 6 6q0 50 -5 67
q-10 26 -39 26t-39 -26q-5 -17 -5 -67q0 -6 6 -6h76zM308 576h-223q-10 0 -10 10v74q0 10 10 10h223q10 0 10 -10v-74q0 -10 -10 -10z" />
    <glyph glyph-name="Ebreve" unicode="&#x114;" horiz-adv-x="390" 
d="M204 736q-61 0 -95.5 36.5t-37.5 92.5q0 10 11 10h53q9 0 12 -10q17 -46 57 -46t57 46q3 10 11 10h53q11 0 11 -10q-2 -56 -36.5 -92.5t-95.5 -36.5zM46 10v660q0 10 10 10h297q10 0 10 -10v-98q0 -10 -10 -10h-170q-6 0 -6 -6v-148q0 -6 6 -6h147q10 0 10 -10v-98
q0 -10 -10 -10h-147q-6 0 -6 -6v-154q0 -6 6 -6h170q10 0 10 -10v-98q0 -10 -10 -10h-297q-10 0 -10 10z" />
    <glyph glyph-name="ebreve" unicode="&#x115;" horiz-adv-x="393" 
d="M197 -9q-119 0 -154 102q-12 35 -12 149t12 149q35 102 154 102q120 0 155 -102q12 -35 12 -179q0 -10 -10 -10h-193q-6 0 -6 -6q0 -56 5 -69q9 -28 39 -28q33 0 45 38q3 9 12 7l95 -19q9 -1 7 -12q-10 -57 -53.5 -89.5t-107.5 -32.5zM237 291q6 0 6 6q0 50 -5 67
q-10 26 -39 26t-39 -26q-5 -17 -5 -67q0 -6 6 -6h76zM197 549q-61 0 -95.5 36t-37.5 92q0 10 11 10h53q9 0 12 -10q17 -45 57 -45t57 45q3 10 11 10h53q11 0 11 -10q-2 -56 -36.5 -92t-95.5 -36z" />
    <glyph glyph-name="Edotaccent" unicode="&#x116;" horiz-adv-x="390" 
d="M256 760h-105q-10 0 -10 10v98q0 10 10 10h105q10 0 10 -10v-98q0 -10 -10 -10zM46 10v660q0 10 10 10h297q10 0 10 -10v-98q0 -10 -10 -10h-170q-6 0 -6 -6v-148q0 -6 6 -6h147q10 0 10 -10v-98q0 -10 -10 -10h-147q-6 0 -6 -6v-154q0 -6 6 -6h170q10 0 10 -10v-98
q0 -10 -10 -10h-297q-10 0 -10 10z" />
    <glyph glyph-name="edotaccent" unicode="&#x117;" horiz-adv-x="393" 
d="M197 -9q-119 0 -154 102q-12 35 -12 149t12 149q35 102 154 102q120 0 155 -102q12 -35 12 -179q0 -10 -10 -10h-193q-6 0 -6 -6q0 -56 5 -69q9 -28 39 -28q33 0 45 38q3 9 12 7l95 -19q9 -1 7 -12q-10 -57 -53.5 -89.5t-107.5 -32.5zM237 291q6 0 6 6q0 50 -5 67
q-10 26 -39 26t-39 -26q-5 -17 -5 -67q0 -6 6 -6h76zM250 562h-105q-10 0 -10 10v98q0 10 10 10h105q10 0 10 -10v-98q0 -10 -10 -10z" />
    <glyph glyph-name="Eogonek" unicode="&#x118;" horiz-adv-x="390" 
d="M271 -191q-44 0 -70 23t-26 64q0 53 53 104h-172q-10 0 -10 10v660q0 10 10 10h297q10 0 10 -10v-98q0 -10 -10 -10h-170q-6 0 -6 -6v-148q0 -6 6 -6h147q10 0 10 -10v-98q0 -10 -10 -10h-147q-6 0 -6 -6v-154q0 -6 6 -6h170q10 0 10 -10v-98q0 -10 -10 -10h-14
q-31 -19 -49.5 -41t-18.5 -41q0 -23 19 -23q10 0 17 4q8 5 12 -4l23 -55q3 -8 -5 -13q-27 -18 -66 -18z" />
    <glyph glyph-name="eogonek" unicode="&#x119;" horiz-adv-x="393" 
d="M354 202h-193q-6 0 -6 -6q0 -56 5 -69q9 -28 39 -28q33 0 45 38q3 9 12 7l95 -19q9 -1 7 -12q-8 -42 -30 -66q-64 -95 -64 -129q0 -23 18 -23q10 0 17 4q9 6 13 -4l23 -55q3 -8 -5 -13q-27 -18 -67 -18q-44 0 -69.5 23t-25.5 64q0 48 36 95h-9q-119 0 -152 102
q-12 35 -12 149t12 149q35 102 154 102q120 0 155 -102q12 -35 12 -179q0 -10 -10 -10zM237 291q6 0 6 6q0 50 -5 67q-10 26 -39 26t-39 -26q-5 -17 -5 -67q0 -6 6 -6h76z" />
    <glyph glyph-name="Ecaron" unicode="&#x11a;" horiz-adv-x="390" 
d="M237 741h-67q-10 0 -17 10l-90 130q-3 4 -2 7t6 3h70q10 0 19 -10l47 -57h2l47 57q9 10 19 10h70q5 0 6 -3t-2 -7l-91 -130q-7 -10 -17 -10zM46 10v660q0 10 10 10h297q10 0 10 -10v-98q0 -10 -10 -10h-170q-6 0 -6 -6v-148q0 -6 6 -6h147q10 0 10 -10v-98q0 -10 -10 -10
h-147q-6 0 -6 -6v-154q0 -6 6 -6h170q10 0 10 -10v-98q0 -10 -10 -10h-297q-10 0 -10 10z" />
    <glyph glyph-name="ecaron" unicode="&#x11b;" horiz-adv-x="393" 
d="M230 549h-67q-10 0 -17 10l-90 130q-3 4 -1.5 7t5.5 3h70q10 0 19 -10l47 -57h2l47 57q9 10 19 10h70q4 0 5.5 -3t-1.5 -7l-91 -130q-7 -10 -17 -10zM197 -9q-119 0 -154 102q-12 35 -12 149t12 149q35 102 154 102q120 0 155 -102q12 -35 12 -179q0 -10 -10 -10h-193
q-6 0 -6 -6q0 -56 5 -69q9 -28 39 -28q33 0 45 38q3 9 12 7l95 -19q9 -1 7 -12q-10 -57 -53.5 -89.5t-107.5 -32.5zM237 291q6 0 6 6q0 50 -5 67q-10 26 -39 26t-39 -26q-5 -17 -5 -67q0 -6 6 -6h76z" />
    <glyph glyph-name="Gcircumflex" unicode="&#x11c;" horiz-adv-x="445" 
d="M49 105q-8 25 -10.5 67t-2.5 168t2.5 168t10.5 67q39 114 175 114q83 0 129.5 -43.5t53.5 -125.5q2 -10 -8 -12l-106 -18q-9 -2 -11 9q-4 72 -57 72q-40 0 -50 -32q-6 -19 -6 -199t6 -198q10 -33 52 -33t52 33q6 21 6 124q0 6 -6 6h-43q-10 0 -10 10v88q0 10 10 10h165
q10 0 10 -10v-30q0 -127 -2.5 -168.5t-11.5 -65.5q-38 -115 -173 -115q-136 0 -175 114zM356 746h-70q-10 0 -19 10l-47 57h-2l-47 -57q-9 -10 -19 -10h-70q-4 0 -5.5 3t1.5 7l90 130q7 10 17 10h67q10 0 17 -10l91 -130q3 -4 1.5 -7t-5.5 -3z" />
    <glyph glyph-name="gcircumflex" unicode="&#x11d;" 
d="M346 550h-70q-10 0 -19 10l-47 58h-2l-47 -58q-9 -10 -19 -10h-70q-4 0 -5.5 3t1.5 7l90 131q7 10 17 10h67q10 0 17 -10l91 -131q3 -4 1.5 -7t-5.5 -3zM201 -189q-62 0 -104.5 31t-51.5 79q-2 9 5 11l97 28q8 2 12 -6q12 -34 44 -34q44 0 44 51v98h-1q-23 -58 -92 -58
q-80 0 -106 79q-14 44 -14 162q0 117 14 161q26 79 106 79q68 0 93 -58h1v40q0 10 10 10h104q10 0 10 -10v-488q0 -85 -45.5 -130t-125.5 -45zM203 120q31 0 40 28q4 15 4 104q0 88 -4 103q-9 28 -40 28q-30 0 -39 -28q-5 -14 -5 -103q0 -90 5 -104q9 -28 39 -28z" />
    <glyph glyph-name="Gbreve" unicode="&#x11e;" horiz-adv-x="445" 
d="M219 736q-61 0 -95.5 36.5t-37.5 92.5q0 10 11 10h53q9 0 12 -10q17 -46 57 -46t57 46q3 10 11 10h53q11 0 11 -10q-2 -56 -36.5 -92.5t-95.5 -36.5zM49 105q-8 25 -10.5 67t-2.5 168t2.5 168t10.5 67q39 114 175 114q83 0 129.5 -43.5t53.5 -125.5q2 -10 -8 -12
l-106 -18q-9 -2 -11 9q-4 72 -57 72q-40 0 -50 -32q-6 -19 -6 -199t6 -198q10 -33 52 -33t52 33q6 21 6 124q0 6 -6 6h-43q-10 0 -10 10v88q0 10 10 10h165q10 0 10 -10v-30q0 -127 -2.5 -168.5t-11.5 -65.5q-38 -115 -173 -115q-136 0 -175 114z" />
    <glyph glyph-name="gbreve" unicode="&#x11f;" 
d="M201 -189q-62 0 -104.5 31t-51.5 79q-2 9 5 11l97 28q8 2 12 -6q12 -34 44 -34q44 0 44 51v98h-1q-23 -58 -92 -58q-80 0 -106 79q-14 44 -14 162q0 117 14 161q26 79 106 79q68 0 93 -58h1v40q0 10 10 10h104q10 0 10 -10v-488q0 -85 -45.5 -130t-125.5 -45zM203 120
q31 0 40 28q4 15 4 104q0 88 -4 103q-9 28 -40 28q-30 0 -39 -28q-5 -14 -5 -103q0 -90 5 -104q9 -28 39 -28zM209 549q-61 0 -95.5 36t-37.5 92q0 10 11 10h53q9 0 12 -10q17 -45 57 -45t57 45q3 10 11 10h53q11 0 11 -10q-2 -56 -36.5 -92t-95.5 -36z" />
    <glyph glyph-name="Gdotaccent" unicode="&#x120;" horiz-adv-x="445" 
d="M271 760h-105q-10 0 -10 10v98q0 10 10 10h105q10 0 10 -10v-98q0 -10 -10 -10zM49 105q-8 25 -10.5 67t-2.5 168t2.5 168t10.5 67q39 114 175 114q83 0 129.5 -43.5t53.5 -125.5q2 -10 -8 -12l-106 -18q-9 -2 -11 9q-4 72 -57 72q-40 0 -50 -32q-6 -19 -6 -199t6 -198
q10 -33 52 -33t52 33q6 21 6 124q0 6 -6 6h-43q-10 0 -10 10v88q0 10 10 10h165q10 0 10 -10v-30q0 -127 -2.5 -168.5t-11.5 -65.5q-38 -115 -173 -115q-136 0 -175 114z" />
    <glyph glyph-name="gdotaccent" unicode="&#x121;" 
d="M201 -189q-62 0 -104.5 31t-51.5 79q-2 9 5 11l97 28q8 2 12 -6q12 -34 44 -34q44 0 44 51v98h-1q-23 -58 -92 -58q-80 0 -106 79q-14 44 -14 162q0 117 14 161q26 79 106 79q68 0 93 -58h1v40q0 10 10 10h104q10 0 10 -10v-488q0 -85 -45.5 -130t-125.5 -45zM203 120
q31 0 40 28q4 15 4 104q0 88 -4 103q-9 28 -40 28q-30 0 -39 -28q-5 -14 -5 -103q0 -90 5 -104q9 -28 39 -28zM261 562h-105q-10 0 -10 10v98q0 10 10 10h105q10 0 10 -10v-98q0 -10 -10 -10z" />
    <glyph glyph-name="Gcommaaccent" unicode="&#x122;" horiz-adv-x="445" 
d="M176 -231q-9 0 -9 10v158q0 10 10 10h84q10 0 10 -10v-61q0 -14 -8 -23l-74 -78q-6 -6 -13 -6zM49 105q-8 25 -10.5 67t-2.5 168t2.5 168t10.5 67q39 114 175 114q83 0 129.5 -43.5t53.5 -125.5q2 -10 -8 -12l-106 -18q-9 -2 -11 9q-4 72 -57 72q-40 0 -50 -32
q-6 -19 -6 -199t6 -198q10 -33 52 -33t52 33q6 21 6 124q0 6 -6 6h-43q-10 0 -10 10v88q0 10 10 10h165q10 0 10 -10v-30q0 -127 -2.5 -168.5t-11.5 -65.5q-38 -115 -173 -115q-136 0 -175 114z" />
    <glyph glyph-name="gcommaaccent" unicode="&#x123;" 
d="M251 562h-84q-10 0 -10 10v61q0 14 8 23l74 79q6 6 13 6q9 0 9 -10v-159q0 -10 -10 -10zM201 -189q-62 0 -104.5 31t-51.5 79q-2 9 5 11l97 28q8 2 12 -6q12 -34 44 -34q44 0 44 51v98h-1q-23 -58 -92 -58q-80 0 -106 79q-14 44 -14 162q0 117 14 161q26 79 106 79
q68 0 93 -58h1v40q0 10 10 10h104q10 0 10 -10v-488q0 -85 -45.5 -130t-125.5 -45zM203 120q31 0 40 28q4 15 4 104q0 88 -4 103q-9 28 -40 28q-30 0 -39 -28q-5 -14 -5 -103q0 -90 5 -104q9 -28 39 -28z" />
    <glyph glyph-name="Hcircumflex" unicode="&#x124;" horiz-adv-x="461" 
d="M46 10v660q0 10 10 10h111q10 0 10 -10v-258q0 -6 6 -6h95q6 0 6 6v258q0 10 10 10h111q10 0 10 -10v-660q0 -10 -10 -10h-111q-10 0 -10 10v272q0 6 -6 6h-95q-6 0 -6 -6v-272q0 -10 -10 -10h-111q-10 0 -10 10zM367 746h-70q-10 0 -19 10l-47 57h-2l-47 -57
q-9 -10 -19 -10h-70q-5 0 -6 3t2 7l90 130q7 10 17 10h67q10 0 17 -10l91 -130q3 -4 2 -7t-6 -3z" />
    <glyph glyph-name="hcircumflex" unicode="&#x125;" horiz-adv-x="419" 
d="M368 0h-105q-10 0 -10 10v315q0 57 -42 57t-42 -57v-315q0 -10 -10 -10h-105q-10 0 -10 10v660q0 10 10 10h105q10 0 10 -10v-233h1q29 56 94 56q58 0 86 -36t28 -113v-334q0 -10 -10 -10zM357 746h-70q-10 0 -19 10l-47 57h-2l-47 -57q-9 -10 -19 -10h-70q-5 0 -6 3t2 7
l90 130q7 10 17 10h67q10 0 17 -10l91 -130q3 -4 2 -7t-6 -3z" />
    <glyph glyph-name="Hbar" unicode="&#x126;" horiz-adv-x="461" 
d="M405 0h-111q-10 0 -10 10v272q0 6 -6 6h-95q-6 0 -6 -6v-272q0 -10 -10 -10h-111q-10 0 -10 10v479q0 6 -6 6h-21q-10 0 -10 10v70q0 10 10 10h21q6 0 6 6v79q0 10 10 10h111q10 0 10 -10v-79q0 -6 6 -6h95q6 0 6 6v79q0 10 10 10h111q10 0 10 -10v-79q0 -6 6 -6h21
q10 0 10 -10v-70q0 -10 -10 -10h-21q-6 0 -6 -6v-479q0 -10 -10 -10zM278 406q6 0 6 6v77q0 6 -6 6h-95q-6 0 -6 -6v-77q0 -6 6 -6h95z" />
    <glyph glyph-name="hbar" unicode="&#x127;" horiz-adv-x="419" 
d="M368 0h-105q-10 0 -10 10v315q0 57 -42 57t-42 -57v-315q0 -10 -10 -10h-105q-10 0 -10 10v524q0 6 -6 6h-20q-10 0 -10 10v64q0 10 10 10h20q6 0 6 6v40q0 10 10 10h105q10 0 10 -10v-40q0 -6 6 -6h80q10 0 10 -10v-64q0 -10 -10 -10h-80q-6 0 -6 -6v-97h1q29 56 94 56
q58 0 86 -36t28 -113v-334q0 -10 -10 -10z" />
    <glyph glyph-name="Itilde" unicode="&#x128;" horiz-adv-x="223" 
d="M46 10v660q0 10 10 10h111q10 0 10 -10v-660q0 -10 -10 -10h-111q-10 0 -10 10zM161 754q-26 0 -55 19q-26 17 -44 17q-26 0 -55 -29q-4 -4 -7.5 -2.5t-3.5 6.5v73q0 9 9 18q27 27 58 27q26 0 55 -19q27 -16 44 -16q28 0 54 28q4 4 8 2.5t4 -6.5v-73q0 -9 -9 -18
q-27 -27 -58 -27z" />
    <glyph glyph-name="itilde" unicode="&#x129;" horiz-adv-x="213" 
d="M159 0h-105q-10 0 -10 10v464q0 10 10 10h105q10 0 10 -10v-464q0 -10 -10 -10zM155 558q-26 0 -55 19q-27 16 -44 16q-27 0 -55 -28q-4 -4 -7.5 -2.5t-3.5 6.5v73q0 9 9 18q27 27 58 27q26 0 55 -19q27 -17 44 -17q27 0 54 29q4 4 8 2.5t4 -6.5v-73q0 -9 -9 -18
q-27 -27 -58 -27z" />
    <glyph glyph-name="Imacron" unicode="&#x12a;" horiz-adv-x="223" 
d="M46 10v660q0 10 10 10h111q10 0 10 -10v-660q0 -10 -10 -10h-111q-10 0 -10 10zM223 771h-223q-10 0 -10 10v74q0 10 10 10h223q10 0 10 -10v-74q0 -10 -10 -10z" />
    <glyph glyph-name="imacron" unicode="&#x12b;" horiz-adv-x="213" 
d="M159 0h-105q-10 0 -10 10v464q0 10 10 10h105q10 0 10 -10v-464q0 -10 -10 -10zM218 576h-223q-10 0 -10 10v74q0 10 10 10h223q10 0 10 -10v-74q0 -10 -10 -10z" />
    <glyph glyph-name="Ibreve" unicode="&#x12c;" horiz-adv-x="223" 
d="M46 10v660q0 10 10 10h111q10 0 10 -10v-660q0 -10 -10 -10h-111q-10 0 -10 10zM112 736q-61 0 -95.5 36.5t-37.5 92.5q0 10 11 10h53q9 0 12 -10q17 -46 57 -46t57 46q3 10 11 10h53q11 0 11 -10q-2 -56 -36.5 -92.5t-95.5 -36.5z" />
    <glyph glyph-name="ibreve" unicode="&#x12d;" horiz-adv-x="213" 
d="M159 0h-105q-10 0 -10 10v464q0 10 10 10h105q10 0 10 -10v-464q0 -10 -10 -10zM107 549q-61 0 -95.5 36t-37.5 92q0 10 11 10h53q9 0 12 -10q17 -45 57 -45t57 45q3 10 11 10h53q11 0 11 -10q-2 -56 -36.5 -92t-95.5 -36z" />
    <glyph glyph-name="Iogonek" unicode="&#x12e;" horiz-adv-x="223" 
d="M108 -191q-44 0 -69.5 23t-25.5 64q0 54 53 104h-10q-10 0 -10 10v660q0 10 10 10h111q10 0 10 -10v-660q0 -6 -4 -9q-65 -48 -65 -83q0 -23 19 -23q10 0 17 4q9 6 13 -4l22 -55q3 -8 -5 -13q-25 -18 -66 -18z" />
    <glyph glyph-name="iogonek" unicode="&#x12f;" horiz-adv-x="213" 
d="M159 562h-105q-10 0 -10 10v98q0 10 10 10h105q10 0 10 -10v-98q0 -10 -10 -10zM100 -191q-44 0 -70 23t-26 64q0 53 53 104h-4q-9 0 -9 10v464q0 10 10 10h105q10 0 10 -10v-464q0 -6 -5 -10q-64 -48 -64 -82q0 -23 19 -23q9 0 16 4q9 5 13 -4l23 -55q3 -8 -5 -13
q-27 -18 -66 -18z" />
    <glyph glyph-name="Idotaccent" unicode="&#x130;" horiz-adv-x="223" 
d="M46 10v660q0 10 10 10h111q10 0 10 -10v-660q0 -10 -10 -10h-111q-10 0 -10 10zM165 760h-105q-10 0 -10 10v98q0 10 10 10h105q10 0 10 -10v-98q0 -10 -10 -10z" />
    <glyph glyph-name="dotlessi" unicode="&#x131;" horiz-adv-x="213" 
d="M159 0h-105q-10 0 -10 10v464q0 10 10 10h105q10 0 10 -10v-464q0 -10 -10 -10z" />
    <glyph glyph-name="Jcircumflex" unicode="&#x134;" horiz-adv-x="369" 
d="M13 41q-6 8 1 14l72 70q7 6 15 -1q17 -15 38 -15q54 0 54 66v495q0 10 10 10h111q10 0 10 -10v-483q0 -100 -49 -148t-137 -48q-84 0 -125 50zM393 746h-70q-10 0 -19 10l-47 57h-2l-47 -57q-9 -10 -19 -10h-70q-5 0 -6 3t2 7l90 130q7 10 17 10h67q10 0 17 -10l91 -130
q3 -4 2 -7t-6 -3z" />
    <glyph glyph-name="jcircumflex" unicode="&#x135;" horiz-adv-x="213" 
d="M6 -180h-17q-10 0 -10 10v92q0 10 10 10l14 1q22 2 31.5 14t9.5 42v485q0 10 10 10h105q10 0 10 -10v-486q0 -168 -163 -168zM243 550h-70q-10 0 -19 10l-47 58h-2l-47 -58q-9 -10 -19 -10h-70q-5 0 -6 3t2 7l90 131q7 10 17 10h67q10 0 17 -10l91 -131q3 -4 2 -7t-6 -3z
" />
    <glyph glyph-name="Kcommaaccent" unicode="&#x136;" horiz-adv-x="466" 
d="M202 -231q-9 0 -9 10v158q0 10 10 10h84q10 0 10 -10v-61q0 -14 -8 -23l-74 -78q-6 -6 -13 -6zM46 10v660q0 10 10 10h111q10 0 10 -10v-261l124 263q4 8 13 8h116q4 0 5.5 -3t-0.5 -7l-136 -264l153 -396q4 -10 -6 -10h-119q-9 0 -10 7l-100 271l-40 -84v-184
q0 -10 -10 -10h-111q-10 0 -10 10z" />
    <glyph glyph-name="kcommaaccent" unicode="&#x137;" horiz-adv-x="415" 
d="M177 -231q-9 0 -9 10v158q0 10 10 10h84q10 0 10 -10v-61q0 -14 -8 -23l-74 -78q-6 -6 -13 -6zM398 0h-110q-10 0 -14 11l-71 189l-34 -61v-129q0 -10 -10 -10h-105q-10 0 -10 10v660q0 10 10 10h105q10 0 10 -10v-361l91 166q6 9 14 9h108q11 0 6 -10l-106 -171
l122 -293q5 -10 -6 -10z" />
    <glyph glyph-name="kgreenlandic" unicode="&#x138;" horiz-adv-x="415" 
d="M398 0h-110q-10 0 -14 11l-71 189l-34 -61v-129q0 -10 -10 -10h-105q-10 0 -10 10v464q0 10 10 10h105q10 0 10 -10v-165l91 166q6 9 14 9h108q11 0 6 -10l-106 -171l122 -293q5 -10 -6 -10z" />
    <glyph glyph-name="Lacute" unicode="&#x139;" horiz-adv-x="385" 
d="M151 755h-74q-5 0 -6.5 3t1.5 7l82 114q7 10 16 10h100q5 0 6.5 -3t-1.5 -7l-104 -114q-10 -10 -20 -10zM46 10v660q0 10 10 10h111q10 0 10 -10v-546q0 -6 6 -6h172q10 0 10 -10v-98q0 -10 -10 -10h-299q-10 0 -10 10z" />
    <glyph glyph-name="lacute" unicode="&#x13a;" horiz-adv-x="246" 
d="M143 755h-74q-5 0 -6.5 3t1.5 7l82 114q7 10 16 10h100q5 0 6.5 -3t-1.5 -7l-104 -114q-10 -10 -20 -10zM213 -6h-11q-86 2 -122.5 38t-36.5 124v514q0 10 10 10h105q10 0 10 -10v-513q0 -45 40 -51l5 -1q10 -2 10 -11v-90q0 -10 -10 -10z" />
    <glyph glyph-name="Lcommaaccent" unicode="&#x13b;" horiz-adv-x="385" 
d="M150 -231q-9 0 -9 10v158q0 10 10 10h84q10 0 10 -10v-61q0 -14 -8 -23l-74 -78q-6 -6 -13 -6zM46 10v660q0 10 10 10h111q10 0 10 -10v-546q0 -6 6 -6h172q10 0 10 -10v-98q0 -10 -10 -10h-299q-10 0 -10 10z" />
    <glyph glyph-name="lcommaaccent" unicode="&#x13c;" horiz-adv-x="246" 
d="M96 -231q-9 0 -9 10v158q0 10 10 10h84q10 0 10 -10v-61q0 -14 -8 -23l-74 -78q-6 -6 -13 -6zM213 -6h-11q-86 2 -122.5 38t-36.5 124v514q0 10 10 10h105q10 0 10 -10v-513q0 -45 40 -51l5 -1q10 -2 10 -11v-90q0 -10 -10 -10z" />
    <glyph glyph-name="Lcaron" unicode="&#x13d;" horiz-adv-x="385" 
d="M224 494q-9 0 -9 10v166q0 10 10 10h81q10 0 10 -10v-69q0 -13 -9 -23l-70 -77q-6 -7 -13 -7zM46 10v660q0 10 10 10h111q10 0 10 -10v-546q0 -6 6 -6h172q10 0 10 -10v-98q0 -10 -10 -10h-299q-10 0 -10 10z" />
    <glyph glyph-name="lcaron" unicode="&#x13e;" horiz-adv-x="246" 
d="M220 494q-9 0 -9 10v166q0 10 10 10h81q10 0 10 -10v-69q0 -13 -9 -23l-70 -77q-6 -7 -13 -7zM213 -6h-11q-86 2 -122.5 38t-36.5 124v514q0 10 10 10h105q10 0 10 -10v-513q0 -45 40 -51l5 -1q10 -2 10 -11v-90q0 -10 -10 -10z" />
    <glyph glyph-name="Ldot" unicode="&#x13f;" horiz-adv-x="385" 
d="M46 10v660q0 10 10 10h111q10 0 10 -10v-546q0 -6 6 -6h172q10 0 10 -10v-98q0 -10 -10 -10h-299q-10 0 -10 10zM355 239h-102q-10 0 -10 10v116q0 10 10 10h102q10 0 10 -10v-116q0 -10 -10 -10z" />
    <glyph glyph-name="ldot" unicode="&#x140;" horiz-adv-x="324" 
d="M213 -6h-11q-86 2 -122.5 38t-36.5 124v514q0 10 10 10h105q10 0 10 -10v-513q0 -45 40 -51l5 -1q10 -2 10 -11v-90q0 -10 -10 -10zM319 247h-102q-10 0 -10 10v116q0 10 10 10h102q10 0 10 -10v-116q0 -10 -10 -10z" />
    <glyph glyph-name="Lslash" unicode="&#x141;" horiz-adv-x="385" 
d="M262 384l-85 -58v-202q0 -6 6 -6h172q10 0 10 -10v-98q0 -10 -10 -10h-299q-10 0 -10 10v233l-31 -21q-4 -2 -7 -0.5t-3 5.5v94q0 9 10 16l31 21v312q0 10 10 10h111q10 0 10 -10v-229l85 59q4 2 7 0.5t3 -5.5v-95q0 -9 -10 -16z" />
    <glyph glyph-name="lslash" unicode="&#x142;" horiz-adv-x="245" 
d="M213 -6h-11q-86 2 -122.5 38t-36.5 124v116l-24 -16q-4 -2 -7 -0.5t-3 5.5v89q0 9 10 16l24 16v288q0 10 10 10h105q10 0 10 -10v-202l45 31q4 2 7 0.5t3 -5.5v-89q0 -9 -10 -16l-45 -31v-201q0 -45 40 -51l5 -1q10 -2 10 -11v-90q0 -10 -10 -10z" />
    <glyph glyph-name="Nacute" unicode="&#x143;" horiz-adv-x="474" 
d="M261 755h-74q-5 0 -6.5 3t1.5 7l82 114q7 10 16 10h100q5 0 6.5 -3t-1.5 -7l-104 -114q-10 -10 -20 -10zM46 10v660q0 10 10 10h125q11 0 14 -10l113 -427h5v427q0 10 10 10h95q10 0 10 -10v-660q0 -10 -10 -10h-120q-11 0 -14 10l-118 427h-5v-427q0 -10 -10 -10h-95
q-10 0 -10 10z" />
    <glyph glyph-name="nacute" unicode="&#x144;" horiz-adv-x="419" 
d="M223 551h-75q-11 0 -6 10l72 130q6 10 16 10h100q5 0 6.5 -3t-1.5 -7l-94 -130q-7 -10 -18 -10zM368 0h-105q-10 0 -10 10v315q0 57 -42 57t-42 -57v-315q0 -10 -10 -10h-105q-10 0 -10 10v464q0 10 10 10h104q10 0 10 -10v-37h1q29 56 95 56q58 0 86 -36t28 -113v-334
q0 -10 -10 -10z" />
    <glyph glyph-name="Ncommaaccent" unicode="&#x145;" horiz-adv-x="474" 
d="M207 -231q-9 0 -9 10v158q0 10 10 10h84q10 0 10 -10v-61q0 -14 -8 -23l-74 -78q-6 -6 -13 -6zM46 10v660q0 10 10 10h125q11 0 14 -10l113 -427h5v427q0 10 10 10h95q10 0 10 -10v-660q0 -10 -10 -10h-120q-11 0 -14 10l-118 427h-5v-427q0 -10 -10 -10h-95
q-10 0 -10 10z" />
    <glyph glyph-name="ncommaaccent" unicode="&#x146;" horiz-adv-x="419" 
d="M167 -231q-9 0 -9 10v158q0 10 10 10h84q10 0 10 -10v-61q0 -14 -8 -23l-74 -78q-6 -6 -13 -6zM368 0h-105q-10 0 -10 10v315q0 57 -42 57t-42 -57v-315q0 -10 -10 -10h-105q-10 0 -10 10v464q0 10 10 10h104q10 0 10 -10v-37h1q29 56 95 56q58 0 86 -36t28 -113v-334
q0 -10 -10 -10z" />
    <glyph glyph-name="Ncaron" unicode="&#x147;" horiz-adv-x="474" 
d="M271 741h-67q-10 0 -17 10l-90 130q-3 4 -2 7t6 3h70q10 0 19 -10l47 -57h2l47 57q9 10 19 10h70q5 0 6 -3t-2 -7l-91 -130q-7 -10 -17 -10zM46 10v660q0 10 10 10h125q11 0 14 -10l113 -427h5v427q0 10 10 10h95q10 0 10 -10v-660q0 -10 -10 -10h-120q-11 0 -14 10
l-118 427h-5v-427q0 -10 -10 -10h-95q-10 0 -10 10z" />
    <glyph glyph-name="ncaron" unicode="&#x148;" horiz-adv-x="419" 
d="M243 549h-67q-10 0 -17 10l-90 130q-3 4 -2 7t6 3h70q10 0 19 -10l47 -57h2l47 57q9 10 19 10h70q5 0 6 -3t-2 -7l-91 -130q-7 -10 -17 -10zM368 0h-105q-10 0 -10 10v315q0 57 -42 57t-42 -57v-315q0 -10 -10 -10h-105q-10 0 -10 10v464q0 10 10 10h104q10 0 10 -10v-37
h1q29 56 95 56q58 0 86 -36t28 -113v-334q0 -10 -10 -10z" />
    <glyph glyph-name="Eng" unicode="&#x14a;" horiz-adv-x="474" 
d="M252 -180h-14q-10 0 -10 10v98q0 10 10 10l11 1q48 3 48 49v2l-131 447h-5v-427q0 -10 -10 -10h-95q-10 0 -10 10v660q0 10 10 10h122q13 0 17 -10l113 -420h5v420q0 10 10 10h95q10 0 10 -10v-668q0 -95 -43 -138.5t-133 -43.5z" />
    <glyph glyph-name="eng" unicode="&#x14b;" horiz-adv-x="419" 
d="M219 -180h-13q-10 0 -10 10v90q0 10 10 10l9 1q21 2 29.5 12.5t8.5 39.5v342q0 57 -42 57t-42 -57v-315q0 -10 -10 -10h-105q-10 0 -10 10v464q0 10 10 10h104q10 0 10 -10v-37h1q29 56 95 56q58 0 86 -36t28 -113v-356q0 -86 -38.5 -127t-120.5 -41z" />
    <glyph glyph-name="Omacron" unicode="&#x14c;" horiz-adv-x="448" 
d="M335 771h-223q-10 0 -10 10v74q0 10 10 10h223q10 0 10 -10v-74q0 -10 -10 -10zM224 -9q-136 0 -174 115q-9 24 -11.5 65.5t-2.5 168.5t2.5 168.5t11.5 65.5q38 115 174 115t174 -115q9 -24 11.5 -65.5t2.5 -168.5t-2.5 -168.5t-11.5 -65.5q-38 -115 -174 -115zM224 109
q38 0 48 33q7 22 7 198t-7 198q-10 33 -48 33t-48 -33q-7 -22 -7 -198t7 -198q10 -33 48 -33z" />
    <glyph glyph-name="omacron" unicode="&#x14d;" horiz-adv-x="400" 
d="M312 576h-223q-10 0 -10 10v74q0 10 10 10h223q10 0 10 -10v-74q0 -10 -10 -10zM200 -9q-123 0 -157 106q-12 35 -12 145t12 145q34 106 157 106t157 -106q12 -35 12 -145t-12 -145q-34 -106 -157 -106zM200 101q31 0 40 28q4 15 4 113t-4 113q-9 28 -40 28t-40 -28
q-4 -15 -4 -113t4 -113q9 -28 40 -28z" />
    <glyph glyph-name="Obreve" unicode="&#x14e;" horiz-adv-x="448" 
d="M224 736q-61 0 -95.5 36.5t-37.5 92.5q0 10 11 10h53q9 0 12 -10q17 -46 57 -46t57 46q3 10 11 10h53q11 0 11 -10q-2 -56 -36.5 -92.5t-95.5 -36.5zM224 -9q-136 0 -174 115q-9 24 -11.5 65.5t-2.5 168.5t2.5 168.5t11.5 65.5q38 115 174 115t174 -115q9 -24 11.5 -65.5
t2.5 -168.5t-2.5 -168.5t-11.5 -65.5q-38 -115 -174 -115zM224 109q38 0 48 33q7 22 7 198t-7 198q-10 33 -48 33t-48 -33q-7 -22 -7 -198t7 -198q10 -33 48 -33z" />
    <glyph glyph-name="obreve" unicode="&#x14f;" horiz-adv-x="400" 
d="M200 -9q-123 0 -157 106q-12 35 -12 145t12 145q34 106 157 106t157 -106q12 -35 12 -145t-12 -145q-34 -106 -157 -106zM200 101q31 0 40 28q4 15 4 113t-4 113q-9 28 -40 28t-40 -28q-4 -15 -4 -113t4 -113q9 -28 40 -28zM201 549q-61 0 -95.5 36t-37.5 92q0 10 11 10
h53q9 0 12 -10q17 -45 57 -45t57 45q3 10 11 10h53q11 0 11 -10q-2 -56 -36.5 -92t-95.5 -36z" />
    <glyph glyph-name="Ohungarumlaut" unicode="&#x150;" horiz-adv-x="448" 
d="M224 -9q-136 0 -174 115q-9 24 -11.5 65.5t-2.5 168.5t2.5 168.5t11.5 65.5q38 115 174 115t174 -115q9 -24 11.5 -65.5t2.5 -168.5t-2.5 -168.5t-11.5 -65.5q-38 -115 -174 -115zM224 109q38 0 48 33q7 22 7 198t-7 198q-10 33 -48 33t-48 -33q-7 -22 -7 -198t7 -198
q10 -33 48 -33zM321 755h-64q-11 0 -6 10l71 112q7 10 17 10h82q5 0 6 -3t-2 -7l-85 -112q-9 -10 -19 -10zM177 755h-64q-12 0 -5 10l70 112q7 10 17 10h83q4 0 5.5 -3t-1.5 -7l-86 -112q-9 -10 -19 -10z" />
    <glyph glyph-name="ohungarumlaut" unicode="&#x151;" horiz-adv-x="400" 
d="M300 550h-65q-11 0 -6 10l62 130q4 10 16 10h83q11 0 5 -10l-77 -130q-6 -10 -18 -10zM156 550h-64q-11 0 -6 10l62 130q4 10 16 10h83q11 0 5 -10l-78 -130q-6 -10 -18 -10zM200 -9q-123 0 -157 106q-12 35 -12 145t12 145q34 106 157 106t157 -106q12 -35 12 -145
t-12 -145q-34 -106 -157 -106zM200 101q31 0 40 28q4 15 4 113t-4 113q-9 28 -40 28t-40 -28q-4 -15 -4 -113t4 -113q9 -28 40 -28z" />
    <glyph glyph-name="OE" unicode="&#x152;" horiz-adv-x="623" 
d="M586 0h-297q-10 0 -10 10v12h-1q-26 -31 -85 -31q-110 0 -144 105q-13 40 -13 244t13 244q34 105 144 105q59 0 85 -31h1v12q0 10 10 10h297q10 0 10 -10v-98q0 -10 -10 -10h-170q-6 0 -6 -6v-148q0 -6 6 -6h147q10 0 10 -10v-98q0 -10 -10 -10h-147q-6 0 -6 -6v-154
q0 -6 6 -6h170q10 0 10 -10v-98q0 -10 -10 -10zM224 109q18 0 31 9t18 24q6 19 6 198t-6 198q-5 15 -18 24t-31 9t-31 -9t-18 -24q-6 -19 -6 -198t6 -198q5 -15 18 -24t31 -9z" />
    <glyph glyph-name="oe" unicode="&#x153;" horiz-adv-x="607" 
d="M411 -9q-69 0 -104 35h-2q-41 -35 -105 -35q-123 0 -157 106q-12 35 -12 145t12 145q34 106 156 106q65 0 106 -35h1q39 35 106 35q119 0 154 -102q12 -35 12 -179q0 -10 -10 -10h-193q-6 0 -6 -6q0 -56 5 -69q9 -28 39 -28q33 0 45 38q3 9 12 7l95 -19q9 -1 7 -12
q-10 -57 -53.5 -89.5t-107.5 -32.5zM451 291q6 0 6 6q0 50 -5 67q-10 26 -39 26t-39 -26q-5 -17 -5 -67q0 -6 6 -6h76zM200 101q31 0 40 28q4 15 4 113t-4 113q-9 28 -40 28t-40 -28q-4 -15 -4 -113t4 -113q9 -28 40 -28z" />
    <glyph glyph-name="Racute" unicode="&#x154;" horiz-adv-x="454" 
d="M429 0h-120q-8 0 -11 8l-77 258h-38q-6 0 -6 -6v-250q0 -10 -10 -10h-111q-10 0 -10 10v660q0 10 10 10h162q199 0 199 -208q0 -122 -76 -174l93 -288q4 -10 -5 -10zM212 379q39 0 56 20t17 73q0 52 -17 72.5t-56 20.5h-29q-6 0 -6 -6v-174q0 -6 6 -6h29zM235 755h-74
q-5 0 -6.5 3t1.5 7l82 114q7 10 16 10h100q5 0 6.5 -3t-1.5 -7l-104 -114q-10 -10 -20 -10z" />
    <glyph glyph-name="racute" unicode="&#x155;" horiz-adv-x="314" 
d="M191 551h-75q-11 0 -6 10l72 130q6 10 16 10h100q5 0 6.5 -3t-1.5 -7l-94 -130q-7 -10 -18 -10zM159 0h-105q-10 0 -10 10v464q0 10 10 10h105q10 0 10 -10v-45h1q30 64 111 64h15q9 -2 8 -10l-23 -107q-1 -7 -10 -6h-17q-85 0 -85 -99v-261q0 -10 -10 -10z" />
    <glyph glyph-name="Rcommaaccent" unicode="&#x156;" horiz-adv-x="454" 
d="M183 -231q-9 0 -9 10v158q0 10 10 10h84q10 0 10 -10v-61q0 -14 -8 -23l-74 -78q-6 -6 -13 -6zM429 0h-120q-8 0 -11 8l-77 258h-38q-6 0 -6 -6v-250q0 -10 -10 -10h-111q-10 0 -10 10v660q0 10 10 10h162q199 0 199 -208q0 -122 -76 -174l93 -288q4 -10 -5 -10zM212 379
q39 0 56 20t17 73q0 52 -17 72.5t-56 20.5h-29q-6 0 -6 -6v-174q0 -6 6 -6h29z" />
    <glyph glyph-name="rcommaaccent" unicode="&#x157;" horiz-adv-x="314" 
d="M64 -231q-9 0 -9 10v158q0 10 10 10h84q10 0 10 -10v-61q0 -14 -8 -23l-74 -78q-6 -6 -13 -6zM159 0h-105q-10 0 -10 10v464q0 10 10 10h105q10 0 10 -10v-45h1q30 64 111 64h15q9 -2 8 -10l-23 -107q-1 -7 -10 -6h-17q-85 0 -85 -99v-261q0 -10 -10 -10z" />
    <glyph glyph-name="Rcaron" unicode="&#x158;" horiz-adv-x="454" 
d="M235 741h-67q-10 0 -17 10l-90 130q-3 4 -2 7t6 3h70q10 0 19 -10l47 -57h2l47 57q9 10 19 10h70q5 0 6 -3t-2 -7l-91 -130q-7 -10 -17 -10zM429 0h-120q-8 0 -11 8l-77 258h-38q-6 0 -6 -6v-250q0 -10 -10 -10h-111q-10 0 -10 10v660q0 10 10 10h162q199 0 199 -208
q0 -122 -76 -174l93 -288q4 -10 -5 -10zM212 379q39 0 56 20t17 73q0 52 -17 72.5t-56 20.5h-29q-6 0 -6 -6v-174q0 -6 6 -6h29z" />
    <glyph glyph-name="rcaron" unicode="&#x159;" horiz-adv-x="314" 
d="M208 549h-67q-10 0 -17 10l-90 130q-3 4 -1.5 7t5.5 3h70q10 0 19 -10l47 -57h2l47 57q9 10 19 10h70q4 0 5.5 -3t-1.5 -7l-91 -130q-7 -10 -17 -10zM159 0h-105q-10 0 -10 10v464q0 10 10 10h105q10 0 10 -10v-45h1q30 64 111 64h15q9 -2 8 -10l-23 -107q-1 -7 -10 -6
h-17q-85 0 -85 -99v-261q0 -10 -10 -10z" />
    <glyph glyph-name="Sacute" unicode="&#x15a;" horiz-adv-x="423" 
d="M398 202q0 -107 -44.5 -159t-143.5 -52q-181 0 -184 182q0 10 8 11l107 17q11 2 11 -8q1 -47 15.5 -67.5t43.5 -20.5t41.5 18t12.5 63t-12.5 65.5t-50.5 35.5l-41 16q-72 28 -100.5 71.5t-28.5 125.5q0 189 180 189q172 0 180 -169q0 -10 -9 -11l-102 -16q-11 -2 -11 8
q-2 74 -54 74t-52 -68q0 -38 12 -55t52 -33l41 -16q71 -27 100 -71.5t29 -129.5zM235 755h-74q-5 0 -6.5 3t1.5 7l82 114q7 10 16 10h100q5 0 6.5 -3t-1.5 -7l-104 -114q-10 -10 -20 -10z" />
    <glyph glyph-name="sacute" unicode="&#x15b;" horiz-adv-x="364" 
d="M207 551h-75q-11 0 -6 10l72 130q6 10 16 10h100q5 0 6.5 -3t-1.5 -7l-94 -130q-7 -10 -18 -10zM182 -9q-72 0 -114 34t-47 93q-2 9 8 11l92 17q10 2 12 -8q6 -49 49 -49q20 0 32 12t12 32t-10 31.5t-35 21.5l-39 14q-113 39 -113 147q0 65 41.5 105.5t113.5 40.5
q66 0 105 -32t45 -82q2 -11 -6 -13l-87 -16q-9 -2 -11 8q-10 38 -45 38q-18 0 -28.5 -11t-10.5 -29q0 -30 46 -47l39 -14q61 -21 87 -57t26 -94q0 -69 -43 -111t-119 -42z" />
    <glyph glyph-name="Scircumflex" unicode="&#x15c;" horiz-adv-x="423" 
d="M398 202q0 -107 -44.5 -159t-143.5 -52q-181 0 -184 182q0 10 8 11l107 17q11 2 11 -8q1 -47 15.5 -67.5t43.5 -20.5t41.5 18t12.5 63t-12.5 65.5t-50.5 35.5l-41 16q-72 28 -100.5 71.5t-28.5 125.5q0 189 180 189q172 0 180 -169q0 -10 -9 -11l-102 -16q-11 -2 -11 8
q-2 74 -54 74t-52 -68q0 -38 12 -55t52 -33l41 -16q71 -27 100 -71.5t29 -129.5zM349 746h-70q-10 0 -19 10l-47 57h-2l-47 -57q-9 -10 -19 -10h-70q-5 0 -6 3t2 7l90 130q7 10 17 10h67q10 0 17 -10l91 -130q3 -4 2 -7t-6 -3z" />
    <glyph glyph-name="scircumflex" unicode="&#x15d;" horiz-adv-x="364" 
d="M320 550h-70q-10 0 -19 10l-47 58h-2l-47 -58q-9 -10 -19 -10h-70q-4 0 -5.5 3t1.5 7l90 131q7 10 17 10h67q10 0 17 -10l91 -131q3 -4 1.5 -7t-5.5 -3zM182 -9q-72 0 -114 34t-47 93q-2 9 8 11l92 17q10 2 12 -8q6 -49 49 -49q20 0 32 12t12 32t-10 31.5t-35 21.5
l-39 14q-113 39 -113 147q0 65 41.5 105.5t113.5 40.5q66 0 105 -32t45 -82q2 -11 -6 -13l-87 -16q-9 -2 -11 8q-10 38 -45 38q-18 0 -28.5 -11t-10.5 -29q0 -30 46 -47l39 -14q61 -21 87 -57t26 -94q0 -69 -43 -111t-119 -42z" />
    <glyph glyph-name="Scedilla" unicode="&#x15e;" horiz-adv-x="423" 
d="M399 202q0 -95 -35.5 -146.5t-112.5 -61.5l-50 -144q-4 -10 -16 -10h-84q-10 0 -7 10l63 146q-129 25 -131 177q0 10 8 11l107 17q11 2 11 -8q1 -47 15.5 -67.5t43.5 -20.5t42 18t13 63t-13 65.5t-51 35.5l-41 16q-72 28 -100.5 71.5t-28.5 125.5q0 189 180 189
q172 0 180 -169q0 -10 -9 -11l-102 -16q-11 -2 -11 8q-2 74 -54 74t-52 -68q0 -38 12 -55t52 -33l41 -16q71 -27 100.5 -71.5t29.5 -129.5z" />
    <glyph glyph-name="scedilla" unicode="&#x15f;" horiz-adv-x="364" 
d="M63 -150l63 147q-47 11 -74 42.5t-31 78.5q-2 9 8 11l92 17q10 2 12 -8q6 -49 49 -49q20 0 32 12t12 32t-10 31.5t-35 21.5l-39 14q-113 39 -113 147q0 65 41.5 105.5t113.5 40.5q66 0 105 -32t45 -82q2 -11 -6 -13l-87 -16q-9 -2 -11 8q-10 38 -45 38q-18 0 -28.5 -11
t-10.5 -29q0 -30 46 -47l39 -14q61 -21 87 -57t26 -94q0 -60 -32 -99.5t-91 -49.5l-51 -145q-4 -10 -16 -10h-84q-10 0 -7 10z" />
    <glyph glyph-name="Scaron" unicode="&#x160;" horiz-adv-x="423" 
d="M398 202q0 -107 -44.5 -159t-143.5 -52q-181 0 -184 182q0 10 8 11l107 17q11 2 11 -8q1 -47 15.5 -67.5t43.5 -20.5t41.5 18t12.5 63t-12.5 65.5t-50.5 35.5l-41 16q-72 28 -100.5 71.5t-28.5 125.5q0 189 180 189q172 0 180 -169q0 -10 -9 -11l-102 -16q-11 -2 -11 8
q-2 74 -54 74t-52 -68q0 -38 12 -55t52 -33l41 -16q71 -27 100 -71.5t29 -129.5zM238 741h-67q-10 0 -17 10l-90 130q-3 4 -1.5 7t5.5 3h70q10 0 19 -10l47 -57h2l47 57q9 10 19 10h70q4 0 5.5 -3t-1.5 -7l-91 -130q-7 -10 -17 -10z" />
    <glyph glyph-name="scaron" unicode="&#x161;" horiz-adv-x="364" 
d="M216 549h-67q-10 0 -17 10l-90 130q-3 4 -1.5 7t5.5 3h70q10 0 19 -10l47 -57h2l47 57q9 10 19 10h70q4 0 5.5 -3t-1.5 -7l-91 -130q-7 -10 -17 -10zM182 -9q-72 0 -114 34t-47 93q-2 9 8 11l92 17q10 2 12 -8q6 -49 49 -49q20 0 32 12t12 32t-10 31.5t-35 21.5l-39 14
q-113 39 -113 147q0 65 41.5 105.5t113.5 40.5q66 0 105 -32t45 -82q2 -11 -6 -13l-87 -16q-9 -2 -11 8q-10 38 -45 38q-18 0 -28.5 -11t-10.5 -29q0 -30 46 -47l39 -14q61 -21 87 -57t26 -94q0 -69 -43 -111t-119 -42z" />
    <glyph glyph-name="Tcommaaccent" unicode="&#x162;" horiz-adv-x="405" 
d="M161 -231q-9 0 -9 10v158q0 10 10 10h84q10 0 10 -10v-61q0 -14 -8 -23l-74 -78q-6 -6 -13 -6zM258 0h-111q-10 0 -10 10v546q0 6 -6 6h-107q-10 0 -10 10v98q0 10 10 10h357q10 0 10 -10v-98q0 -10 -10 -10h-107q-6 0 -6 -6v-546q0 -10 -10 -10z" />
    <glyph glyph-name="tcommaaccent" unicode="&#x163;" horiz-adv-x="275" 
d="M116 -231q-9 0 -9 10v158q0 10 10 10h84q10 0 10 -10v-61q0 -14 -8 -23l-74 -78q-6 -6 -13 -6zM242 -6h-34q-76 0 -110 33t-34 116v242q0 6 -6 6h-30q-10 0 -10 10v73q0 10 10 10h30q6 0 6 6v130q0 10 10 10h105q10 0 10 -10v-130q0 -6 6 -6h47q10 0 10 -10v-73
q0 -10 -10 -10h-47q-6 0 -6 -6v-237q0 -42 39 -42h14q10 0 10 -10v-92q0 -10 -10 -10z" />
    <glyph glyph-name="Tcaron" unicode="&#x164;" horiz-adv-x="405" 
d="M237 741h-67q-10 0 -17 10l-90 130q-3 4 -2 7t6 3h70q10 0 19 -10l47 -57h2l47 57q9 10 19 10h70q5 0 6 -3t-2 -7l-91 -130q-7 -10 -17 -10zM258 0h-111q-10 0 -10 10v546q0 6 -6 6h-107q-10 0 -10 10v98q0 10 10 10h357q10 0 10 -10v-98q0 -10 -10 -10h-107q-6 0 -6 -6
v-546q0 -10 -10 -10z" />
    <glyph glyph-name="tcaron" unicode="&#x165;" horiz-adv-x="275" 
d="M242 494q-9 0 -9 10v166q0 10 10 10h81q10 0 10 -10v-69q0 -13 -9 -23l-70 -77q-6 -7 -13 -7zM242 -6h-34q-76 0 -110 33t-34 116v242q0 6 -6 6h-30q-10 0 -10 10v73q0 10 10 10h30q6 0 6 6v130q0 10 10 10h105q10 0 10 -10v-130q0 -6 6 -6h47q10 0 10 -10v-73
q0 -10 -10 -10h-47q-6 0 -6 -6v-237q0 -42 39 -42h14q10 0 10 -10v-92q0 -10 -10 -10z" />
    <glyph glyph-name="Tbar" unicode="&#x166;" horiz-adv-x="405" 
d="M258 0h-111q-10 0 -10 10v318q0 6 -6 6h-59q-10 0 -10 10v83q0 10 10 10h59q6 0 6 6v113q0 6 -6 6h-107q-10 0 -10 10v98q0 10 10 10h357q10 0 10 -10v-98q0 -10 -10 -10h-107q-6 0 -6 -6v-113q0 -6 6 -6h59q10 0 10 -10v-83q0 -10 -10 -10h-59q-6 0 -6 -6v-318
q0 -10 -10 -10z" />
    <glyph glyph-name="tbar" unicode="&#x167;" horiz-adv-x="275" 
d="M242 -6h-34q-76 0 -110 33t-34 116v98q0 6 -6 6h-23q-10 0 -10 10v63q0 10 10 10h23q6 0 6 6v49q0 6 -6 6h-30q-10 0 -10 10v73q0 10 10 10h30q6 0 6 6v130q0 10 10 10h105q10 0 10 -10v-130q0 -6 6 -6h47q10 0 10 -10v-73q0 -10 -10 -10h-47q-6 0 -6 -6v-49q0 -6 6 -6
h32q10 0 10 -10v-63q0 -10 -10 -10h-32q-6 0 -6 -6v-93q0 -42 39 -42h14q10 0 10 -10v-92q0 -10 -10 -10z" />
    <glyph glyph-name="Utilde" unicode="&#x168;" horiz-adv-x="455" 
d="M276 754q-26 0 -55 19q-26 17 -44 17q-26 0 -55 -29q-4 -4 -7.5 -2.5t-3.5 6.5v73q0 9 9 18q27 27 58 27q26 0 55 -19q27 -16 44 -16q28 0 54 28q4 4 8 2.5t4 -6.5v-73q0 -9 -9 -18q-27 -27 -58 -27zM227 -9q-86 0 -134.5 49.5t-48.5 143.5v486q0 10 10 10h111
q10 0 10 -10v-502q0 -27 13.5 -43t38.5 -16t39 16t14 43v502q0 10 10 10h111q10 0 10 -10v-486q0 -94 -48.5 -143.5t-135.5 -49.5z" />
    <glyph glyph-name="utilde" unicode="&#x169;" horiz-adv-x="417" 
d="M363 0h-105q-10 0 -10 10v37h-1q-29 -56 -94 -56q-57 0 -84.5 36t-27.5 113v334q0 10 10 10h105q10 0 10 -10v-314q0 -58 41 -58t41 58v314q0 10 10 10h105q10 0 10 -10v-464q0 -10 -10 -10zM258 558q-26 0 -55 19q-27 16 -44 16q-27 0 -55 -28q-4 -4 -7.5 -2.5t-3.5 6.5
v73q0 9 9 18q27 27 58 27q26 0 55 -19q27 -17 44 -17q27 0 54 29q4 4 8 2.5t4 -6.5v-73q0 -9 -9 -18q-27 -27 -58 -27z" />
    <glyph glyph-name="Umacron" unicode="&#x16a;" horiz-adv-x="455" 
d="M338 771h-223q-10 0 -10 10v74q0 10 10 10h223q10 0 10 -10v-74q0 -10 -10 -10zM227 -9q-86 0 -134.5 49.5t-48.5 143.5v486q0 10 10 10h111q10 0 10 -10v-502q0 -27 13.5 -43t38.5 -16t39 16t14 43v502q0 10 10 10h111q10 0 10 -10v-486q0 -94 -48.5 -143.5
t-135.5 -49.5z" />
    <glyph glyph-name="umacron" unicode="&#x16b;" horiz-adv-x="417" 
d="M363 0h-105q-10 0 -10 10v37h-1q-29 -56 -94 -56q-57 0 -84.5 36t-27.5 113v334q0 10 10 10h105q10 0 10 -10v-314q0 -58 41 -58t41 58v314q0 10 10 10h105q10 0 10 -10v-464q0 -10 -10 -10zM321 576h-223q-10 0 -10 10v74q0 10 10 10h223q10 0 10 -10v-74q0 -10 -10 -10
z" />
    <glyph glyph-name="Ubreve" unicode="&#x16c;" horiz-adv-x="455" 
d="M227 736q-61 0 -95.5 36.5t-37.5 92.5q0 10 11 10h53q9 0 12 -10q17 -46 57 -46t57 46q3 10 11 10h53q11 0 11 -10q-2 -56 -36.5 -92.5t-95.5 -36.5zM227 -9q-86 0 -134.5 49.5t-48.5 143.5v486q0 10 10 10h111q10 0 10 -10v-502q0 -27 13.5 -43t38.5 -16t39 16t14 43
v502q0 10 10 10h111q10 0 10 -10v-486q0 -94 -48.5 -143.5t-135.5 -49.5z" />
    <glyph glyph-name="ubreve" unicode="&#x16d;" horiz-adv-x="417" 
d="M363 0h-105q-10 0 -10 10v37h-1q-29 -56 -94 -56q-57 0 -84.5 36t-27.5 113v334q0 10 10 10h105q10 0 10 -10v-314q0 -58 41 -58t41 58v314q0 10 10 10h105q10 0 10 -10v-464q0 -10 -10 -10zM210 549q-61 0 -95.5 36t-37.5 92q0 10 11 10h53q9 0 12 -10q17 -45 57 -45
t57 45q3 10 11 10h53q11 0 11 -10q-2 -56 -36.5 -92t-95.5 -36z" />
    <glyph glyph-name="Uring" unicode="&#x16e;" horiz-adv-x="455" 
d="M227 -9q-86 0 -134.5 49.5t-48.5 143.5v486q0 10 10 10h111q10 0 10 -10v-502q0 -27 13.5 -43t38.5 -16t39 16t14 43v502q0 10 10 10h111q10 0 10 -10v-486q0 -94 -48.5 -143.5t-135.5 -49.5zM227 715q-41 0 -68.5 27.5t-27.5 68.5t27.5 68t68.5 27t68.5 -27t27.5 -68
t-27.5 -68.5t-68.5 -27.5zM227 765q19 0 31 13t12 33t-12 32.5t-31 12.5t-31.5 -13t-12.5 -32q0 -20 12.5 -33t31.5 -13z" />
    <glyph glyph-name="uring" unicode="&#x16f;" horiz-adv-x="417" 
d="M210 533q-41 0 -68.5 27.5t-27.5 68.5t27.5 68.5t68.5 27.5t68.5 -27.5t27.5 -68.5t-27.5 -68.5t-68.5 -27.5zM210 584q19 0 31 12.5t12 32.5t-12 32.5t-31 12.5t-31.5 -13t-12.5 -32t12.5 -32t31.5 -13zM363 0h-105q-10 0 -10 10v37h-1q-29 -56 -94 -56q-57 0 -84.5 36
t-27.5 113v334q0 10 10 10h105q10 0 10 -10v-314q0 -58 41 -58t41 58v314q0 10 10 10h105q10 0 10 -10v-464q0 -10 -10 -10z" />
    <glyph glyph-name="Uhungarumlaut" unicode="&#x170;" horiz-adv-x="455" 
d="M227 -9q-86 0 -134.5 49.5t-48.5 143.5v486q0 10 10 10h111q10 0 10 -10v-502q0 -27 13.5 -43t38.5 -16t39 16t14 43v502q0 10 10 10h111q10 0 10 -10v-486q0 -94 -48.5 -143.5t-135.5 -49.5zM328 755h-64q-11 0 -6 10l71 112q7 10 17 10h82q4 0 5.5 -3t-1.5 -7l-85 -112
q-9 -10 -19 -10zM184 755h-64q-12 0 -5 10l70 112q7 10 17 10h83q5 0 6 -3t-2 -7l-86 -112q-9 -10 -19 -10z" />
    <glyph glyph-name="uhungarumlaut" unicode="&#x171;" horiz-adv-x="417" 
d="M363 0h-105q-10 0 -10 10v37h-1q-29 -56 -94 -56q-57 0 -84.5 36t-27.5 113v334q0 10 10 10h105q10 0 10 -10v-314q0 -58 41 -58t41 58v314q0 10 10 10h105q10 0 10 -10v-464q0 -10 -10 -10zM307 550h-65q-11 0 -6 10l62 130q4 10 16 10h83q11 0 5 -10l-77 -130
q-6 -10 -18 -10zM163 550h-64q-11 0 -6 10l62 130q4 10 16 10h83q11 0 5 -10l-78 -130q-6 -10 -18 -10z" />
    <glyph glyph-name="Uogonek" unicode="&#x172;" horiz-adv-x="455" 
d="M233 -191q-44 0 -69.5 23t-25.5 64q0 47 41 99q-64 12 -99.5 60t-35.5 129v486q0 10 10 10h111q10 0 10 -10v-502q0 -27 13.5 -43t38.5 -16t39 16t14 43v502q0 10 10 10h111q10 0 10 -10v-486q0 -78 -33.5 -125.5t-93.5 -61.5q-51 -50 -51 -79q0 -23 19 -23q10 0 17 4
q8 5 12 -4l23 -55q3 -8 -5 -13q-27 -18 -66 -18z" />
    <glyph glyph-name="uogonek" unicode="&#x173;" horiz-adv-x="417" 
d="M299 -191q-44 0 -70 23t-26 64q0 54 53 104q-8 2 -8 10v37h-1q-29 -56 -94 -56q-57 0 -84.5 36t-27.5 113v334q0 10 10 10h105q10 0 10 -10v-314q0 -58 41 -58t41 58v314q0 10 10 10h105q10 0 10 -10v-464q0 -7 -7 -11q-31 -16 -49 -39t-18 -42q0 -23 18 -23q10 0 17 4
q9 6 13 -4l23 -55q3 -8 -5 -13q-27 -18 -66 -18z" />
    <glyph glyph-name="Wcircumflex" unicode="&#x174;" horiz-adv-x="611" 
d="M477 0h-98q-8 0 -10 10l-61 403h-2l-63 -403q-2 -10 -11 -10h-97q-9 0 -11 10l-110 660q-2 10 9 10h113q10 0 11 -10l45 -419h2l63 419q1 10 11 10h75q9 0 12 -10l63 -419h3l46 419q1 10 11 10h111q11 0 8 -10l-109 -660q-3 -10 -11 -10zM442 746h-70q-10 0 -19 10
l-47 57h-2l-47 -57q-9 -10 -19 -10h-70q-4 0 -5.5 3t1.5 7l90 130q7 10 17 10h67q10 0 17 -10l91 -130q3 -4 1.5 -7t-5.5 -3z" />
    <glyph glyph-name="wcircumflex" unicode="&#x175;" horiz-adv-x="565" 
d="M419 550h-70q-10 0 -19 10l-47 58h-2l-47 -58q-9 -10 -19 -10h-70q-5 0 -6 3t2 7l90 131q7 10 17 10h67q10 0 17 -10l91 -131q3 -4 2 -7t-6 -3zM430 0h-89q-11 0 -12 10l-46 258h-2l-44 -258q-1 -10 -12 -10h-89q-9 0 -12 10l-110 464q-3 10 7 10h104q9 0 11 -10l49 -281
h1l50 281q2 10 11 10h73q9 0 11 -10l48 -281h1l50 281q2 10 11 10h103q10 0 7 -10l-109 -464q-3 -10 -12 -10z" />
    <glyph glyph-name="Ycircumflex" unicode="&#x176;" horiz-adv-x="411" 
d="M261 0h-111q-10 0 -10 10v260l-132 400q-3 10 8 10h111q11 0 12 -10l67 -249h4l64 249q3 10 12 10h109q11 0 8 -10l-132 -400v-260q0 -10 -10 -10zM343 746h-70q-10 0 -19 10l-47 57h-2l-47 -57q-9 -10 -19 -10h-70q-5 0 -6 3t2 7l90 130q7 10 17 10h67q10 0 17 -10
l91 -130q3 -4 2 -7t-6 -3z" />
    <glyph glyph-name="ycircumflex" unicode="&#x177;" horiz-adv-x="387" 
d="M76 -180h-14q-10 0 -10 10v92q0 10 10 10l14 1q24 1 36 11.5t19 37.5l8 35l-124 457q-3 10 7 10h105q9 0 11 -10l56 -276h1l57 276q2 10 12 10h100q10 0 7 -10l-128 -494q-25 -95 -60 -127.5t-107 -32.5zM331 550h-70q-10 0 -19 10l-47 58h-2l-47 -58q-9 -10 -19 -10h-70
q-5 0 -6 3t2 7l90 131q7 10 17 10h67q10 0 17 -10l91 -131q3 -4 2 -7t-6 -3z" />
    <glyph glyph-name="Ydieresis" unicode="&#x178;" horiz-adv-x="411" 
d="M261 0h-111q-10 0 -10 10v260l-132 400q-3 10 8 10h111q11 0 12 -10l67 -249h4l64 249q3 10 12 10h109q11 0 8 -10l-132 -400v-260q0 -10 -10 -10zM323 760h-77q-10 0 -10 10v98q0 10 10 10h77q10 0 10 -10v-98q0 -10 -10 -10zM165 760h-77q-10 0 -10 10v98q0 10 10 10
h77q10 0 10 -10v-98q0 -10 -10 -10z" />
    <glyph glyph-name="Zacute" unicode="&#x179;" horiz-adv-x="382" 
d="M341 0h-300q-10 0 -10 10v94q0 1 3 10l178 446v2h-161q-10 0 -10 10v98q0 10 10 10h290q10 0 10 -10v-95q0 -4 -2 -10l-178 -445v-2h170q10 0 10 -10v-98q0 -10 -10 -10zM224 755h-74q-5 0 -6.5 3t1.5 7l82 114q7 10 16 10h100q5 0 6.5 -3t-1.5 -7l-104 -114
q-10 -10 -20 -10z" />
    <glyph glyph-name="zacute" unicode="&#x17a;" horiz-adv-x="342" 
d="M206 551h-75q-11 0 -6 10l72 130q6 10 16 10h100q5 0 6.5 -3t-1.5 -7l-94 -130q-8 -10 -18 -10zM305 0h-267q-10 0 -10 10v85q0 6 3 12l146 269v2h-129q-10 0 -10 10v86q0 10 10 10h257q10 0 10 -10v-76q0 -7 -3 -13l-149 -275v-2h142q10 0 10 -10v-88q0 -10 -10 -10z
" />
    <glyph glyph-name="Zdotaccent" unicode="&#x17b;" horiz-adv-x="382" 
d="M245 760h-105q-10 0 -10 10v98q0 10 10 10h105q10 0 10 -10v-98q0 -10 -10 -10zM341 0h-300q-10 0 -10 10v94q0 1 3 10l178 446v2h-161q-10 0 -10 10v98q0 10 10 10h290q10 0 10 -10v-95q0 -4 -2 -10l-178 -445v-2h170q10 0 10 -10v-98q0 -10 -10 -10z" />
    <glyph glyph-name="zdotaccent" unicode="&#x17c;" horiz-adv-x="342" 
d="M305 0h-267q-10 0 -10 10v85q0 6 3 12l146 269v2h-129q-10 0 -10 10v86q0 10 10 10h257q10 0 10 -10v-76q0 -7 -3 -13l-149 -275v-2h142q10 0 10 -10v-88q0 -10 -10 -10zM225 562h-105q-10 0 -10 10v98q0 10 10 10h105q10 0 10 -10v-98q0 -10 -10 -10z" />
    <glyph glyph-name="Zcaron" unicode="&#x17d;" horiz-adv-x="382" 
d="M226 741h-67q-10 0 -17 10l-90 130q-3 4 -1.5 7t5.5 3h70q10 0 19 -10l47 -57h2l47 57q9 10 19 10h70q4 0 5.5 -3t-1.5 -7l-91 -130q-7 -10 -17 -10zM341 0h-300q-10 0 -10 10v94q0 1 3 10l178 446v2h-161q-10 0 -10 10v98q0 10 10 10h290q10 0 10 -10v-95q0 -4 -2 -10
l-178 -445v-2h170q10 0 10 -10v-98q0 -10 -10 -10z" />
    <glyph glyph-name="zcaron" unicode="&#x17e;" horiz-adv-x="342" 
d="M206 549h-67q-10 0 -17 10l-90 130q-3 4 -1.5 7t5.5 3h70q10 0 19 -10l47 -57h2l47 57q9 10 19 10h70q4 0 5.5 -3t-1.5 -7l-91 -130q-7 -10 -17 -10zM305 0h-267q-10 0 -10 10v85q0 6 3 12l146 269v2h-129q-10 0 -10 10v86q0 10 10 10h257q10 0 10 -10v-76q0 -7 -3 -13
l-149 -275v-2h142q10 0 10 -10v-88q0 -10 -10 -10z" />
    <glyph glyph-name="florin" unicode="&#x192;" 
d="M352 317h-77l-45 -333q-11 -85 -53.5 -124.5t-126.5 -39.5h-24q-10 0 -10 10v89q0 10 10 10h14q31 0 46 12.5t19 43.5l45 332h-62q-10 0 -10 10v76q0 10 10 10h75l14 103q11 85 53.5 124.5t126.5 39.5h25q10 0 10 -10v-89q0 -10 -10 -10h-15q-31 0 -46 -12.5t-19 -43.5
l-14 -102h64q10 0 10 -10v-76q0 -10 -10 -10z" />
    <glyph glyph-name="Aringacute" unicode="&#x1fa;" horiz-adv-x="452" 
d="M258 771h-76q-4 0 -5.5 3t1.5 7l79 98q9 10 20 10h97q5 0 6.5 -3t-1.5 -7l-101 -98q-10 -10 -20 -10zM435 0h-111q-9 0 -11 10l-22 123h-129l-23 -123q-2 -10 -11 -10h-111q-10 0 -8 10l128 571q3 10 11 10h3q-20 25 -20 60q0 41 27.5 68.5t68.5 27.5t68.5 -27.5
t27.5 -68.5q0 -33 -20 -60h3q9 0 11 -10l126 -571q2 -10 -8 -10zM227 606q19 0 31 12.5t12 32.5t-12 33t-31 13t-31 -13t-12 -33t12 -32.5t31 -12.5zM226 473l-45 -236h91l-43 236h-3z" />
    <glyph glyph-name="aringacute" unicode="&#x1fb;" horiz-adv-x="393" 
d="M231 771h-76q-5 0 -6 3t2 7l79 98q9 10 20 10h97q5 0 6.5 -3t-1.5 -7l-101 -98q-10 -10 -20 -10zM344 0h-100q-10 0 -10 10v33h-1q-9 -24 -33 -38t-57 -14q-48 0 -81.5 34.5t-33.5 110.5q0 82 43 118.5t109 36.5h48q6 0 6 6v24q0 35 -13.5 50t-48.5 15q-41 0 -80 -27
q-10 -7 -15 4l-32 76q-4 8 4 14q54 40 141 40q89 0 126.5 -40t37.5 -129v-314q0 -10 -10 -10zM185 88q23 0 36 15.5t13 42.5v50q0 6 -6 6h-27q-58 0 -58 -59q0 -55 42 -55zM198 533q-41 0 -68.5 27.5t-27.5 68.5t27.5 68.5t68.5 27.5t68.5 -27.5t27.5 -68.5t-27.5 -68.5
t-68.5 -27.5zM198 584q19 0 31 12.5t12 32.5t-12 32.5t-31 12.5t-31.5 -13t-12.5 -32t12.5 -32t31.5 -13z" />
    <glyph glyph-name="AEacute" unicode="&#x1fc;" horiz-adv-x="675" 
d="M391 755h-74q-5 0 -6.5 3t1.5 7l82 114q7 10 16 10h100q5 0 6.5 -3t-1.5 -7l-104 -114q-10 -10 -20 -10zM638 0h-297q-10 0 -10 10v117q0 6 -6 6h-144l-42 -123q-3 -10 -13 -10h-110q-10 0 -7 10l235 660q3 10 11 10h383q10 0 10 -10v-98q0 -10 -10 -10h-170q-6 0 -6 -6
v-148q0 -6 6 -6h147q10 0 10 -10v-98q0 -10 -10 -10h-147q-6 0 -6 -6v-154q0 -6 6 -6h170q10 0 10 -10v-98q0 -10 -10 -10zM327 562l-111 -325h109q6 0 6 6v319h-4z" />
    <glyph glyph-name="aeacute" unicode="&#x1fd;" horiz-adv-x="594" 
d="M337 551h-75q-11 0 -6 10l72 130q6 10 16 10h100q5 0 6.5 -3t-1.5 -7l-94 -130q-7 -10 -18 -10zM397 -9q-86 0 -127 55h-1q-25 -31 -52 -43t-67 -12q-52 0 -87 35t-35 110q0 82 43 118.5t109 36.5h48q6 0 6 6v24q0 35 -13.5 50t-48.5 15q-41 0 -80 -27q-10 -7 -15 4
l-32 76q-4 8 4 14q54 40 141 40q74 0 109 -28h2q35 28 97 28q122 0 155 -102q12 -39 12 -179q0 -10 -10 -10h-193q-6 0 -6 -6q0 -54 5 -69q9 -28 39 -28q33 0 45 38q3 9 12 7l95 -19q9 -1 7 -12q-10 -57 -54 -89.5t-108 -32.5zM400 390q-29 0 -39 -26q-5 -17 -5 -67
q0 -6 6 -6h76q6 0 6 6q0 50 -5 67q-10 26 -39 26zM185 88q23 0 36 15.5t13 42.5v50q0 6 -6 6h-27q-58 0 -58 -59q0 -55 42 -55z" />
    <glyph glyph-name="Oslashacute" unicode="&#x1fe;" horiz-adv-x="448" 
d="M224 -9q-74 0 -118 34l-21 -46q-5 -9 -15 -9h-41q-11 0 -6 10l43 90q-10 15 -16 36q-9 24 -11.5 65.5t-2.5 168.5t2.5 168.5t11.5 65.5q38 115 174 115q71 0 117 -34l22 46q5 9 14 9h42q11 0 6 -10l-44 -90q8 -13 17 -36q9 -24 11.5 -65.5t2.5 -168.5t-2.5 -168.5
t-11.5 -65.5q-38 -115 -174 -115zM168 340v-61l108 249q-2 19 -17 31.5t-35 12.5q-39 0 -50 -35q-6 -19 -6 -197zM224 108q18 0 31.5 9.5t18.5 23.5q6 19 6 199v56l-108 -248q3 -18 18 -29t34 -11zM254 755h-74q-5 0 -6.5 3t1.5 7l82 114q7 10 16 10h100q5 0 6.5 -3t-1.5 -7
l-104 -114q-10 -10 -20 -10z" />
    <glyph glyph-name="oslashacute" unicode="&#x1ff;" horiz-adv-x="400" 
d="M70 -30h-35q-11 0 -6 10l38 69q-15 19 -24 48q-12 35 -12 145t12 145q34 106 157 106q55 0 96 -25l20 36q5 10 14 10h35q11 0 6 -10l-38 -70q15 -19 24 -47q12 -35 12 -145t-12 -145q-34 -106 -157 -106q-58 0 -97 24l-19 -35q-5 -10 -14 -10zM155 242v-36l81 159
q-11 19 -36 19q-31 0 -40 -28q-5 -14 -5 -114zM200 100q32 0 40 29q5 13 5 113v34l-81 -157q11 -19 36 -19zM224 551h-75q-11 0 -6 10l72 130q6 10 16 10h100q5 0 6.5 -3t-1.5 -7l-94 -130q-8 -10 -18 -10z" />
    <glyph glyph-name="Scommaaccent" unicode="&#x218;" horiz-adv-x="423" 
d="M169 -231q-9 0 -9 10v158q0 10 10 10h84q10 0 10 -10v-61q0 -14 -8 -23l-74 -78q-6 -6 -13 -6zM398 202q0 -107 -44.5 -159t-143.5 -52q-181 0 -184 182q0 10 8 11l107 17q11 2 11 -8q1 -47 15.5 -67.5t43.5 -20.5t41.5 18t12.5 63t-12.5 65.5t-50.5 35.5l-41 16
q-72 28 -100.5 71.5t-28.5 125.5q0 189 180 189q172 0 180 -169q0 -10 -9 -11l-102 -16q-11 -2 -11 8q-2 74 -54 74t-52 -68q0 -38 12 -55t52 -33l41 -16q71 -27 100 -71.5t29 -129.5z" />
    <glyph glyph-name="scommaaccent" unicode="&#x219;" horiz-adv-x="364" 
d="M140 -231q-9 0 -9 10v158q0 10 10 10h84q10 0 10 -10v-61q0 -14 -8 -23l-74 -78q-6 -6 -13 -6zM182 -9q-72 0 -114 34t-47 93q-2 9 8 11l92 17q10 2 12 -8q6 -49 49 -49q20 0 32 12t12 32t-10 31.5t-35 21.5l-39 14q-113 39 -113 147q0 65 41.5 105.5t113.5 40.5
q66 0 105 -32t45 -82q2 -11 -6 -13l-87 -16q-9 -2 -11 8q-10 38 -45 38q-18 0 -28.5 -11t-10.5 -29q0 -30 46 -47l39 -14q61 -21 87 -57t26 -94q0 -69 -43 -111t-119 -42z" />
    <glyph glyph-name="uni021A" unicode="&#x21a;" horiz-adv-x="405" 
d="M161 -231q-9 0 -9 10v158q0 10 10 10h84q10 0 10 -10v-61q0 -14 -8 -23l-74 -78q-6 -6 -13 -6zM258 0h-111q-10 0 -10 10v546q0 6 -6 6h-107q-10 0 -10 10v98q0 10 10 10h357q10 0 10 -10v-98q0 -10 -10 -10h-107q-6 0 -6 -6v-546q0 -10 -10 -10z" />
    <glyph glyph-name="uni021B" unicode="&#x21b;" horiz-adv-x="275" 
d="M116 -231q-9 0 -9 10v158q0 10 10 10h84q10 0 10 -10v-61q0 -14 -8 -23l-74 -78q-6 -6 -13 -6zM242 -6h-34q-76 0 -110 33t-34 116v242q0 6 -6 6h-30q-10 0 -10 10v73q0 10 10 10h30q6 0 6 6v130q0 10 10 10h105q10 0 10 -10v-130q0 -6 6 -6h47q10 0 10 -10v-73
q0 -10 -10 -10h-47q-6 0 -6 -6v-237q0 -42 39 -42h14q10 0 10 -10v-92q0 -10 -10 -10z" />
    <glyph glyph-name="dotlessj" unicode="&#x237;" horiz-adv-x="213" 
d="M6 -180h-17q-10 0 -10 10v92q0 10 10 10l14 1q22 2 31.5 14t9.5 42v485q0 10 10 10h105q10 0 10 -10v-486q0 -168 -163 -168z" />
    <glyph glyph-name="circumflex" unicode="&#x2c6;" horiz-adv-x="429" 
d="M352 550h-70q-10 0 -19 10l-47 58h-2l-47 -58q-9 -10 -19 -10h-70q-4 0 -5.5 3t1.5 7l90 131q7 10 17 10h67q10 0 17 -10l91 -131q3 -4 1.5 -7t-5.5 -3z" />
    <glyph glyph-name="caron" unicode="&#x2c7;" horiz-adv-x="429" 
d="M248 549h-67q-10 0 -17 10l-90 130q-3 4 -1.5 7t5.5 3h70q10 0 19 -10l47 -57h2l47 57q9 10 19 10h70q4 0 5.5 -3t-1.5 -7l-91 -130q-7 -10 -17 -10z" />
    <glyph glyph-name="uni02C9" unicode="&#x2c9;" horiz-adv-x="429" 
d="M326 771h-223q-10 0 -10 10v74q0 10 10 10h223q10 0 10 -10v-74q0 -10 -10 -10z" />
    <glyph glyph-name="breve" unicode="&#x2d8;" horiz-adv-x="429" 
d="M215 549q-61 0 -95.5 36t-37.5 92q0 10 11 10h53q9 0 12 -10q17 -45 57 -45t57 45q3 10 11 10h53q11 0 11 -10q-2 -56 -36.5 -92t-95.5 -36z" />
    <glyph glyph-name="dotaccent" unicode="&#x2d9;" horiz-adv-x="429" 
d="M267 562h-105q-10 0 -10 10v98q0 10 10 10h105q10 0 10 -10v-98q0 -10 -10 -10z" />
    <glyph glyph-name="ring" unicode="&#x2da;" horiz-adv-x="429" 
d="M215 533q-41 0 -68.5 27.5t-27.5 68.5t27.5 68.5t68.5 27.5t68.5 -27.5t27.5 -68.5t-27.5 -68.5t-68.5 -27.5zM215 584q19 0 31 12.5t12 32.5t-12 32.5t-31 12.5t-31.5 -13t-12.5 -32t12.5 -32t31.5 -13z" />
    <glyph glyph-name="ogonek" unicode="&#x2db;" horiz-adv-x="429" 
d="M243 -191q-44 0 -70 23t-26 64q0 54 54 104q10 10 18 10h91q5 0 6 -4t-4 -6q-32 -18 -50.5 -40.5t-18.5 -41.5q0 -23 19 -23q10 0 17 4q8 5 12 -4l23 -55q3 -8 -5 -13q-27 -18 -66 -18z" />
    <glyph glyph-name="tilde" unicode="&#x2dc;" horiz-adv-x="429" 
d="M263 558q-26 0 -55 19q-27 16 -44 16q-27 0 -55 -28q-4 -4 -7.5 -2.5t-3.5 6.5v73q0 9 9 18q27 27 58 27q26 0 55 -19q27 -17 44 -17q27 0 54 29q4 4 8 2.5t4 -6.5v-73q0 -9 -9 -18q-27 -27 -58 -27z" />
    <glyph glyph-name="hungarumlaut" unicode="&#x2dd;" horiz-adv-x="429" 
d="M296 550h-65q-11 0 -6 10l62 130q4 10 16 10h83q11 0 5 -10l-77 -130q-6 -10 -18 -10zM152 550h-64q-11 0 -6 10l62 130q4 10 16 10h83q11 0 5 -10l-78 -130q-6 -10 -18 -10z" />
    <glyph glyph-name="Delta" unicode="&#x394;" horiz-adv-x="452" 
d="M435 0h-418q-10 0 -8 10l148 660q3 10 11 10h118q9 0 11 -10l146 -660q2 -10 -8 -10zM287 118q7 0 5 6l-63 349h-3l-66 -349q-2 -6 5 -6h122z" />
    <glyph glyph-name="Delta" unicode="&#x2206;" horiz-adv-x="452" 
d="M435 0h-418q-10 0 -8 10l148 660q3 10 11 10h118q9 0 11 -10l146 -660q2 -10 -8 -10zM287 118q7 0 5 6l-63 349h-3l-66 -349q-2 -6 5 -6h122z" />
    <glyph glyph-name="Omega" unicode="&#x3a9;" horiz-adv-x="450" 
d="M411 0h-152q-10 0 -10 10v89q0 9 9 16q16 14 19.5 49.5t3.5 186.5q0 167 -6 186q-12 34 -50 34t-50 -34q-6 -19 -6 -186q0 -151 3.5 -186.5t19.5 -49.5q9 -7 9 -16v-89q0 -10 -10 -10h-152q-10 0 -10 10v95q0 10 10 10h39v2q-25 23 -34 65t-9 167q0 120 2.5 159.5
t11.5 64.5q38 116 176 116t176 -116q9 -25 11.5 -64.5t2.5 -159.5q0 -125 -9 -167t-34 -65v-2h39q10 0 10 -10v-95q0 -10 -10 -10z" />
    <glyph glyph-name="Omega" unicode="&#x2126;" horiz-adv-x="450" 
d="M411 0h-152q-10 0 -10 10v89q0 9 9 16q16 14 19.5 49.5t3.5 186.5q0 167 -6 186q-12 34 -50 34t-50 -34q-6 -19 -6 -186q0 -151 3.5 -186.5t19.5 -49.5q9 -7 9 -16v-89q0 -10 -10 -10h-152q-10 0 -10 10v95q0 10 10 10h39v2q-25 23 -34 65t-9 167q0 120 2.5 159.5
t11.5 64.5q38 116 176 116t176 -116q9 -25 11.5 -64.5t2.5 -159.5q0 -125 -9 -167t-34 -65v-2h39q10 0 10 -10v-95q0 -10 -10 -10z" />
    <glyph glyph-name="pi" unicode="&#x3c0;" horiz-adv-x="460" 
d="M421 -6h-18q-72 0 -104 33t-32 111v229q0 6 -6 6h-61q-6 0 -6 -6v-357q0 -10 -10 -10h-105q-10 0 -10 10v357q0 6 -6 6h-36q-10 0 -10 10v91q0 10 10 10h404q10 0 10 -10v-91q0 -10 -10 -10h-35q-6 0 -6 -6v-229q0 -20 6 -27t21 -7h4q10 0 10 -10v-90q0 -10 -10 -10z" />
    <glyph glyph-name="Wgrave" unicode="&#x1e80;" horiz-adv-x="611" 
d="M339 755h-74q-9 0 -19 10l-104 114q-3 4 -1.5 7t6.5 3h100q9 0 16 -10l82 -114q3 -4 1 -7t-7 -3zM477 0h-98q-8 0 -10 10l-61 403h-2l-63 -403q-2 -10 -11 -10h-97q-9 0 -11 10l-110 660q-2 10 9 10h113q10 0 11 -10l45 -419h2l63 419q1 10 11 10h75q9 0 12 -10l63 -419
h3l46 419q1 10 11 10h111q11 0 8 -10l-109 -660q-3 -10 -11 -10z" />
    <glyph glyph-name="wgrave" unicode="&#x1e81;" horiz-adv-x="565" 
d="M430 0h-89q-11 0 -12 10l-46 258h-2l-44 -258q-1 -10 -12 -10h-89q-9 0 -12 10l-110 464q-3 10 7 10h104q9 0 11 -10l49 -281h1l50 281q2 10 11 10h73q9 0 11 -10l48 -281h1l50 281q2 10 11 10h103q10 0 7 -10l-109 -464q-3 -10 -12 -10zM322 551h-75q-11 0 -18 10
l-93 130q-3 4 -1.5 7t6.5 3h100q10 0 16 -10l71 -130q5 -10 -6 -10z" />
    <glyph glyph-name="Wacute" unicode="&#x1e82;" horiz-adv-x="611" 
d="M344 755h-74q-5 0 -6.5 3t1.5 7l82 114q7 10 16 10h100q5 0 6.5 -3t-1.5 -7l-104 -114q-10 -10 -20 -10zM477 0h-98q-8 0 -10 10l-61 403h-2l-63 -403q-2 -10 -11 -10h-97q-9 0 -11 10l-110 660q-2 10 9 10h113q10 0 11 -10l45 -419h2l63 419q1 10 11 10h75q9 0 12 -10
l63 -419h3l46 419q1 10 11 10h111q11 0 8 -10l-109 -660q-3 -10 -11 -10z" />
    <glyph glyph-name="wacute" unicode="&#x1e83;" horiz-adv-x="565" 
d="M321 551h-75q-11 0 -6 10l72 130q6 10 16 10h100q5 0 6.5 -3t-1.5 -7l-94 -130q-7 -10 -18 -10zM430 0h-89q-11 0 -12 10l-46 258h-2l-44 -258q-1 -10 -12 -10h-89q-9 0 -12 10l-110 464q-3 10 7 10h104q9 0 11 -10l49 -281h1l50 281q2 10 11 10h73q9 0 11 -10l48 -281h1
l50 281q2 10 11 10h103q10 0 7 -10l-109 -464q-3 -10 -12 -10z" />
    <glyph glyph-name="Wdieresis" unicode="&#x1e84;" horiz-adv-x="611" 
d="M422 760h-77q-10 0 -10 10v98q0 10 10 10h77q10 0 10 -10v-98q0 -10 -10 -10zM264 760h-77q-10 0 -10 10v98q0 10 10 10h77q10 0 10 -10v-98q0 -10 -10 -10zM477 0h-98q-8 0 -10 10l-61 403h-2l-63 -403q-2 -10 -11 -10h-97q-9 0 -11 10l-110 660q-2 10 9 10h113
q10 0 11 -10l45 -419h2l63 419q1 10 11 10h75q9 0 12 -10l63 -419h3l46 419q1 10 11 10h111q11 0 8 -10l-109 -660q-3 -10 -11 -10z" />
    <glyph glyph-name="wdieresis" unicode="&#x1e85;" horiz-adv-x="565" 
d="M399 562h-77q-10 0 -10 10v98q0 10 10 10h77q10 0 10 -10v-98q0 -10 -10 -10zM241 562h-77q-10 0 -10 10v98q0 10 10 10h77q10 0 10 -10v-98q0 -10 -10 -10zM430 0h-89q-11 0 -12 10l-46 258h-2l-44 -258q-1 -10 -12 -10h-89q-9 0 -12 10l-110 464q-3 10 7 10h104
q9 0 11 -10l49 -281h1l50 281q2 10 11 10h73q9 0 11 -10l48 -281h1l50 281q2 10 11 10h103q10 0 7 -10l-109 -464q-3 -10 -12 -10z" />
    <glyph glyph-name="Ygrave" unicode="&#x1ef2;" horiz-adv-x="411" 
d="M261 0h-111q-10 0 -10 10v260l-132 400q-3 10 8 10h111q11 0 12 -10l67 -249h4l64 249q3 10 12 10h109q11 0 8 -10l-132 -400v-260q0 -10 -10 -10zM252 755h-74q-9 0 -19 10l-104 114q-3 4 -1.5 7t6.5 3h100q9 0 16 -10l82 -114q3 -4 1 -7t-7 -3z" />
    <glyph glyph-name="ygrave" unicode="&#x1ef3;" horiz-adv-x="387" 
d="M76 -180h-14q-10 0 -10 10v92q0 10 10 10l14 1q24 1 36 11.5t19 37.5l8 35l-124 457q-3 10 7 10h105q9 0 11 -10l56 -276h1l57 276q2 10 12 10h100q10 0 7 -10l-128 -494q-25 -95 -60 -127.5t-107 -32.5zM242 551h-75q-11 0 -18 10l-93 130q-3 4 -1.5 7t6.5 3h100
q10 0 16 -10l71 -130q5 -10 -6 -10z" />
    <glyph glyph-name="endash" unicode="&#x2013;" horiz-adv-x="425" 
d="M401 216h-377q-10 0 -10 10v79q0 10 10 10h377q10 0 10 -10v-79q0 -10 -10 -10z" />
    <glyph glyph-name="emdash" unicode="&#x2014;" horiz-adv-x="616" 
d="M592 216h-568q-10 0 -10 10v79q0 10 10 10h568q10 0 10 -10v-79q0 -10 -10 -10z" />
    <glyph glyph-name="quoteleft" unicode="&#x2018;" horiz-adv-x="180" 
d="M132 477h-84q-10 0 -10 10v84q0 15 8 24l74 80q6 6 12 6q10 0 10 -10v-184q0 -10 -10 -10z" />
    <glyph glyph-name="quoteright" unicode="&#x2019;" horiz-adv-x="180" 
d="M47 476q-9 0 -9 10v184q0 10 10 10h84q10 0 10 -10v-84q0 -15 -9 -24l-74 -79q-4 -7 -12 -7z" />
    <glyph glyph-name="quotesinglbase" unicode="&#x201a;" horiz-adv-x="180" 
d="M48 108h84q10 0 10 -10v-84q0 -15 -8 -24l-74 -80q-6 -6 -12 -6q-10 0 -10 10v184q0 10 10 10z" />
    <glyph glyph-name="quotedblleft" unicode="&#x201c;" horiz-adv-x="320" 
d="M272 477h-84q-10 0 -10 10v84q0 15 8 24l74 80q6 6 12 6q10 0 10 -10v-184q0 -10 -10 -10zM132 477h-84q-10 0 -10 10v84q0 15 8 24l74 80q6 6 12 6q10 0 10 -10v-184q0 -10 -10 -10z" />
    <glyph glyph-name="quotedblright" unicode="&#x201d;" horiz-adv-x="320" 
d="M188 680h84q10 0 10 -10v-84q0 -15 -8 -24l-74 -80q-6 -6 -12 -6q-10 0 -10 10v184q0 10 10 10zM48 680h84q10 0 10 -10v-84q0 -15 -8 -24l-74 -80q-6 -6 -12 -6q-10 0 -10 10v184q0 10 10 10z" />
    <glyph glyph-name="quotedblbase" unicode="&#x201e;" horiz-adv-x="320" 
d="M188 108h84q10 0 10 -10v-84q0 -15 -8 -24l-74 -80q-6 -6 -12 -6q-10 0 -10 10v184q0 10 10 10zM48 108h84q10 0 10 -10v-84q0 -15 -8 -24l-74 -80q-6 -6 -12 -6q-10 0 -10 10v184q0 10 10 10z" />
    <glyph glyph-name="dagger" unicode="&#x2020;" horiz-adv-x="518" 
d="M310 -180h-102q-10 0 -10 10v511q0 6 -6 6h-114q-10 0 -10 10v92q0 10 10 10h114q6 0 6 6v205q0 10 10 10h102q10 0 10 -10v-205q0 -6 6 -6h114q10 0 10 -10v-92q0 -10 -10 -10h-114q-6 0 -6 -6v-511q0 -10 -10 -10z" />
    <glyph glyph-name="daggerdbl" unicode="&#x2021;" horiz-adv-x="518" 
d="M310 -180h-102q-10 0 -10 10v178q0 6 -6 6h-114q-10 0 -10 10v92q0 10 10 10h114q6 0 6 6v236q0 6 -6 6h-114q-10 0 -10 10v92q0 10 10 10h114q6 0 6 6v178q0 10 10 10h102q10 0 10 -10v-178q0 -6 6 -6h114q10 0 10 -10v-92q0 -10 -10 -10h-114q-6 0 -6 -6v-236
q0 -6 6 -6h114q10 0 10 -10v-92q0 -10 -10 -10h-114q-6 0 -6 -6v-178q0 -10 -10 -10z" />
    <glyph glyph-name="bullet" unicode="&#x2022;" horiz-adv-x="438" 
d="M219 168q-60 0 -100 40t-40 100t40 100t100 40t100 -40t40 -100t-40 -100t-100 -40z" />
    <glyph glyph-name="ellipsis" unicode="&#x2026;" horiz-adv-x="624" 
d="M571 0h-102q-10 0 -10 10v116q0 10 10 10h102q10 0 10 -10v-116q0 -10 -10 -10zM363 0h-102q-10 0 -10 10v116q0 10 10 10h102q10 0 10 -10v-116q0 -10 -10 -10zM155 0h-102q-10 0 -10 10v116q0 10 10 10h102q10 0 10 -10v-116q0 -10 -10 -10z" />
    <glyph glyph-name="perthousand" unicode="&#x2030;" horiz-adv-x="978" 
d="M257 -9h-67q-10 0 -7 10l253 678q4 10 14 10h67q10 0 7 -10l-254 -678q-3 -10 -13 -10zM169 329q-81 0 -102 66q-9 26 -9 113q0 86 9 112q21 67 102 67q82 0 103 -67q8 -23 8 -112q0 -90 -8 -113q-21 -66 -103 -66zM169 402q17 0 22 14q3 9 3 92q0 82 -3 91q-5 15 -22 15
t-22 -15q-3 -9 -3 -91q0 -83 3 -92q5 -14 22 -14zM809 -7h-8q-19 2 -29 5q-3 0 -7 2q-2 0 -6 2q-6 2 -9 4l-5 3l-3 2l-9 7q-4 3 -7 7l-4 5l-3 4q-1 1 -2.5 4t-2.5 4q-3 6 -7 18q-7 16 -8 48v20v44v44q0 23 2 43v4l2 8q2 8 4 14q4 12 12 25l3 5l2 2l4 5q5 5 17 13l11 6
q17 6 19 6l14 3q6 1 20 1h8q1 0 3.5 -0.5t4.5 -0.5q17 -2 25 -5q2 0 6 -2l6 -2l3 -2l6 -3q12 -6 25 -21l4 -5q2 -2 7 -13l3 -6l2 -6l4 -14l2 -12v-4q1 -5 1 -18q0 -3 0.5 -10t0.5 -11v-44v-44q0 -20 -2 -38v-4l-3 -17l-3 -9q-2 -6 -8 -18l-4 -8l-4 -4q-2 -4 -4 -5l-6 -7
q-1 0 -3 -2l-15 -10q-12 -6 -18 -7q-1 -1 -4 -1l-7 -2q-3 0 -11 -2q-6 -1 -19 -1zM537 -7q-81 0 -102 67q-9 26 -9 112q0 87 9 113q21 66 102 66q82 0 103 -66q8 -23 8 -113q0 -89 -8 -112q-21 -67 -103 -67zM809 66h4q7 0 12 5l3 3l1 2l2 4v1v1q1 1 1 5v2q1 2 1 3v8
q1 12 1 72t-1 73v8q0 2 -1 5.5t-1 5.5q-3 9 -12 12q-1 1 -3 1q-2 1 -7 1h-4q-6 -2 -10 -4q-3 -1 -4 -4q-3 -3 -3 -6q-1 -1 -1 -3q-1 -2 -1 -8q0 -1 -0.5 -4.5t-0.5 -5.5v-71q0 -77 1 -85v-1l1 -2v-2l1 -1q0 -2 3 -8q5 -5 10 -6q1 -1 4 -1h4zM537 66q17 0 22 15q3 9 3 91
q0 83 -3 92q-5 14 -22 14t-22 -14q-3 -9 -3 -92q0 -82 3 -91q5 -15 22 -15z" />
    <glyph glyph-name="guilsinglleft" unicode="&#x2039;" horiz-adv-x="285" 
d="M219 68l-185 189q-7 7 0 14l185 189q3 3 6.5 1.5t3.5 -5.5v-101q0 -9 -10 -19l-67 -68q-4 -4 0 -8l67 -68q10 -10 10 -19v-101q0 -4 -3.5 -5.5t-6.5 1.5z" />
    <glyph glyph-name="guilsinglright" unicode="&#x203a;" horiz-adv-x="285" 
d="M66 68q-3 -3 -6.5 -1.5t-3.5 5.5v101q0 9 10 19l67 68q4 4 0 8l-67 68q-10 10 -10 19v101q0 4 3.5 5.5t6.5 -1.5l185 -189q7 -7 0 -14z" />
    <glyph glyph-name="fraction" unicode="&#x2044;" horiz-adv-x="146" 
d="M-23 -9h-67q-10 0 -7 10l253 678q4 10 13 10h67q10 0 7 -10l-253 -678q-4 -10 -13 -10z" />
    <glyph glyph-name="zero.superior" unicode="&#x2070;" horiz-adv-x="297" 
d="M148 422q-89 0 -112 72q-9 27 -9 139t9 139q23 72 112 72q90 0 113 -72q8 -24 8 -139t-8 -139q-23 -72 -113 -72zM148 503q16 0 23 15q3 9 3 115t-3 115q-7 15 -23 15q-17 0 -22 -15q-3 -9 -3 -115t3 -115q5 -15 22 -15z" />
    <glyph glyph-name="four.superior" unicode="&#x2074;" horiz-adv-x="297" 
d="M244 430h-68q-10 0 -10 10v37q0 6 -6 6h-130q-10 0 -10 10v64q0 9 3 16l85 253q3 10 12 10h77q10 0 7 -10l-87 -258v-3h43q6 0 6 6v80q0 10 10 10h68q10 0 10 -10v-80q0 -6 5 -6h11q10 0 10 -10v-62q0 -10 -10 -10h-10q-6 0 -6 -6v-37q0 -10 -10 -10z" />
    <glyph glyph-name="five.superior" unicode="&#x2075;" horiz-adv-x="297" 
d="M148 422q-43 0 -72.5 18.5t-40.5 50.5q-5 20 -5 30q0 11 10 12l69 7q12 2 12 -10q0 -8 2 -13q5 -14 23 -14q17 0 22 14q3 7 3 44t-3 45q-4 13 -22 13q-15 0 -23 -14q-5 -9 -14 -9h-64q-10 0 -10 10v220q0 10 10 10h208q10 0 10 -10v-63q0 -10 -10 -10h-126q-6 0 -6 -6
v-62h1q17 12 48 12q72 0 91 -59q6 -17 6 -77q0 -51 -6 -70q-22 -69 -113 -69z" />
    <glyph glyph-name="six.superior" unicode="&#x2076;" horiz-adv-x="297" 
d="M147 422q-44 0 -74 18.5t-40 50.5q-6 19 -6 62q0 65 24 117l75 156q4 10 14 10h79q12 0 7 -10l-69 -147l1 -1q6 2 15 2q68 0 88 -62q7 -20 7 -65q0 -43 -6 -62q-11 -32 -41 -50.5t-74 -18.5zM173 552q0 28 -3 36q-6 14 -23 14q-16 0 -22 -14q-3 -8 -3 -36t3 -35
q6 -14 22 -14q17 0 23 14q3 7 3 35z" />
    <glyph glyph-name="seven.superior" unicode="&#x2077;" horiz-adv-x="297" 
d="M150 430h-76q-11 0 -8 10l103 312v2h-43q-6 0 -6 -6v-30q0 -10 -10 -10h-68q-10 0 -10 10v108q0 10 10 10h215q10 0 10 -10v-59q0 -10 -3 -19l-101 -308q-3 -10 -13 -10z" />
    <glyph glyph-name="eight.superior" unicode="&#x2078;" horiz-adv-x="297" 
d="M148 422q-43 0 -73 18.5t-41 51.5q-6 18 -6 57q0 31 5 48q9 29 33 44v2q-25 17 -34 44q-4 13 -4 37q0 32 6 50q11 33 41 51.5t73 18.5q44 0 74 -18.5t41 -51.5q6 -18 6 -50q0 -24 -4 -37q-9 -27 -34 -44v-2q24 -15 33 -44q5 -17 5 -48q0 -39 -6 -57q-11 -33 -41 -51.5
t-74 -18.5zM174 722q0 20 -3 27q-6 14 -23 14q-16 0 -22 -14q-3 -7 -3 -27t3 -28q6 -14 22 -14q17 0 23 14q3 8 3 28zM174 551q0 27 -3 34q-6 14 -23 14q-16 0 -22 -14q-3 -7 -3 -34t3 -34q6 -14 22 -14q17 0 23 14q3 7 3 34z" />
    <glyph glyph-name="nine.superior" unicode="&#x2079;" horiz-adv-x="297" 
d="M148 844q44 0 74 -18.5t40 -50.5q6 -19 6 -62q0 -65 -24 -117l-75 -156q-4 -10 -14 -10h-79q-12 0 -7 10l69 147l-1 1q-6 -2 -15 -2q-68 0 -88 62q-7 20 -7 65q0 43 6 62q11 32 41 50.5t74 18.5zM122 714q0 -28 3 -36q6 -14 23 -14q16 0 22 14q3 8 3 36t-3 35
q-6 14 -22 14q-17 0 -23 -14q-3 -7 -3 -35z" />
    <glyph glyph-name="zero.inferior" unicode="&#x2080;" horiz-adv-x="297" 
d="M148 -164q-89 0 -112 72q-9 27 -9 139t9 139q23 72 112 72q90 0 113 -72q8 -24 8 -139t-8 -139q-23 -72 -113 -72zM148 -83q16 0 23 15q3 9 3 115t-3 115q-7 15 -23 15q-17 0 -22 -15q-3 -9 -3 -115t3 -115q5 -15 22 -15z" />
    <glyph glyph-name="one.inferior" unicode="&#x2081;" horiz-adv-x="297" 
d="M207 -156h-75q-10 0 -10 10v292h-2l-56 -32q-12 -7 -12 5v75q0 9 8 14l59 37q10 5 16 5h72q10 0 10 -10v-386q0 -10 -10 -10z" />
    <glyph glyph-name="two.inferior" unicode="&#x2082;" horiz-adv-x="297" 
d="M267 138q0 -48 -31 -94l-80 -116v-1h99q10 0 10 -10v-63q0 -10 -10 -10h-209q-10 0 -10 10v59q0 10 5 16l112 156q18 26 18 52q0 17 -3 26q-4 14 -22 14q-17 0 -22 -14q-3 -7 -3 -35q0 -12 -12 -10l-69 7q-10 1 -10 12q0 28 6 52q11 33 40 51t72 18q91 0 113 -69
q6 -18 6 -51z" />
    <glyph glyph-name="three.inferior" unicode="&#x2083;" horiz-adv-x="297" 
d="M148 -164q-91 0 -113 69q-5 20 -5 37q0 11 10 12l68 7q12 2 12 -10q0 -15 3 -21q6 -13 22 -13q17 0 23 14q3 6 3 31q0 26 -3 33q-5 15 -26 15h-7q-10 0 -10 10v64q0 10 10 10h9q20 0 25 15q2 5 2 28q0 21 -3 27q-6 13 -23 13q-16 0 -22 -13q-3 -6 -3 -21q0 -12 -12 -10
l-68 7q-10 1 -10 12q0 17 5 37q22 69 113 69q43 0 72.5 -18.5t40.5 -50.5q5 -20 5 -48q0 -31 -4 -44q-8 -27 -38 -41v-1q28 -15 37 -42q5 -14 5 -52q0 -36 -5 -56q-11 -32 -40.5 -50.5t-72.5 -18.5z" />
    <glyph glyph-name="four.inferior" unicode="&#x2084;" horiz-adv-x="297" 
d="M244 -156h-68q-10 0 -10 10v37q0 6 -6 6h-130q-10 0 -10 10v64q0 9 3 16l85 253q3 10 12 10h77q10 0 7 -10l-87 -258v-3h43q6 0 6 6v80q0 10 10 10h68q10 0 10 -10v-80q0 -6 5 -6h11q10 0 10 -10v-62q0 -10 -10 -10h-10q-6 0 -6 -6v-37q0 -10 -10 -10z" />
    <glyph glyph-name="five.inferior" unicode="&#x2085;" horiz-adv-x="297" 
d="M148 -164q-43 0 -72.5 18.5t-40.5 50.5q-5 20 -5 30q0 11 10 12l69 7q12 2 12 -10q0 -8 2 -13q5 -14 23 -14q17 0 22 14q3 7 3 44t-3 45q-4 13 -22 13q-15 0 -23 -14q-5 -9 -14 -9h-64q-10 0 -10 10v220q0 10 10 10h208q10 0 10 -10v-63q0 -10 -10 -10h-126q-6 0 -6 -6
v-62h1q17 12 48 12q72 0 91 -59q6 -17 6 -77q0 -51 -6 -70q-22 -69 -113 -69z" />
    <glyph glyph-name="six.inferior" unicode="&#x2086;" horiz-adv-x="297" 
d="M147 -164q-44 0 -74 18.5t-40 50.5q-6 19 -6 62q0 65 24 117l75 156q4 10 14 10h79q12 0 7 -10l-69 -147l1 -1q6 2 15 2q68 0 88 -62q7 -20 7 -65q0 -43 -6 -62q-11 -32 -41 -50.5t-74 -18.5zM173 -34q0 28 -3 36q-6 14 -23 14q-16 0 -22 -14q-3 -8 -3 -36t3 -35
q6 -14 22 -14q17 0 23 14q3 7 3 35z" />
    <glyph glyph-name="seven.inferior" unicode="&#x2087;" horiz-adv-x="297" 
d="M150 -156h-76q-11 0 -8 10l103 312v2h-43q-6 0 -6 -6v-30q0 -10 -10 -10h-68q-10 0 -10 10v108q0 10 10 10h215q10 0 10 -10v-59q0 -10 -3 -19l-101 -308q-3 -10 -13 -10z" />
    <glyph glyph-name="eight.inferior" unicode="&#x2088;" horiz-adv-x="297" 
d="M148 -164q-43 0 -73 18.5t-41 51.5q-6 18 -6 57q0 31 5 48q9 29 33 44v2q-25 17 -34 44q-4 13 -4 37q0 32 6 50q11 33 41 51.5t73 18.5q44 0 74 -18.5t41 -51.5q6 -18 6 -50q0 -24 -4 -37q-9 -27 -34 -44v-2q24 -15 33 -44q5 -17 5 -48q0 -39 -6 -57q-11 -33 -41 -51.5
t-74 -18.5zM174 136q0 20 -3 27q-6 14 -23 14q-16 0 -22 -14q-3 -7 -3 -27t3 -28q6 -14 22 -14q17 0 23 14q3 8 3 28zM174 -35q0 27 -3 34q-6 14 -23 14q-16 0 -22 -14q-3 -7 -3 -34t3 -34q6 -14 22 -14q17 0 23 14q3 7 3 34z" />
    <glyph glyph-name="nine.inferior" unicode="&#x2089;" horiz-adv-x="297" 
d="M148 258q44 0 74 -18.5t40 -50.5q6 -19 6 -62q0 -65 -24 -117l-75 -156q-4 -10 -14 -10h-79q-12 0 -7 10l69 147l-1 1q-6 -2 -15 -2q-68 0 -88 62q-7 20 -7 65q0 43 6 62q11 32 41 50.5t74 18.5zM122 128q0 -28 3 -36q6 -14 23 -14q16 0 22 14q3 8 3 36t-3 35
q-6 14 -22 14q-17 0 -23 -14q-3 -7 -3 -35z" />
    <glyph glyph-name="Euro" unicode="&#x20ac;" 
d="M229 -9q-120 0 -153 103q-12 36 -12 137q0 6 -6 6h-34q-10 0 -10 10v61q0 10 10 10h34q6 0 6 6v36q0 6 -6 6h-34q-10 0 -10 10v60q0 10 10 10h34q6 0 6 6q0 98 12 134q33 103 153 103q75 0 118 -39.5t48 -107.5q2 -10 -8 -12l-99 -17q-10 -2 -12 9q-6 57 -45 57
q-28 0 -37 -27q-5 -14 -5 -100q0 -6 6 -6h128q10 0 10 -10l-10 -60q-1 -10 -10 -10h-118q-6 0 -6 -6v-36q0 -6 6 -6h113q10 0 10 -10l-10 -61q-1 -10 -10 -10h-103q-6 0 -6 -6q0 -89 5 -103q9 -27 37 -27q39 0 45 57q2 11 12 9l99 -17q10 -2 8 -12q-5 -68 -48 -107.5
t-118 -39.5z" />
    <glyph glyph-name="afii61289" unicode="&#x2113;" horiz-adv-x="421" 
d="M97 161q-7 -7 -14 1l-42 48q-6 8 1 15l78 72v197q0 93 38.5 145t108.5 52q58 0 93 -36t35 -98q0 -67 -38 -130t-116 -139v-158q0 -46 32 -46q15 0 32 15q8 7 14 -2l36 -49q4 -5 -4 -13q-49 -46 -110 -46q-121 0 -121 150v43zM241 529v-112q60 73 60 140q0 46 -28 46
q-32 0 -32 -74z" />
    <glyph glyph-name="trademark" unicode="&#x2122;" horiz-adv-x="672" 
d="M607 286h-61q-10 0 -10 10v191h-2l-34 -128q-3 -10 -12 -10h-33q-9 0 -12 10l-35 128h-2v-191q0 -10 -10 -10h-61q-10 0 -10 10v374q0 10 10 10h68q10 0 13 -10l56 -203h2l53 203q3 10 13 10h67q10 0 10 -10v-374q0 -10 -10 -10zM200 286h-67q-10 0 -10 10v298q0 6 -6 6
h-58q-10 0 -10 10v60q0 10 10 10h215q10 0 10 -10v-60q0 -10 -10 -10h-58q-6 0 -6 -6v-298q0 -10 -10 -10z" />
    <glyph glyph-name="estimated" unicode="&#x212e;" horiz-adv-x="574" 
d="M286 -9q-105 0 -170 72.5t-65 179.5q0 108 65 179t170 71q106 0 171 -69t66 -181h-369v-166q55 -52 132 -52q113 0 175 110l33 -22q-43 -65 -90 -93.5t-118 -28.5zM420 276v132q-60 55 -134 55q-77 0 -132 -55v-132h266z" />
    <glyph glyph-name="onethird" unicode="&#x2153;" horiz-adv-x="785" 
d="M229 274h-75q-10 0 -10 10v292h-2l-56 -32q-12 -7 -12 5v75q0 9 8 14l59 37q10 5 16 5h72q10 0 10 -10v-386q0 -10 -10 -10zM273 -9h-67q-10 0 -7 10l253 678q4 10 13 10h67q10 0 7 -10l-253 -678q-4 -10 -13 -10zM592 -8q-91 0 -113 69q-5 20 -5 37q0 11 10 12l68 7
q12 2 12 -10q0 -15 3 -21q6 -13 22 -13q17 0 23 14q3 6 3 31q0 26 -3 33q-5 15 -26 15h-7q-10 0 -10 10v64q0 10 10 10h9q20 0 25 15q2 5 2 28q0 21 -3 27q-6 13 -23 13q-16 0 -22 -13q-3 -6 -3 -21q0 -12 -12 -10l-68 7q-10 1 -10 12q0 17 5 37q22 69 113 69
q43 0 72.5 -18.5t40.5 -50.5q5 -20 5 -48q0 -31 -4 -44q-8 -27 -38 -41v-1q28 -15 37 -42q5 -14 5 -52q0 -36 -5 -56q-11 -32 -40.5 -50.5t-72.5 -18.5z" />
    <glyph glyph-name="twothirds" unicode="&#x2154;" horiz-adv-x="849" 
d="M311 568q0 -48 -31 -94l-80 -116v-1h99q10 0 10 -10v-63q0 -10 -10 -10h-209q-10 0 -10 10v59q0 10 5 16l112 156q18 26 18 52q0 17 -3 26q-4 14 -22 14q-17 0 -22 -14q-3 -7 -3 -35q0 -12 -12 -10l-69 7q-10 1 -10 12q0 28 6 52q11 33 40 51t72 18q91 0 113 -69
q6 -18 6 -51zM336 -9h-67q-10 0 -7 10l253 678q4 10 13 10h67q10 0 7 -10l-253 -678q-4 -10 -13 -10zM655 -8q-91 0 -113 69q-5 20 -5 37q0 11 10 12l68 7q12 2 12 -10q0 -15 3 -21q6 -13 22 -13q17 0 23 14q3 6 3 31q0 26 -3 33q-5 15 -26 15h-7q-10 0 -10 10v64
q0 10 10 10h9q20 0 25 15q2 5 2 28q0 21 -3 27q-6 13 -23 13q-16 0 -22 -13q-3 -6 -3 -21q0 -12 -12 -10l-68 7q-10 1 -10 12q0 17 5 37q22 69 113 69q43 0 72.5 -18.5t40.5 -50.5q5 -20 5 -48q0 -31 -4 -44q-8 -27 -38 -41v-1q28 -15 37 -42q5 -14 5 -52q0 -36 -5 -56
q-11 -32 -40.5 -50.5t-72.5 -18.5z" />
    <glyph glyph-name="oneeighth" unicode="&#x215b;" horiz-adv-x="790" 
d="M229 274h-75q-10 0 -10 10v292h-2l-56 -32q-12 -7 -12 5v75q0 9 8 14l59 37q10 5 16 5h72q10 0 10 -10v-386q0 -10 -10 -10zM594 -8q-43 0 -73 18.5t-41 51.5q-6 18 -6 57q0 31 5 48q9 29 33 44v2q-25 17 -34 44q-4 13 -4 37q0 32 6 50q11 33 41 51.5t73 18.5
q44 0 74 -18.5t41 -51.5q6 -18 6 -50q0 -24 -4 -37q-9 -27 -34 -44v-2q24 -15 33 -44q5 -17 5 -48q0 -39 -6 -57q-11 -33 -41 -51.5t-74 -18.5zM620 292q0 20 -3 27q-6 14 -23 14q-16 0 -22 -14q-3 -7 -3 -27t3 -28q6 -14 22 -14q17 0 23 14q3 8 3 28zM620 121q0 27 -3 34
q-6 14 -23 14q-16 0 -22 -14q-3 -7 -3 -34t3 -34q6 -14 22 -14q17 0 23 14q3 7 3 34zM273 -9h-67q-10 0 -7 10l253 678q4 10 13 10h67q10 0 7 -10l-253 -678q-4 -10 -13 -10z" />
    <glyph glyph-name="threeeighths" unicode="&#x215c;" horiz-adv-x="837" 
d="M640 -8q-43 0 -73 18.5t-41 51.5q-6 18 -6 57q0 31 5 48q9 29 33 44v2q-25 17 -34 44q-4 13 -4 37q0 32 6 50q11 33 41 51.5t73 18.5q44 0 74 -18.5t41 -51.5q6 -18 6 -50q0 -24 -4 -37q-9 -27 -34 -44v-2q24 -15 33 -44q5 -17 5 -48q0 -39 -6 -57q-11 -33 -41 -51.5
t-74 -18.5zM666 292q0 20 -3 27q-6 14 -23 14q-16 0 -22 -14q-3 -7 -3 -27t3 -28q6 -14 22 -14q17 0 23 14q3 8 3 28zM666 121q0 27 -3 34q-6 14 -23 14q-16 0 -22 -14q-3 -7 -3 -34t3 -34q6 -14 22 -14q17 0 23 14q3 7 3 34zM320 -9h-67q-10 0 -7 10l253 678q4 10 13 10h67
q10 0 7 -10l-253 -678q-4 -10 -13 -10zM193 266q-91 0 -113 69q-5 20 -5 37q0 11 10 12l68 7q12 2 12 -10q0 -15 3 -21q6 -13 22 -13q17 0 23 14q3 6 3 31q0 26 -3 33q-5 15 -26 15h-7q-10 0 -10 10v64q0 10 10 10h9q20 0 25 15q2 5 2 28q0 21 -3 27q-6 13 -23 13
q-16 0 -22 -13q-3 -6 -3 -21q0 -12 -12 -10l-68 7q-10 1 -10 12q0 17 5 37q22 69 113 69q43 0 72.5 -18.5t40.5 -50.5q5 -20 5 -48q0 -31 -4 -44q-8 -27 -38 -41v-1q28 -15 37 -42q5 -14 5 -52q0 -36 -5 -56q-11 -32 -40.5 -50.5t-72.5 -18.5z" />
    <glyph glyph-name="fiveeighths" unicode="&#x215d;" horiz-adv-x="837" 
d="M640 -8q-43 0 -73 18.5t-41 51.5q-6 18 -6 57q0 31 5 48q9 29 33 44v2q-25 17 -34 44q-4 13 -4 37q0 32 6 50q11 33 41 51.5t73 18.5q44 0 74 -18.5t41 -51.5q6 -18 6 -50q0 -24 -4 -37q-9 -27 -34 -44v-2q24 -15 33 -44q5 -17 5 -48q0 -39 -6 -57q-11 -33 -41 -51.5
t-74 -18.5zM666 292q0 20 -3 27q-6 14 -23 14q-16 0 -22 -14q-3 -7 -3 -27t3 -28q6 -14 22 -14q17 0 23 14q3 8 3 28zM666 121q0 27 -3 34q-6 14 -23 14q-16 0 -22 -14q-3 -7 -3 -34t3 -34q6 -14 22 -14q17 0 23 14q3 7 3 34zM319 -9h-67q-10 0 -7 10l253 678q4 10 13 10h67
q10 0 7 -10l-253 -678q-4 -10 -13 -10zM192 266q-43 0 -72.5 18.5t-40.5 50.5q-5 20 -5 30q0 11 10 12l69 7q12 2 12 -10q0 -8 2 -13q5 -14 23 -14q17 0 22 14q3 7 3 44t-3 45q-4 13 -22 13q-15 0 -23 -14q-5 -9 -14 -9h-64q-10 0 -10 10v220q0 10 10 10h208q10 0 10 -10
v-63q0 -10 -10 -10h-126q-6 0 -6 -6v-62h1q17 12 48 12q72 0 91 -59q6 -17 6 -77q0 -51 -6 -70q-22 -69 -113 -69z" />
    <glyph glyph-name="seveneighths" unicode="&#x215e;" horiz-adv-x="793" 
d="M597 -8q-43 0 -73 18.5t-41 51.5q-6 18 -6 57q0 31 5 48q9 29 33 44v2q-25 17 -34 44q-4 13 -4 37q0 32 6 50q11 33 41 51.5t73 18.5q44 0 74 -18.5t41 -51.5q6 -18 6 -50q0 -24 -4 -37q-9 -27 -34 -44v-2q24 -15 33 -44q5 -17 5 -48q0 -39 -6 -57q-11 -33 -41 -51.5
t-74 -18.5zM623 292q0 20 -3 27q-6 14 -23 14q-16 0 -22 -14q-3 -7 -3 -27t3 -28q6 -14 22 -14q17 0 23 14q3 8 3 28zM623 121q0 27 -3 34q-6 14 -23 14q-16 0 -22 -14q-3 -7 -3 -34t3 -34q6 -14 22 -14q17 0 23 14q3 7 3 34zM192 274h-76q-11 0 -8 10l103 312v2h-43
q-6 0 -6 -6v-30q0 -10 -10 -10h-68q-10 0 -10 10v108q0 10 10 10h215q10 0 10 -10v-59q0 -10 -3 -19l-101 -308q-3 -10 -13 -10zM276 -9h-67q-10 0 -7 10l253 678q4 10 13 10h67q10 0 7 -10l-253 -678q-4 -10 -13 -10z" />
    <glyph glyph-name="partialdiff" unicode="&#x2202;" horiz-adv-x="428" 
d="M191 -11q-74 0 -115 55.5t-41 149.5q0 100 46 163t121 63q46 0 72 -23h2q-4 89 -28.5 138t-64.5 49q-32 0 -59 -20q-9 -7 -14 2l-43 65q-5 8 3 14q59 46 126 46q94 0 146 -88t52 -246q0 -184 -53.5 -276t-149.5 -92zM199 93q67 0 76 198q-26 26 -54 26q-32 0 -50.5 -32.5
t-18.5 -86.5q0 -105 47 -105z" />
    <glyph glyph-name="product" unicode="&#x220f;" horiz-adv-x="521" 
d="M465 -180h-111q-10 0 -10 10v783q0 6 -6 6h-155q-6 0 -6 -6v-783q0 -10 -10 -10h-111q-10 0 -10 10v900q0 10 10 10h409q10 0 10 -10v-900q0 -10 -10 -10z" />
    <glyph glyph-name="summation" unicode="&#x2211;" horiz-adv-x="490" 
d="M445 -180h-400q-10 0 -10 10v94q0 5 2 9l172 385l-167 303q-3 6 -3 11v98q0 10 10 10h386q10 0 10 -10v-98q0 -10 -10 -10h-244l159 -289q3 -7 0 -14l-173 -381h268q10 0 10 -10v-98q0 -10 -10 -10z" />
    <glyph glyph-name="minus" unicode="&#x2212;" 
d="M373 224h-330q-10 0 -10 10v84q0 10 10 10h330q10 0 10 -10v-84q0 -10 -10 -10z" />
    <glyph glyph-name="uni2215" unicode="&#x2215;" horiz-adv-x="151" 
d="M-21 -9h-67q-10 0 -7 10l253 678q4 10 13 10h67q10 0 7 -10l-253 -678q-4 -10 -13 -10z" />
    <glyph glyph-name="uni2219" unicode="&#x2219;" horiz-adv-x="208" 
d="M155 197h-102q-10 0 -10 10v116q0 10 10 10h102q10 0 10 -10v-116q0 -10 -10 -10z" />
    <glyph glyph-name="radical" unicode="&#x221a;" horiz-adv-x="584" 
d="M344 -180h-89q-9 0 -12 10l-107 252q-3 6 -9 3l-53 -22q-10 -5 -13 4l-30 68q-5 9 4 13l142 63q10 5 14 -4l98 -234h3l178 757q3 10 12 10h86q11 0 8 -10l-220 -900q-3 -10 -12 -10z" />
    <glyph glyph-name="infinity" unicode="&#x221e;" horiz-adv-x="666" 
d="M494 88q-46 0 -82.5 20.5t-78.5 67.5q-44 -47 -79.5 -67.5t-81.5 -20.5q-68 0 -112 43t-44 115t44 115.5t113 43.5q43 0 79.5 -21t80.5 -69q45 50 80 70t80 20q68 0 112 -43t44 -116q0 -72 -43.5 -115t-111.5 -43zM489 177q31 0 48.5 19t17.5 51t-18 50.5t-49 18.5
q-21 0 -42 -16t-54 -54q35 -40 55 -54.5t42 -14.5zM176 177q20 0 41.5 15.5t56.5 54.5q-60 69 -96 69q-31 0 -49.5 -18.5t-18.5 -50.5t18 -51t48 -19z" />
    <glyph glyph-name="integral" unicode="&#x222b;" horiz-adv-x="320" 
d="M61 -180q-21 0 -28 1q-10 2 -10 10v91q0 10 10 10h16q48 0 48 70v550q0 188 162 188q21 0 28 -1q10 -2 10 -10v-91q0 -10 -10 -10h-16q-48 0 -48 -70v-550q0 -188 -162 -188z" />
    <glyph glyph-name="approxequal" unicode="&#x2248;" horiz-adv-x="430" 
d="M281 300q-28 0 -72 24q-31 21 -48 21q-15 0 -25 -8t-23 -32q-5 -8 -14 -3l-59 31q-10 5 -4 14q24 47 50.5 69t63.5 22q33 0 71 -24q32 -20 48 -20q15 0 25.5 8t23.5 31q4 10 13 4l59 -31q10 -5 4 -15q-24 -47 -50 -69t-63 -22zM281 115q-28 0 -72 24q-32 20 -48 20
q-15 0 -25 -8t-23 -31q-5 -8 -14 -3l-59 31q-10 5 -4 14q24 47 50.5 69t63.5 22q33 0 71 -24q32 -20 48 -20q15 0 25.5 8t23.5 31q3 9 13 3l59 -30q10 -5 4 -15q-24 -47 -50 -69t-63 -22z" />
    <glyph glyph-name="notequal" unicode="&#x2260;" 
d="M373 320h-103l-42 -88h145q10 0 10 -10v-84q0 -10 -10 -10h-194l-37 -77q-6 -10 -14 -10h-63q-12 0 -7 10l37 77h-52q-10 0 -10 10v84q0 10 10 10h102l42 88h-144q-10 0 -10 10v84q0 10 10 10h194l37 77q4 10 13 10h63q12 0 7 -10l-37 -77h53q10 0 10 -10v-84
q0 -10 -10 -10z" />
    <glyph glyph-name="lessequal" unicode="&#x2264;" 
d="M373 139l-330 132q-10 3 -10 14v75q0 11 10 14l330 132q10 3 10 -7v-91q0 -9 -10 -13l-190 -72v-2l190 -71q10 -4 10 -13v-91q0 -10 -10 -7zM373 0h-330q-10 0 -10 10v84q0 10 10 10h330q10 0 10 -10v-84q0 -10 -10 -10z" />
    <glyph glyph-name="greaterequal" unicode="&#x2265;" 
d="M43 139q-10 -3 -10 7v91q0 9 10 13l190 71v2l-190 72q-10 4 -10 13v91q0 10 10 7l330 -132q10 -3 10 -14v-75q0 -11 -10 -14zM373 0h-330q-10 0 -10 10v84q0 10 10 10h330q10 0 10 -10v-84q0 -10 -10 -10z" />
    <glyph glyph-name="lozenge" unicode="&#x25ca;" horiz-adv-x="461" 
d="M276 -52h-91q-11 0 -15 10l-151 364q-3 7 0 14l151 364q4 10 15 10h91q11 0 15 -10l151 -364q3 -7 0 -14l-151 -364q-4 -10 -15 -10zM232 80h2l94 249l-97 249h-2l-96 -249z" />
    <glyph glyph-name="uniF8FF" unicode="&#xf8ff;" horiz-adv-x="413" 
d="M403 0h-393q-10 0 -10 10v660q0 10 10 10h393q10 0 10 -10v-660q0 -10 -10 -10zM342 61q6 0 6 6v546q0 6 -6 6h-271q-6 0 -6 -6v-546q0 -6 6 -6h271zM235 235h-61q-10 0 -10 10v37q0 22 15 48l36 60q16 26 16 61q0 15 -3 24q-6 17 -24 17q-19 0 -25 -17q-3 -7 -3 -37
q0 -11 -11 -9l-59 7q-9 2 -9 11q0 35 6 51q10 30 37 47.5t65 17.5t65 -17.5t37 -47.5q6 -16 6 -44q0 -43 -22 -80l-35 -60q-11 -18 -11 -37v-32q0 -10 -10 -10zM235 114h-59q-10 0 -10 10v68q0 10 10 10h59q10 0 10 -10v-68q0 -10 -10 -10z" />
    <glyph glyph-name="CR" horiz-adv-x="0" 
 />
    <glyph glyph-name="grave.cap" horiz-adv-x="429" 
d="M305 755h-74q-9 0 -19 10l-104 114q-3 4 -1.5 7t6.5 3h100q9 0 16 -10l82 -114q3 -4 1 -7t-7 -3z" />
    <glyph glyph-name="acute.cap" horiz-adv-x="429" 
d="M205 755h-74q-5 0 -6.5 3t1.5 7l82 114q7 10 16 10h100q5 0 6.5 -3t-1.5 -7l-104 -114q-10 -10 -20 -10z" />
    <glyph glyph-name="circumflex.cap" horiz-adv-x="429" 
d="M352 746h-70q-10 0 -19 10l-47 57h-2l-47 -57q-9 -10 -19 -10h-70q-4 0 -5.5 3t1.5 7l90 130q7 10 17 10h67q10 0 17 -10l91 -130q3 -4 1.5 -7t-5.5 -3z" />
    <glyph glyph-name="caron.cap" horiz-adv-x="429" 
d="M248 741h-67q-10 0 -17 10l-90 130q-3 4 -1.5 7t5.5 3h70q10 0 19 -10l47 -57h2l47 57q9 10 19 10h70q4 0 5.5 -3t-1.5 -7l-91 -130q-7 -10 -17 -10z" />
    <glyph glyph-name="caron.alt" horiz-adv-x="429" 
d="M174 494q-9 0 -9 10v166q0 10 10 10h81q10 0 10 -10v-69q0 -13 -9 -23l-70 -77q-6 -7 -13 -7z" />
    <glyph glyph-name="tilde.cap" horiz-adv-x="429" 
d="M263 754q-26 0 -55 19q-26 17 -44 17q-26 0 -55 -29q-4 -4 -7.5 -2.5t-3.5 6.5v73q0 9 9 18q27 27 58 27q26 0 55 -19q27 -16 44 -16q28 0 54 28q4 4 8 2.5t4 -6.5v-73q0 -9 -9 -18q-27 -27 -58 -27z" />
    <glyph glyph-name="dieresis.cap" horiz-adv-x="429" 
d="M332 760h-77q-10 0 -10 10v98q0 10 10 10h77q10 0 10 -10v-98q0 -10 -10 -10zM174 760h-77q-10 0 -10 10v98q0 10 10 10h77q10 0 10 -10v-98q0 -10 -10 -10z" />
    <glyph glyph-name="macron.cap" horiz-adv-x="429" 
d="M326 771h-223q-10 0 -10 10v74q0 10 10 10h223q10 0 10 -10v-74q0 -10 -10 -10z" />
    <glyph glyph-name="breve.cap" horiz-adv-x="429" 
d="M215 736q-61 0 -95.5 36.5t-37.5 92.5q0 10 11 10h53q9 0 12 -10q17 -46 57 -46t57 46q3 10 11 10h53q11 0 11 -10q-2 -56 -36.5 -92.5t-95.5 -36.5z" />
    <glyph glyph-name="ring.cap" horiz-adv-x="429" 
d="M215 715q-41 0 -68.5 27.5t-27.5 68.5t27.5 68t68.5 27t68.5 -27t27.5 -68t-27.5 -68.5t-68.5 -27.5zM215 765q19 0 31 13t12 33t-12 32.5t-31 12.5t-31.5 -13t-12.5 -32q0 -20 12.5 -33t31.5 -13z" />
    <glyph glyph-name="hungarumlaut.cap" horiz-adv-x="429" 
d="M298 755h-64q-11 0 -6 10l71 112q7 10 17 10h82q4 0 5.5 -3t-1.5 -7l-85 -112q-9 -10 -19 -10zM154 755h-64q-12 0 -5 10l70 112q7 10 17 10h83q5 0 6 -3t-2 -7l-86 -112q-9 -10 -19 -10z" />
    <glyph glyph-name="dotaccent.cap" horiz-adv-x="429" 
d="M267 760h-105q-10 0 -10 10v98q0 10 10 10h105q10 0 10 -10v-98q0 -10 -10 -10z" />
    <glyph glyph-name="commaaccent" horiz-adv-x="429" 
d="M172 -231q-9 0 -9 10v158q0 10 10 10h84q10 0 10 -10v-61q0 -14 -8 -23l-74 -78q-6 -6 -13 -6z" />
    <glyph glyph-name="commaaccent.alt" horiz-adv-x="429" 
d="M257 562h-84q-10 0 -10 10v61q0 14 8 23l74 79q6 6 13 6q9 0 9 -10v-159q0 -10 -10 -10z" />
    <glyph glyph-name="uni0394" horiz-adv-x="452" 
d="M435 0h-418q-10 0 -8 10l148 660q3 10 11 10h118q9 0 11 -10l146 -660q2 -10 -8 -10zM287 118q7 0 5 6l-63 349h-3l-66 -349q-2 -6 5 -6h122z" />
    <glyph glyph-name="uni03A9" horiz-adv-x="450" 
d="M411 0h-152q-10 0 -10 10v89q0 9 9 16q16 14 19.5 49.5t3.5 186.5q0 167 -6 186q-12 34 -50 34t-50 -34q-6 -19 -6 -186q0 -151 3.5 -186.5t19.5 -49.5q9 -7 9 -16v-89q0 -10 -10 -10h-152q-10 0 -10 10v95q0 10 10 10h39v2q-25 23 -34 65t-9 167q0 120 2.5 159.5
t11.5 64.5q38 116 176 116t176 -116q9 -25 11.5 -64.5t2.5 -159.5q0 -125 -9 -167t-34 -65v-2h39q10 0 10 -10v-95q0 -10 -10 -10z" />
    <glyph glyph-name="uni03BC" horiz-adv-x="421" 
d="M367 0h-105q-10 0 -10 10v37h-1q-18 -53 -64 -53q-12 0 -18 3v-167q0 -10 -10 -10h-105q-10 0 -10 10v644q0 10 10 10h105q10 0 10 -10v-314q0 -58 41 -58q42 0 42 58v314q0 10 10 10h105q10 0 10 -10v-464q0 -10 -10 -10z" />
    <glyph glyph-name="zero.onum" 
d="M208 -9q-61 0 -101.5 26.5t-55.5 75.5q-11 39 -11 149q0 109 11 150q33 101 157 101t157 -101q11 -36 11 -150q0 -115 -11 -149q-33 -102 -157 -102zM208 101q30 0 38 26q4 16 4 115q0 102 -4 115q-8 26 -38 26q-29 0 -38 -26q-4 -13 -4 -115t4 -115q9 -26 38 -26z" />
    <glyph glyph-name="one.onum" 
d="M288 0h-105q-10 0 -10 10v346h-2l-87 -32q-12 -5 -12 7v97q0 11 8 14l91 39q6 3 16 3h101q10 0 10 -10v-464q0 -10 -10 -10z" />
    <glyph glyph-name="two.onum" 
d="M364 0h-311q-10 0 -10 10v84q0 13 8 18l156 130q24 20 33 37.5t9 49.5q0 18 -4 29q-8 25 -38 25t-39 -26q-4 -11 -4 -46q0 -12 -12 -10l-99 10q-10 1 -10 12q0 40 9 70q33 100 157 100t156 -100q9 -29 9 -64q0 -52 -15 -84t-48 -59l-92 -77v-2h145q10 0 10 -10v-87
q0 -10 -10 -10z" />
    <glyph glyph-name="three.onum" 
d="M204 -189q-123 0 -156 102q-9 30 -9 74q0 11 10 12l100 10q12 2 12 -10q0 -39 3 -51q9 -27 39 -27t38 25q4 11 4 81q0 68 -4 79q-9 27 -45 27h-32q-10 0 -10 10v92q0 9 4 16l80 119v2h-183q-10 0 -10 10v92q0 10 10 10h305q10 0 10 -10v-92q0 -9 -4 -14l-89 -129v-2
q62 -13 83 -76q10 -30 10 -134q0 -88 -10 -115q-34 -101 -156 -101z" />
    <glyph glyph-name="four.onum" 
d="M341 -180h-102q-10 0 -10 10v164q0 6 -6 6h-193q-10 0 -10 10v95q0 4 2 10l128 374q3 8 12 8h105q10 0 7 -10l-125 -373v-2h74q6 0 6 6v101q0 10 10 10h102q10 0 10 -10v-101q0 -6 5 -6h32q10 0 10 -10v-92q0 -10 -10 -10h-31q-6 0 -6 -6v-164q0 -10 -10 -10z" />
    <glyph glyph-name="five.onum" 
d="M211 -189q-123 0 -156 102q-9 30 -9 66q0 11 10 12l100 9q12 2 12 -10q0 -30 3 -42q9 -27 39 -27q29 0 38 27q4 11 4 84t-4 84q-9 27 -39 27q-29 0 -39 -27q-4 -10 -14 -10h-90q-10 0 -10 10v358q0 10 10 10h300q10 0 10 -10v-92q0 -10 -10 -10h-192q-6 0 -6 -6v-140h1
q28 26 75 26q95 0 122 -84q11 -32 11 -136q0 -93 -10 -120q-34 -101 -156 -101z" />
    <glyph glyph-name="six.onum" 
d="M209 -9q-125 0 -158 102q-10 29 -10 106q0 67 7.5 106t27.5 87l116 280q4 8 13 8h107q12 0 7 -12l-108 -265l2 -2q7 5 29 5q92 0 124 -95q10 -33 10 -112q0 -76 -9 -106q-35 -102 -158 -102zM209 101q29 0 38 27q4 11 4 71t-4 71q-9 27 -38 27q-30 0 -39 -27
q-4 -11 -4 -71t4 -71q9 -27 39 -27z" />
    <glyph glyph-name="seven.onum" 
d="M202 -180h-106q-12 0 -7 12l163 539v2h-91q-6 0 -6 -6v-56q0 -10 -10 -10h-91q-10 0 -10 10v163q0 10 10 10h314q10 0 10 -10v-87q0 -5 -2 -13l-161 -544q-3 -10 -13 -10z" />
    <glyph glyph-name="eight.onum" 
d="M209 -9q-125 0 -158 102q-10 29 -10 105q0 66 10 93q14 42 46 64v2q-33 21 -47 65q-9 26 -9 76q0 60 10 89q33 102 158 102q123 0 158 -102q9 -30 9 -89q0 -50 -9 -76q-14 -44 -47 -65v-2q32 -21 47 -64q9 -28 9 -93q0 -75 -9 -105q-35 -102 -158 -102zM209 408
q29 0 38 27q4 11 4 59q0 47 -4 58q-9 27 -38 27q-30 0 -39 -27q-4 -11 -4 -58q0 -48 4 -59q9 -27 39 -27zM209 101q29 0 38 27q4 11 4 72q0 59 -4 71q-10 27 -38 27q-29 0 -39 -27q-4 -12 -4 -71q0 -61 4 -72q9 -27 39 -27z" />
    <glyph glyph-name="nine.onum" 
d="M217 -180h-107q-12 0 -7 12l103 249l-2 2q-8 -5 -30 -5q-93 0 -123 95q-11 31 -11 112q0 77 10 106q33 102 158 102q123 0 158 -102q9 -30 9 -106q0 -67 -7.5 -106t-27.5 -87l-110 -264q-3 -8 -13 -8zM208 187q29 0 38 27q4 11 4 71t-4 71q-9 27 -38 27q-30 0 -39 -27
q-4 -11 -4 -71t4 -71q9 -27 39 -27z" />
    <glyph glyph-name="zero.prop" 
d="M51 93q-11 34 -11 247q0 210 12 247q32 102 156 102q61 0 101.5 -26t55.5 -76q11 -34 11 -247t-11 -247q-15 -50 -55.5 -76t-101.5 -26q-60 0 -100.5 26.5t-56.5 75.5zM170 127q8 -26 38 -26t38 26q4 13 4 213t-4 213q-8 26 -38 26t-38 -26q-4 -13 -4 -213t4 -213z" />
    <glyph glyph-name="one.prop" horiz-adv-x="337" 
d="M129 10v528h-2l-85 -59q-4 -3 -7.5 -1.5t-3.5 7.5v108q0 10 9 16l88 65q9 6 17 6h99q10 0 10 -10v-660q0 -10 -10 -10h-105q-10 0 -10 10z" />
    <glyph glyph-name="two.prop" horiz-adv-x="407" 
d="M38 10v89q0 9 5 19l171 279q17 27 23.5 50t6.5 63q0 31 -4 42q-9 27 -39 27q-29 0 -38 -27q-4 -11 -4 -57q0 -12 -12 -10l-99 9q-10 1 -10 12q0 52 9 82q33 101 157 101q122 0 156 -101q9 -28 9 -78q0 -55 -11 -91t-37 -78l-142 -228v-1h180q10 0 10 -10v-92
q0 -10 -10 -10h-311q-10 0 -10 10z" />
    <glyph glyph-name="three.prop" horiz-adv-x="409" 
d="M47 92q-9 30 -9 74q0 11 10 12l100 10q12 2 12 -10q0 -38 3 -50q9 -27 39 -27q29 0 38 26q4 11 4 71q0 62 -4 71q-8 25 -44 25h-15q-10 0 -10 10v93q0 10 10 10h16q35 0 43 24q4 9 4 66q0 45 -4 56q-9 26 -38 26q-30 0 -39 -27q-3 -12 -3 -50q0 -12 -12 -10l-100 10
q-10 1 -10 12q0 44 9 74q33 101 156 101q124 0 157 -100q9 -29 9 -92q0 -57 -7 -79q-12 -38 -52 -62v-2q40 -23 52 -62q7 -22 7 -95q0 -77 -9 -106q-33 -100 -157 -100q-123 0 -156 101z" />
    <glyph glyph-name="four.prop" horiz-adv-x="429" 
d="M38 101q-10 0 -10 10v96q0 5 2 11l136 454q3 8 11 8h105q11 0 8 -11l-135 -454v-2h73q6 0 6 6v153q0 10 10 10h102q10 0 10 -10v-153q0 -6 5 -6h30q10 0 10 -10v-92q0 -10 -10 -10h-29q-6 0 -6 -6v-85q0 -10 -10 -10h-102q-10 0 -10 10v85q0 6 -6 6h-190z" />
    <glyph glyph-name="five.prop" horiz-adv-x="413" 
d="M52 92q-9 30 -9 67q0 11 10 12l99 10q12 2 12 -10q0 -32 4 -43q9 -27 38 -27q30 0 39 26q4 11 4 92t-4 92q-9 27 -39 27t-40 -28q-3 -9 -14 -9h-89q-10 0 -10 10v359q0 10 10 10h300q10 0 10 -10v-92q0 -10 -10 -10h-193q-6 0 -6 -6v-142h1q26 26 75 26q96 0 123 -84
q11 -32 11 -143q0 -99 -9 -127q-34 -101 -157 -101t-156 101z" />
    <glyph glyph-name="six.prop" horiz-adv-x="412" 
d="M48 93q-9 30 -9 106q0 67 7.5 106t27.5 87l115 278q4 10 15 10h106q12 0 7 -12l-109 -265q2 -1 2 -2q8 5 30 5q90 0 122 -95q11 -31 11 -112q0 -76 -9 -106q-33 -102 -158 -102t-158 102zM168 128q9 -27 38 -27t38 27q4 11 4 71q0 61 -4 72q-9 27 -38 27t-38 -27
q-4 -11 -4 -72q0 -60 4 -71z" />
    <glyph glyph-name="seven.prop" horiz-adv-x="403" 
d="M80 12l168 555v2h-92q-6 0 -6 -6v-56q0 -10 -10 -10h-90q-10 0 -10 10v163q0 10 10 10h314q10 0 10 -10v-90q0 -5 -2 -11l-166 -559q-3 -10 -13 -10h-106q-10 0 -7 12z" />
    <glyph glyph-name="eight.prop" horiz-adv-x="414" 
d="M49 93q-9 30 -9 105q0 65 9 93q13 42 47 64v2q-33 21 -47 65q-9 26 -9 76q0 59 9 89q33 102 158 102t158 -102q9 -30 9 -89q0 -46 -9 -76q-15 -45 -47 -65v-2q33 -21 47 -64q9 -28 9 -93q0 -75 -9 -105q-33 -102 -158 -102t-158 102zM207 408q29 0 38 27q4 12 4 59
q0 46 -4 58q-9 27 -38 27t-38 -27q-4 -12 -4 -58q0 -47 4 -59q9 -27 38 -27zM169 128q10 -27 38 -27t38 27q4 12 4 72q0 59 -4 71q-10 27 -38 27t-38 -27q-4 -12 -4 -71q0 -60 4 -72z" />
    <glyph glyph-name="nine.prop" horiz-adv-x="412" 
d="M95 12l109 265q-2 1 -2 2q-8 -5 -30 -5q-90 0 -122 95q-11 31 -11 112q0 76 9 106q33 102 158 102t158 -102q9 -30 9 -106q0 -67 -7.5 -106t-27.5 -87l-115 -278q-4 -10 -15 -10h-106q-12 0 -7 12zM206 382q29 0 38 27q4 11 4 72q0 60 -4 71q-9 27 -38 27t-38 -27
q-4 -11 -4 -71q0 -61 4 -72q9 -27 38 -27z" />
    <glyph glyph-name="Euro.prop" horiz-adv-x="422" 
d="M235 -9q-120 0 -153 103q-12 36 -12 137q0 6 -6 6h-34q-10 0 -10 10v61q0 10 10 10h34q6 0 6 6v36q0 6 -6 6h-34q-10 0 -10 10v60q0 10 10 10h34q6 0 6 6q0 98 12 134q33 103 153 103q75 0 118 -39.5t48 -107.5q2 -10 -8 -12l-99 -17q-10 -2 -12 9q-6 57 -45 57
q-28 0 -37 -27q-5 -14 -5 -100q0 -6 6 -6h128q10 0 10 -10l-10 -60q-1 -10 -10 -10h-118q-6 0 -6 -6v-36q0 -6 6 -6h113q10 0 10 -10l-10 -61q-1 -10 -10 -10h-103q-6 0 -6 -6q0 -89 5 -103q9 -27 37 -27q39 0 45 57q2 11 12 9l99 -17q10 -2 8 -12q-5 -68 -48 -107.5
t-118 -39.5z" />
    <glyph glyph-name="cent.prop" horiz-adv-x="406" 
d="M369 121q-6 -55 -40.5 -88.5t-91.5 -39.5v-81q0 -10 -10 -10h-40q-10 0 -10 10v81q-97 10 -126 99q-12 39 -12 150t12 150q29 87 126 99v81q0 10 10 10h40q10 0 10 -10v-81q58 -7 92 -40t40 -88q2 -11 -7 -12l-96 -18q-12 -1 -12 8q-7 42 -45 42q-31 0 -40 -25
q-5 -14 -5 -116t5 -116q9 -25 40 -25q38 0 45 42q0 9 12 8l96 -18q9 -1 7 -12z" />
    <glyph glyph-name="dollar.prop" horiz-adv-x="409" 
d="M30 169q0 10 8 11l98 17q11 1 11 -8q1 -49 14 -68.5t43 -19.5q28 0 39.5 17t11.5 67q0 48 -12.5 70t-49.5 36l-41 16q-65 25 -90.5 68t-25.5 124q0 172 138 188v50q0 10 10 10h45q10 0 10 -10v-51q65 -9 96.5 -49.5t37.5 -113.5q0 -9 -9 -11l-95 -15q-11 -2 -11 8
q-3 41 -14.5 57.5t-37.5 16.5t-37 -16.5t-11 -55.5q0 -40 11.5 -58t49.5 -33l41 -16q65 -26 91 -70t26 -130q0 -98 -33.5 -148.5t-104.5 -58.5v-61q0 -10 -10 -10h-45q-10 0 -10 10v61q-74 7 -108 51t-36 125z" />
    <glyph glyph-name="sterling.prop" horiz-adv-x="438" 
d="M388 0h-330q-10 0 -10 10v89q0 4 4 12q26 31 26 89v72q0 6 -6 6h-28q-10 0 -10 10v68q0 10 10 10h28q6 0 6 6v153q0 78 41.5 121t118.5 43q76 0 115.5 -40.5t44.5 -108.5q2 -10 -8 -12l-100 -16q-9 -1 -11 8q-2 32 -11 45.5t-28 13.5q-37 0 -37 -52v-155q0 -6 6 -6h95
q10 0 10 -10v-68q0 -10 -10 -10h-95q-6 0 -6 -6v-72q0 -60 -24 -88v-2h209q10 0 10 -10v-90q0 -10 -10 -10z" />
    <glyph glyph-name="florin.prop" horiz-adv-x="426" 
d="M356 317h-77l-45 -333q-11 -85 -53.5 -124.5t-126.5 -39.5h-24q-10 0 -10 10v89q0 10 10 10h14q31 0 46 12.5t19 43.5l45 332h-62q-10 0 -10 10v76q0 10 10 10h75l14 103q11 85 53.5 124.5t126.5 39.5h25q10 0 10 -10v-89q0 -10 -10 -10h-15q-31 0 -46 -12.5t-19 -43.5
l-14 -102h64q10 0 10 -10v-76q0 -10 -10 -10z" />
    <glyph glyph-name="yen.prop" horiz-adv-x="419" 
d="M262 0h-105q-10 0 -10 10v97q0 6 -6 6h-85q-10 0 -10 10v62q0 10 10 10h85q6 0 6 6v35q0 6 -6 6h-85q-10 0 -10 10v61q0 10 10 10h75v3l-111 344q-3 10 8 10h107q9 0 12 -10l63 -249h3l61 249q3 10 12 10h105q11 0 8 -10l-111 -344v-3h75q10 0 10 -10v-61q0 -10 -10 -10
h-85q-6 0 -6 -6v-35q0 -6 6 -6h85q10 0 10 -10v-62q0 -10 -10 -10h-85q-6 0 -6 -6v-97q0 -10 -10 -10z" />
    <glyph glyph-name="zero.onumprop" 
d="M208 -9q-61 0 -101.5 26.5t-55.5 75.5q-11 39 -11 149q0 109 11 150q33 101 157 101t157 -101q11 -36 11 -150q0 -115 -11 -149q-33 -102 -157 -102zM208 101q30 0 38 26q4 16 4 115q0 102 -4 115q-8 26 -38 26q-29 0 -38 -26q-4 -13 -4 -115t4 -115q9 -26 38 -26z" />
    <glyph glyph-name="one.onumprop" horiz-adv-x="325" 
d="M238 0h-105q-10 0 -10 10v346h-2l-87 -32q-12 -5 -12 7v97q0 11 8 14l91 39q6 3 16 3h101q10 0 10 -10v-464q0 -10 -10 -10z" />
    <glyph glyph-name="two.onumprop" horiz-adv-x="410" 
d="M360 0h-311q-10 0 -10 10v84q0 13 8 18l156 130q24 20 33 37.5t9 49.5q0 18 -4 29q-8 25 -38 25t-39 -26q-4 -11 -4 -46q0 -12 -12 -10l-99 10q-10 1 -10 12q0 40 9 70q33 100 157 100t156 -100q9 -29 9 -64q0 -52 -15 -84t-48 -59l-92 -77v-2h145q10 0 10 -10v-87
q0 -10 -10 -10z" />
    <glyph glyph-name="three.onumprop" horiz-adv-x="406" 
d="M201 -189q-123 0 -156 102q-9 30 -9 74q0 11 10 12l100 10q12 2 12 -10q0 -39 3 -51q9 -27 39 -27t38 25q4 11 4 81q0 68 -4 79q-9 27 -45 27h-32q-10 0 -10 10v92q0 9 4 16l80 119v2h-183q-10 0 -10 10v92q0 10 10 10h305q10 0 10 -10v-92q0 -9 -4 -14l-89 -129v-2
q62 -13 83 -76q10 -30 10 -134q0 -88 -10 -115q-34 -101 -156 -101z" />
    <glyph glyph-name="four.onumprop" horiz-adv-x="427" 
d="M347 -180h-102q-10 0 -10 10v164q0 6 -6 6h-193q-10 0 -10 10v95q0 4 2 10l128 374q3 8 12 8h105q10 0 7 -10l-125 -373v-2h74q6 0 6 6v101q0 10 10 10h102q10 0 10 -10v-101q0 -6 5 -6h32q10 0 10 -10v-92q0 -10 -10 -10h-31q-6 0 -6 -6v-164q0 -10 -10 -10z" />
    <glyph glyph-name="five.onumprop" horiz-adv-x="412" 
d="M208 -189q-123 0 -156 102q-9 30 -9 66q0 11 10 12l100 9q12 2 12 -10q0 -30 3 -42q9 -27 39 -27q29 0 38 27q4 11 4 84t-4 84q-9 27 -39 27q-29 0 -39 -27q-4 -10 -14 -10h-90q-10 0 -10 10v358q0 10 10 10h300q10 0 10 -10v-92q0 -10 -10 -10h-192q-6 0 -6 -6v-140h1
q28 26 75 26q95 0 122 -84q11 -32 11 -136q0 -93 -10 -120q-34 -101 -156 -101z" />
    <glyph glyph-name="six.onumprop" horiz-adv-x="413" 
d="M207 -9q-125 0 -158 102q-10 29 -10 106q0 67 7.5 106t27.5 87l116 280q4 8 13 8h107q12 0 7 -12l-108 -265l2 -2q7 5 29 5q92 0 124 -95q10 -33 10 -112q0 -76 -9 -106q-35 -102 -158 -102zM207 101q29 0 38 27q4 11 4 71t-4 71q-9 27 -38 27q-30 0 -39 -27
q-4 -11 -4 -71t4 -71q9 -27 39 -27z" />
    <glyph glyph-name="seven.onumprop" horiz-adv-x="406" 
d="M196 -180h-106q-12 0 -7 12l163 539v2h-91q-6 0 -6 -6v-56q0 -10 -10 -10h-91q-10 0 -10 10v163q0 10 10 10h314q10 0 10 -10v-87q0 -5 -2 -13l-161 -544q-3 -10 -13 -10z" />
    <glyph glyph-name="eight.onumprop" horiz-adv-x="415" 
d="M208 -9q-125 0 -158 102q-10 29 -10 105q0 66 10 93q14 42 46 64v2q-33 21 -47 65q-9 26 -9 76q0 60 10 89q33 102 158 102q123 0 158 -102q9 -30 9 -89q0 -50 -9 -76q-14 -44 -47 -65v-2q32 -21 47 -64q9 -28 9 -93q0 -75 -9 -105q-35 -102 -158 -102zM208 408
q29 0 38 27q4 11 4 59q0 47 -4 58q-9 27 -38 27q-30 0 -39 -27q-4 -11 -4 -58q0 -48 4 -59q9 -27 39 -27zM208 101q29 0 38 27q4 11 4 72q0 59 -4 71q-10 27 -38 27q-29 0 -39 -27q-4 -12 -4 -71q0 -61 4 -72q9 -27 39 -27z" />
    <glyph glyph-name="nine.onumprop" horiz-adv-x="413" 
d="M216 -180h-107q-12 0 -7 12l103 249l-2 2q-8 -5 -30 -5q-93 0 -123 95q-11 31 -11 112q0 77 10 106q33 102 158 102q123 0 158 -102q9 -30 9 -106q0 -67 -7.5 -106t-27.5 -87l-110 -264q-3 -8 -13 -8zM207 187q29 0 38 27q4 11 4 71t-4 71q-9 27 -38 27q-30 0 -39 -27
q-4 -11 -4 -71t4 -71q9 -27 39 -27z" />
    <glyph glyph-name="one.superior" horiz-adv-x="297" 
d="M207 430h-75q-10 0 -10 10v292h-2l-56 -32q-12 -7 -12 5v75q0 9 8 14l59 37q10 5 16 5h72q10 0 10 -10v-386q0 -10 -10 -10z" />
    <glyph glyph-name="two.superior" horiz-adv-x="297" 
d="M267 724q0 -48 -31 -94l-80 -116v-1h99q10 0 10 -10v-63q0 -10 -10 -10h-209q-10 0 -10 10v59q0 10 5 16l112 156q18 26 18 52q0 17 -3 26q-4 14 -22 14q-17 0 -22 -14q-3 -7 -3 -35q0 -12 -12 -10l-69 7q-10 1 -10 12q0 28 6 52q11 33 40 51t72 18q91 0 113 -69
q6 -18 6 -51z" />
    <glyph glyph-name="three.superior" horiz-adv-x="297" 
d="M148 422q-91 0 -113 69q-5 20 -5 37q0 11 10 12l68 7q12 2 12 -10q0 -15 3 -21q6 -13 22 -13q17 0 23 14q3 6 3 31q0 26 -3 33q-5 15 -26 15h-7q-10 0 -10 10v64q0 10 10 10h9q20 0 25 15q2 5 2 28q0 21 -3 27q-6 13 -23 13q-16 0 -22 -13q-3 -6 -3 -21q0 -12 -12 -10
l-68 7q-10 1 -10 12q0 17 5 37q22 69 113 69q43 0 72.5 -18.5t40.5 -50.5q5 -20 5 -48q0 -31 -4 -44q-8 -27 -38 -41v-1q28 -15 37 -42q5 -14 5 -52q0 -36 -5 -56q-11 -32 -40.5 -50.5t-72.5 -18.5z" />
    <glyph glyph-name="a.alt01" 
d="M362 0h-105q-10 0 -10 10v39h-1q-24 -58 -92 -58q-81 0 -107 78q-13 42 -13 173t13 173q26 78 107 78q68 0 93 -58h1v39q0 10 10 10h104q10 0 10 -10v-464q0 -10 -10 -10zM203 101q31 0 39 27q5 15 5 114t-5 114q-8 27 -39 27t-39 -27q-5 -15 -5 -114t5 -114
q8 -27 39 -27z" />
    <glyph glyph-name="agrave.alt01" 
d="M362 0h-105q-10 0 -10 10v39h-1q-24 -58 -92 -58q-81 0 -107 78q-13 42 -13 173t13 173q26 78 107 78q68 0 93 -58h1v39q0 10 10 10h104q10 0 10 -10v-464q0 -10 -10 -10zM203 101q31 0 39 27q5 15 5 114t-5 114q-8 27 -39 27t-39 -27q-5 -15 -5 -114t5 -114
q8 -27 39 -27zM249 551h-75q-10 0 -18 10l-93 130q-3 4 -1.5 7t6.5 3h100q10 0 16 -10l71 -130q5 -10 -6 -10z" />
    <glyph glyph-name="aacute.alt01" 
d="M362 0h-105q-10 0 -10 10v39h-1q-24 -58 -92 -58q-81 0 -107 78q-13 42 -13 173t13 173q26 78 107 78q68 0 93 -58h1v39q0 10 10 10h104q10 0 10 -10v-464q0 -10 -10 -10zM203 101q31 0 39 27q5 15 5 114t-5 114q-8 27 -39 27t-39 -27q-5 -15 -5 -114t5 -114
q8 -27 39 -27zM226 551h-75q-11 0 -6 10l72 130q6 10 16 10h100q5 0 6.5 -3t-1.5 -7l-94 -130q-8 -10 -18 -10z" />
    <glyph glyph-name="acircumflex.alt01" 
d="M362 0h-105q-10 0 -10 10v39h-1q-24 -58 -92 -58q-81 0 -107 78q-13 42 -13 173t13 173q26 78 107 78q68 0 93 -58h1v39q0 10 10 10h104q10 0 10 -10v-464q0 -10 -10 -10zM203 101q31 0 39 27q5 15 5 114t-5 114q-8 27 -39 27t-39 -27q-5 -15 -5 -114t5 -114
q8 -27 39 -27zM354 550h-70q-10 0 -19 10l-47 58h-2l-47 -58q-9 -10 -19 -10h-70q-4 0 -5.5 3t1.5 7l90 131q7 10 17 10h67q10 0 17 -10l91 -131q3 -4 1.5 -7t-5.5 -3z" />
    <glyph glyph-name="atilde.alt01" 
d="M362 0h-105q-10 0 -10 10v39h-1q-24 -58 -92 -58q-81 0 -107 78q-13 42 -13 173t13 173q26 78 107 78q68 0 93 -58h1v39q0 10 10 10h104q10 0 10 -10v-464q0 -10 -10 -10zM203 101q31 0 39 27q5 15 5 114t-5 114q-8 27 -39 27t-39 -27q-5 -15 -5 -114t5 -114
q8 -27 39 -27zM265 558q-26 0 -55 19q-27 16 -44 16q-27 0 -55 -28q-4 -4 -7.5 -2.5t-3.5 6.5v73q0 9 9 18q27 27 58 27q26 0 55 -19q27 -17 44 -17q27 0 54 29q4 4 8 2.5t4 -6.5v-73q0 -9 -9 -18q-27 -27 -58 -27z" />
    <glyph glyph-name="adieresis.alt01" 
d="M362 0h-105q-10 0 -10 10v39h-1q-24 -58 -92 -58q-81 0 -107 78q-13 42 -13 173t13 173q26 78 107 78q68 0 93 -58h1v39q0 10 10 10h104q10 0 10 -10v-464q0 -10 -10 -10zM203 101q31 0 39 27q5 15 5 114t-5 114q-8 27 -39 27t-39 -27q-5 -15 -5 -114t5 -114
q8 -27 39 -27zM334 562h-77q-10 0 -10 10v98q0 10 10 10h77q10 0 10 -10v-98q0 -10 -10 -10zM176 562h-77q-10 0 -10 10v98q0 10 10 10h77q10 0 10 -10v-98q0 -10 -10 -10z" />
    <glyph glyph-name="amacron.alt01" 
d="M362 0h-105q-10 0 -10 10v39h-1q-24 -58 -92 -58q-81 0 -107 78q-13 42 -13 173t13 173q26 78 107 78q68 0 93 -58h1v39q0 10 10 10h104q10 0 10 -10v-464q0 -10 -10 -10zM203 101q31 0 39 27q5 15 5 114t-5 114q-8 27 -39 27t-39 -27q-5 -15 -5 -114t5 -114
q8 -27 39 -27zM328 576h-223q-10 0 -10 10v74q0 10 10 10h223q10 0 10 -10v-74q0 -10 -10 -10z" />
    <glyph glyph-name="abreve.alt01" 
d="M362 0h-105q-10 0 -10 10v39h-1q-24 -58 -92 -58q-81 0 -107 78q-13 42 -13 173t13 173q26 78 107 78q68 0 93 -58h1v39q0 10 10 10h104q10 0 10 -10v-464q0 -10 -10 -10zM203 101q31 0 39 27q5 15 5 114t-5 114q-8 27 -39 27t-39 -27q-5 -15 -5 -114t5 -114
q8 -27 39 -27zM217 549q-61 0 -95.5 36t-37.5 92q0 10 11 10h53q9 0 12 -10q17 -45 57 -45t57 45q3 10 11 10h53q11 0 11 -10q-2 -56 -36.5 -92t-95.5 -36z" />
    <glyph glyph-name="aring.alt01" 
d="M362 0h-105q-10 0 -10 10v39h-1q-24 -58 -92 -58q-81 0 -107 78q-13 42 -13 173t13 173q26 78 107 78q68 0 93 -58h1v39q0 10 10 10h104q10 0 10 -10v-464q0 -10 -10 -10zM203 101q31 0 39 27q5 15 5 114t-5 114q-8 27 -39 27t-39 -27q-5 -15 -5 -114t5 -114
q8 -27 39 -27zM211 533q-41 0 -68.5 27.5t-27.5 68.5t27.5 68.5t68.5 27.5t68.5 -27.5t27.5 -68.5t-27.5 -68.5t-68.5 -27.5zM211 584q19 0 31 12.5t12 32.5t-12 32.5t-31 12.5t-31.5 -13t-12.5 -32t12.5 -32t31.5 -13z" />
    <glyph glyph-name="aringacute.alt01" 
d="M244 771h-76q-4 0 -5.5 3t1.5 7l79 98q9 10 20 10h97q5 0 6.5 -3t-1.5 -7l-101 -98q-10 -10 -20 -10zM362 0h-105q-10 0 -10 10v39h-1q-24 -58 -92 -58q-81 0 -107 78q-13 42 -13 173t13 173q26 78 107 78q68 0 93 -58h1v39q0 10 10 10h104q10 0 10 -10v-464
q0 -10 -10 -10zM203 101q31 0 39 27q5 15 5 114t-5 114q-8 27 -39 27t-39 -27q-5 -15 -5 -114t5 -114q8 -27 39 -27zM211 533q-41 0 -68.5 27.5t-27.5 68.5t27.5 68.5t68.5 27.5t68.5 -27.5t27.5 -68.5t-27.5 -68.5t-68.5 -27.5zM211 584q19 0 31 12.5t12 32.5t-12 32.5
t-31 12.5t-31.5 -13t-12.5 -32t12.5 -32t31.5 -13z" />
    <glyph glyph-name="aogonek.alt01" 
d="M298 -191q-44 0 -70 23t-26 64q0 54 53 104q-8 2 -8 10v39h-1q-24 -58 -92 -58q-81 0 -107 78q-13 42 -13 173t13 173q26 78 107 78q68 0 93 -58h1v39q0 10 10 10h104q10 0 10 -10v-464q0 -7 -7 -11q-31 -16 -49 -39t-18 -42q0 -23 18 -23q10 0 17 4q9 6 13 -4l23 -55
q3 -8 -5 -13q-27 -18 -66 -18zM203 101q31 0 39 27q5 15 5 114t-5 114q-8 27 -39 27t-39 -27q-5 -15 -5 -114t5 -114q8 -27 39 -27z" />
    <glyph glyph-name="ae.alt01" horiz-adv-x="594" 
d="M397 -9q-86 0 -127 55h-1q-25 -31 -52 -43t-67 -12q-52 0 -87 35t-35 110q0 82 43 118.5t109 36.5h48q6 0 6 6v24q0 35 -13.5 50t-48.5 15q-41 0 -80 -27q-10 -7 -15 4l-32 76q-4 8 4 14q54 40 141 40q74 0 109 -28h2q35 28 97 28q122 0 155 -102q12 -39 12 -179
q0 -10 -10 -10h-193q-6 0 -6 -6q0 -54 5 -69q9 -28 39 -28q33 0 45 38q3 9 12 7l95 -19q9 -1 7 -12q-10 -57 -54 -89.5t-108 -32.5zM400 390q-29 0 -39 -26q-5 -17 -5 -67q0 -6 6 -6h76q6 0 6 6q0 50 -5 67q-10 26 -39 26zM185 88q23 0 36 15.5t13 42.5v50q0 6 -6 6h-27
q-58 0 -58 -59q0 -55 42 -55z" />
    <glyph glyph-name="aeacute.alt01" horiz-adv-x="594" 
d="M337 551h-75q-11 0 -6 10l72 130q6 10 16 10h100q5 0 6.5 -3t-1.5 -7l-94 -130q-7 -10 -18 -10zM397 -9q-86 0 -127 55h-1q-25 -31 -52 -43t-67 -12q-52 0 -87 35t-35 110q0 82 43 118.5t109 36.5h48q6 0 6 6v24q0 35 -13.5 50t-48.5 15q-41 0 -80 -27q-10 -7 -15 4
l-32 76q-4 8 4 14q54 40 141 40q74 0 109 -28h2q35 28 97 28q122 0 155 -102q12 -39 12 -179q0 -10 -10 -10h-193q-6 0 -6 -6q0 -54 5 -69q9 -28 39 -28q33 0 45 38q3 9 12 7l95 -19q9 -1 7 -12q-10 -57 -54 -89.5t-108 -32.5zM400 390q-29 0 -39 -26q-5 -17 -5 -67
q0 -6 6 -6h76q6 0 6 6q0 50 -5 67q-10 26 -39 26zM185 88q23 0 36 15.5t13 42.5v50q0 6 -6 6h-27q-58 0 -58 -59q0 -55 42 -55z" />
    <glyph glyph-name="germandbls.alt01" horiz-adv-x="457" 
d="M203 -180q-10 0 -10 10v89q0 10 10 10q70 0 88 57q6 16 6 80q0 51 -5 65q-14 42 -60 42q-10 0 -10 10v86q0 9 5 16l55 95v2h-107q-6 0 -6 -6v-366q0 -10 -10 -10h-105q-10 0 -10 10v510q0 160 160 160h28q10 0 10 -10v-90q0 -10 -10 -10h-26q-21 0 -29 -8t-8 -28v-44
q0 -6 6 -6h233q10 0 10 -10v-73q0 -7 -3 -14l-71 -125v-2q49 -25 69 -84q10 -32 10 -110q0 -77 -12 -118q-41 -128 -208 -128z" />
    <glyph glyph-name="q.alt01" 
d="M361 -180h-104q-10 0 -10 10v219h-1q-24 -58 -92 -58q-81 0 -107 78q-13 42 -13 173t13 173q26 78 107 78q68 0 93 -58h1v39q0 10 10 10h104q10 0 10 -10v-531h1l45 41q8 8 14 -1l45 -56q6 -7 -1 -14l-104 -90q-4 -3 -11 -3zM203 101q31 0 39 27q5 15 5 114t-5 114
q-8 27 -39 27t-39 -27q-5 -15 -5 -114t5 -114q8 -27 39 -27z" />
    <glyph glyph-name="C.alt01" horiz-adv-x="428" 
d="M219 -9q-133 0 -169 113q-14 41 -14 236t14 236q36 113 169 113q181 0 181 -205q0 -10 -10 -10h-108q-10 0 -10 10q0 48 -11.5 67.5t-38.5 19.5q-35 0 -45 -31q-7 -20 -7 -200t7 -200q10 -31 45 -31q27 0 38.5 19.5t11.5 67.5q0 10 10 10h108q10 0 10 -10
q0 -205 -181 -205z" />
    <glyph glyph-name="Cacute.alt01" horiz-adv-x="428" 
d="M219 -9q-133 0 -169 113q-14 41 -14 236t14 236q36 113 169 113q181 0 181 -205q0 -10 -10 -10h-108q-10 0 -10 10q0 48 -11.5 67.5t-38.5 19.5q-35 0 -45 -31q-7 -20 -7 -200t7 -200q10 -31 45 -31q27 0 38.5 19.5t11.5 67.5q0 10 10 10h108q10 0 10 -10
q0 -205 -181 -205zM253 755h-74q-5 0 -6.5 3t1.5 7l82 114q7 10 16 10h100q5 0 6.5 -3t-1.5 -7l-104 -114q-10 -10 -20 -10z" />
    <glyph glyph-name="Ccircumflex.alt01" horiz-adv-x="428" 
d="M219 -9q-133 0 -169 113q-14 41 -14 236t14 236q36 113 169 113q181 0 181 -205q0 -10 -10 -10h-108q-10 0 -10 10q0 48 -11.5 67.5t-38.5 19.5q-35 0 -45 -31q-7 -20 -7 -200t7 -200q10 -31 45 -31q27 0 38.5 19.5t11.5 67.5q0 10 10 10h108q10 0 10 -10
q0 -205 -181 -205zM358 746h-70q-10 0 -19 10l-47 57h-2l-47 -57q-9 -10 -19 -10h-70q-4 0 -5.5 3t1.5 7l90 130q7 10 17 10h67q10 0 17 -10l91 -130q3 -4 1.5 -7t-5.5 -3z" />
    <glyph glyph-name="Ccaron.alt01" horiz-adv-x="428" 
d="M219 -9q-133 0 -169 113q-14 41 -14 236t14 236q36 113 169 113q181 0 181 -205q0 -10 -10 -10h-108q-10 0 -10 10q0 48 -11.5 67.5t-38.5 19.5q-35 0 -45 -31q-7 -20 -7 -200t7 -200q10 -31 45 -31q27 0 38.5 19.5t11.5 67.5q0 10 10 10h108q10 0 10 -10
q0 -205 -181 -205zM254 741h-67q-10 0 -17 10l-90 130q-3 4 -1.5 7t5.5 3h70q10 0 19 -10l47 -57h2l47 57q9 10 19 10h70q4 0 5.5 -3t-1.5 -7l-91 -130q-7 -10 -17 -10z" />
    <glyph glyph-name="Cdotaccent.alt01" horiz-adv-x="428" 
d="M274 760h-105q-10 0 -10 10v98q0 10 10 10h105q10 0 10 -10v-98q0 -10 -10 -10zM219 -9q-133 0 -169 113q-14 41 -14 236t14 236q36 113 169 113q181 0 181 -205q0 -10 -10 -10h-108q-10 0 -10 10q0 48 -11.5 67.5t-38.5 19.5q-35 0 -45 -31q-7 -20 -7 -200t7 -200
q10 -31 45 -31q27 0 38.5 19.5t11.5 67.5q0 10 10 10h108q10 0 10 -10q0 -205 -181 -205z" />
    <glyph glyph-name="Ccedilla.alt01" horiz-adv-x="428" 
d="M100 -150l63 147q-85 19 -113 107q-14 41 -14 236t14 236q36 113 169 113q181 0 181 -205q0 -10 -10 -10h-108q-10 0 -10 10q0 48 -11.5 67.5t-38.5 19.5q-35 0 -45 -31q-7 -20 -7 -200t7 -200q10 -31 45 -31q27 0 38.5 19.5t11.5 67.5q0 10 10 10h108q10 0 10 -10
q0 -183 -143 -202l-50 -144q-4 -10 -16 -10h-84q-10 0 -7 10z" />
    <glyph glyph-name="G.alt01" horiz-adv-x="447" 
d="M224 -9q-137 0 -174 114q-9 25 -11.5 66.5t-2.5 168.5t2.5 168.5t11.5 66.5q37 114 174 114q90 0 138 -51.5t48 -153.5q0 -10 -10 -10h-109q-10 0 -10 10q0 46 -13.5 66.5t-42.5 20.5q-38 0 -48 -32q-7 -19 -7 -199t7 -198q10 -33 51 -33t51 33q6 21 6 124q0 6 -6 6h-43
q-10 0 -10 10v88q0 10 10 10h165q10 0 10 -10v-30q0 -127 -2.5 -168.5t-11.5 -65.5q-38 -115 -173 -115z" />
    <glyph glyph-name="Gcircumflex.alt01" horiz-adv-x="447" 
d="M224 -9q-137 0 -174 114q-9 25 -11.5 66.5t-2.5 168.5t2.5 168.5t11.5 66.5q37 114 174 114q90 0 138 -51.5t48 -153.5q0 -10 -10 -10h-109q-10 0 -10 10q0 46 -13.5 66.5t-42.5 20.5q-38 0 -48 -32q-7 -19 -7 -199t7 -198q10 -33 51 -33t51 33q6 21 6 124q0 6 -6 6h-43
q-10 0 -10 10v88q0 10 10 10h165q10 0 10 -10v-30q0 -127 -2.5 -168.5t-11.5 -65.5q-38 -115 -173 -115zM360 746h-70q-10 0 -19 10l-47 57h-2l-47 -57q-9 -10 -19 -10h-70q-4 0 -5.5 3t1.5 7l90 130q7 10 17 10h67q10 0 17 -10l91 -130q3 -4 1.5 -7t-5.5 -3z" />
    <glyph glyph-name="Gbreve.alt01" horiz-adv-x="447" 
d="M224 736q-61 0 -95.5 36.5t-37.5 92.5q0 10 11 10h53q9 0 12 -10q17 -46 57 -46t57 46q3 10 11 10h53q11 0 11 -10q-2 -56 -36.5 -92.5t-95.5 -36.5zM224 -9q-137 0 -174 114q-9 25 -11.5 66.5t-2.5 168.5t2.5 168.5t11.5 66.5q37 114 174 114q90 0 138 -51.5t48 -153.5
q0 -10 -10 -10h-109q-10 0 -10 10q0 46 -13.5 66.5t-42.5 20.5q-38 0 -48 -32q-7 -19 -7 -199t7 -198q10 -33 51 -33t51 33q6 21 6 124q0 6 -6 6h-43q-10 0 -10 10v88q0 10 10 10h165q10 0 10 -10v-30q0 -127 -2.5 -168.5t-11.5 -65.5q-38 -115 -173 -115z" />
    <glyph glyph-name="Gdotaccent.alt01" horiz-adv-x="447" 
d="M276 760h-105q-10 0 -10 10v98q0 10 10 10h105q10 0 10 -10v-98q0 -10 -10 -10zM224 -9q-137 0 -174 114q-9 25 -11.5 66.5t-2.5 168.5t2.5 168.5t11.5 66.5q37 114 174 114q90 0 138 -51.5t48 -153.5q0 -10 -10 -10h-109q-10 0 -10 10q0 46 -13.5 66.5t-42.5 20.5
q-38 0 -48 -32q-7 -19 -7 -199t7 -198q10 -33 51 -33t51 33q6 21 6 124q0 6 -6 6h-43q-10 0 -10 10v88q0 10 10 10h165q10 0 10 -10v-30q0 -127 -2.5 -168.5t-11.5 -65.5q-38 -115 -173 -115z" />
    <glyph glyph-name="Gcommaaccent.alt01" horiz-adv-x="447" 
d="M180 -231q-9 0 -9 10v158q0 10 10 10h84q10 0 10 -10v-61q0 -14 -8 -23l-74 -78q-6 -6 -13 -6zM224 -9q-137 0 -174 114q-9 25 -11.5 66.5t-2.5 168.5t2.5 168.5t11.5 66.5q37 114 174 114q90 0 138 -51.5t48 -153.5q0 -10 -10 -10h-109q-10 0 -10 10q0 46 -13.5 66.5
t-42.5 20.5q-38 0 -48 -32q-7 -19 -7 -199t7 -198q10 -33 51 -33t51 33q6 21 6 124q0 6 -6 6h-43q-10 0 -10 10v88q0 10 10 10h165q10 0 10 -10v-30q0 -127 -2.5 -168.5t-11.5 -65.5q-38 -115 -173 -115z" />
    <glyph glyph-name="I.alt01" horiz-adv-x="287" 
d="M246 0h-205q-10 0 -10 10v94q0 10 10 10h31q6 0 6 6v440q0 6 -6 6h-31q-10 0 -10 10v94q0 10 10 10h205q10 0 10 -10v-94q0 -10 -10 -10h-30q-6 0 -6 -6v-440q0 -6 6 -6h30q10 0 10 -10v-94q0 -10 -10 -10z" />
    <glyph glyph-name="Igrave.alt01" horiz-adv-x="287" 
d="M246 0h-205q-10 0 -10 10v94q0 10 10 10h31q6 0 6 6v440q0 6 -6 6h-31q-10 0 -10 10v94q0 10 10 10h205q10 0 10 -10v-94q0 -10 -10 -10h-30q-6 0 -6 -6v-440q0 -6 6 -6h30q10 0 10 -10v-94q0 -10 -10 -10zM183 755h-74q-9 0 -19 10l-104 114q-3 4 -1.5 7t6.5 3h100
q9 0 16 -10l82 -114q3 -4 1 -7t-7 -3z" />
    <glyph glyph-name="Iacute.alt01" horiz-adv-x="287" 
d="M246 0h-205q-10 0 -10 10v94q0 10 10 10h31q6 0 6 6v440q0 6 -6 6h-31q-10 0 -10 10v94q0 10 10 10h205q10 0 10 -10v-94q0 -10 -10 -10h-30q-6 0 -6 -6v-440q0 -6 6 -6h30q10 0 10 -10v-94q0 -10 -10 -10zM176 755h-74q-5 0 -6.5 3t1.5 7l82 114q7 10 16 10h100
q5 0 6.5 -3t-1.5 -7l-104 -114q-10 -10 -20 -10z" />
    <glyph glyph-name="Ibreve.alt01" horiz-adv-x="287" 
d="M246 0h-205q-10 0 -10 10v94q0 10 10 10h31q6 0 6 6v440q0 6 -6 6h-31q-10 0 -10 10v94q0 10 10 10h205q10 0 10 -10v-94q0 -10 -10 -10h-30q-6 0 -6 -6v-440q0 -6 6 -6h30q10 0 10 -10v-94q0 -10 -10 -10zM145 736q-61 0 -95.5 36.5t-37.5 92.5q0 10 11 10h53
q9 0 12 -10q17 -46 57 -46t57 46q3 10 11 10h53q11 0 11 -10q-2 -56 -36.5 -92.5t-95.5 -36.5z" />
    <glyph glyph-name="Icircumflex.alt01" horiz-adv-x="287" 
d="M246 0h-205q-10 0 -10 10v94q0 10 10 10h31q6 0 6 6v440q0 6 -6 6h-31q-10 0 -10 10v94q0 10 10 10h205q10 0 10 -10v-94q0 -10 -10 -10h-30q-6 0 -6 -6v-440q0 -6 6 -6h30q10 0 10 -10v-94q0 -10 -10 -10zM282 746h-70q-10 0 -19 10l-47 57h-2l-47 -57q-9 -10 -19 -10
h-70q-4 0 -5.5 3t1.5 7l90 130q7 10 17 10h67q10 0 17 -10l91 -130q3 -4 1.5 -7t-5.5 -3z" />
    <glyph glyph-name="Itilde.alt01" horiz-adv-x="287" 
d="M246 0h-205q-10 0 -10 10v94q0 10 10 10h31q6 0 6 6v440q0 6 -6 6h-31q-10 0 -10 10v94q0 10 10 10h205q10 0 10 -10v-94q0 -10 -10 -10h-30q-6 0 -6 -6v-440q0 -6 6 -6h30q10 0 10 -10v-94q0 -10 -10 -10zM193 754q-26 0 -55 19q-26 17 -44 17q-26 0 -55 -29
q-4 -4 -7.5 -2.5t-3.5 6.5v73q0 9 9 18q27 27 58 27q26 0 55 -19q27 -16 44 -16q28 0 54 28q4 4 8 2.5t4 -6.5v-73q0 -9 -9 -18q-27 -27 -58 -27z" />
    <glyph glyph-name="Idieresis.alt01" horiz-adv-x="287" 
d="M246 0h-205q-10 0 -10 10v94q0 10 10 10h31q6 0 6 6v440q0 6 -6 6h-31q-10 0 -10 10v94q0 10 10 10h205q10 0 10 -10v-94q0 -10 -10 -10h-30q-6 0 -6 -6v-440q0 -6 6 -6h30q10 0 10 -10v-94q0 -10 -10 -10zM262 760h-77q-10 0 -10 10v98q0 10 10 10h77q10 0 10 -10v-98
q0 -10 -10 -10zM104 760h-77q-10 0 -10 10v98q0 10 10 10h77q10 0 10 -10v-98q0 -10 -10 -10z" />
    <glyph glyph-name="Imacron.alt01" horiz-adv-x="287" 
d="M246 0h-205q-10 0 -10 10v94q0 10 10 10h31q6 0 6 6v440q0 6 -6 6h-31q-10 0 -10 10v94q0 10 10 10h205q10 0 10 -10v-94q0 -10 -10 -10h-30q-6 0 -6 -6v-440q0 -6 6 -6h30q10 0 10 -10v-94q0 -10 -10 -10zM256 771h-223q-10 0 -10 10v74q0 10 10 10h223q10 0 10 -10v-74
q0 -10 -10 -10z" />
    <glyph glyph-name="Idotaccent.alt01" horiz-adv-x="287" 
d="M246 0h-205q-10 0 -10 10v94q0 10 10 10h31q6 0 6 6v440q0 6 -6 6h-31q-10 0 -10 10v94q0 10 10 10h205q10 0 10 -10v-94q0 -10 -10 -10h-30q-6 0 -6 -6v-440q0 -6 6 -6h30q10 0 10 -10v-94q0 -10 -10 -10zM197 760h-105q-10 0 -10 10v98q0 10 10 10h105q10 0 10 -10v-98
q0 -10 -10 -10z" />
    <glyph glyph-name="Iogonek.alt01" horiz-adv-x="287" 
d="M147 -191q-44 0 -69.5 23t-25.5 64q0 62 45 104h-56q-10 0 -10 10v94q0 10 10 10h31q6 0 6 6v440q0 6 -6 6h-31q-10 0 -10 10v94q0 10 10 10h205q10 0 10 -10v-94q0 -10 -10 -10h-30q-6 0 -6 -6v-440q0 -6 6 -6h30q10 0 10 -10v-94q0 -10 -10 -10h-44q-55 -48 -55 -82
q0 -23 19 -23q10 0 17 4q9 6 13 -4l22 -55q3 -8 -5 -13q-25 -18 -66 -18z" />
    <glyph glyph-name="Z.alt01" horiz-adv-x="378" 
d="M312 292h-77l-68 -172v-2h171q10 0 10 -10v-98q0 -10 -10 -10h-297q-10 0 -10 10v94q0 1 3 10l70 178h-37q-10 0 -10 10v83q0 10 10 10h78l66 165v2h-160q-10 0 -10 10v98q0 10 10 10h285q10 0 10 -10v-95q0 -4 -2 -10l-68 -170h36q10 0 10 -10v-83q0 -10 -10 -10z" />
    <glyph glyph-name="Zacute.alt01" horiz-adv-x="378" 
d="M224 755h-74q-5 0 -6.5 3t1.5 7l82 114q7 10 16 10h100q5 0 6.5 -3t-1.5 -7l-104 -114q-10 -10 -20 -10zM312 292h-77l-68 -172v-2h171q10 0 10 -10v-98q0 -10 -10 -10h-297q-10 0 -10 10v94q0 1 3 10l70 178h-37q-10 0 -10 10v83q0 10 10 10h78l66 165v2h-160
q-10 0 -10 10v98q0 10 10 10h285q10 0 10 -10v-95q0 -4 -2 -10l-68 -170h36q10 0 10 -10v-83q0 -10 -10 -10z" />
    <glyph glyph-name="Zcaron.alt01" horiz-adv-x="378" 
d="M226 741h-67q-10 0 -17 10l-90 130q-3 4 -1.5 7t5.5 3h70q10 0 19 -10l47 -57h2l47 57q9 10 19 10h70q4 0 5.5 -3t-1.5 -7l-91 -130q-7 -10 -17 -10zM312 292h-77l-68 -172v-2h171q10 0 10 -10v-98q0 -10 -10 -10h-297q-10 0 -10 10v94q0 1 3 10l70 178h-37q-10 0 -10 10
v83q0 10 10 10h78l66 165v2h-160q-10 0 -10 10v98q0 10 10 10h285q10 0 10 -10v-95q0 -4 -2 -10l-68 -170h36q10 0 10 -10v-83q0 -10 -10 -10z" />
    <glyph glyph-name="Zdotaccent.alt01" horiz-adv-x="378" 
d="M245 760h-105q-10 0 -10 10v98q0 10 10 10h105q10 0 10 -10v-98q0 -10 -10 -10zM312 292h-77l-68 -172v-2h171q10 0 10 -10v-98q0 -10 -10 -10h-297q-10 0 -10 10v94q0 1 3 10l70 178h-37q-10 0 -10 10v83q0 10 10 10h78l66 165v2h-160q-10 0 -10 10v98q0 10 10 10h285
q10 0 10 -10v-95q0 -4 -2 -10l-68 -170h36q10 0 10 -10v-83q0 -10 -10 -10z" />
    <glyph glyph-name="zero.alt01" 
d="M208 -9q-60 0 -100.5 26.5t-56.5 75.5q-11 34 -11 247q0 210 12 247q32 102 156 102q61 0 101.5 -26t55.5 -76q11 -34 11 -247t-11 -247q-15 -50 -55.5 -76t-101.5 -26zM165 340v-55l85 207q0 52 -3 61q-8 26 -39 26t-39 -26q-4 -13 -4 -213zM208 101q31 0 39 26
q4 13 4 213v56l-86 -208q1 -52 4 -61q8 -26 39 -26z" />
    <glyph glyph-name="one.alt01" 
d="M366 0h-288q-10 0 -10 10v94q0 10 10 10h75q6 0 6 6v418h-2l-85 -59q-4 -3 -7.5 -1.5t-3.5 7.5v109q0 8 7 14l90 66q8 6 14 6h102q10 0 10 -10v-550q0 -6 6 -6h76q10 0 10 -10v-94q0 -10 -10 -10z" />
    <glyph glyph-name="six.alt01" 
d="M209 -9q-124 0 -157 103q-10 29 -10 115v302q0 86 44.5 132t128.5 46q85 0 138 -39q9 -6 3 -14l-48 -79q-5 -8 -14 -3q-38 23 -66 23q-61 0 -61 -64v-106h2q21 19 63 19q103 0 133 -92q11 -31 11 -125q0 -82 -10 -115q-35 -103 -157 -103zM209 101q30 0 39 27q3 12 3 81
q0 68 -3 80q-9 27 -39 27q-29 0 -38 -27q-4 -11 -4 -80q0 -70 4 -81q9 -27 38 -27z" />
    <glyph glyph-name="seven.alt01" 
d="M350 275h-66l-78 -265q-3 -10 -13 -10h-106q-10 0 -7 12l79 263h-62q-10 0 -10 10v82q0 10 10 10h93l58 190v2h-198q-10 0 -10 10v91q0 10 10 10h314q10 0 10 -10v-88q0 -6 -2 -12l-57 -193h35q10 0 10 -10v-82q0 -10 -10 -10z" />
    <glyph glyph-name="nine.alt01" 
d="M207 689q124 0 157 -103q10 -29 10 -115v-302q0 -86 -44.5 -132t-128.5 -46q-85 0 -138 39q-9 6 -3 14l48 79q5 8 14 3q38 -23 66 -23q61 0 61 64v106h-2q-21 -19 -63 -19q-103 0 -133 92q-11 31 -11 125q0 82 10 115q35 103 157 103zM207 579q-30 0 -39 -27
q-3 -12 -3 -81q0 -68 3 -80q9 -27 39 -27q29 0 38 27q4 11 4 80q0 70 -4 81q-9 27 -38 27z" />
    <glyph glyph-name="zero.alt02" 
d="M208 -9q-60 0 -100.5 26.5t-56.5 75.5q-11 34 -11 247q0 210 12 247q32 102 156 102q61 0 101.5 -26t55.5 -76q11 -34 11 -247t-11 -247q-15 -50 -55.5 -76t-101.5 -26zM165 340v-55l85 207q0 52 -3 61q-8 26 -39 26t-39 -26q-4 -13 -4 -213zM208 101q31 0 39 26
q4 13 4 213v56l-86 -208q1 -52 4 -61q8 -26 39 -26z" />
    <glyph glyph-name="one.alt02" horiz-adv-x="349" 
d="M331 0h-288q-10 0 -10 10v94q0 10 10 10h75q6 0 6 6v418h-2l-85 -59q-4 -3 -7.5 -1.5t-3.5 7.5v109q0 8 7 14l90 66q7 6 14 6h102q10 0 10 -10v-550q0 -6 6 -6h76q10 0 10 -10v-94q0 -10 -10 -10z" />
    <glyph glyph-name="six.alt02" horiz-adv-x="412" 
d="M207 -9q-124 0 -157 103q-10 29 -10 115v302q0 86 44.5 132t128.5 46q85 0 138 -39q9 -6 3 -14l-48 -79q-5 -8 -14 -3q-38 23 -66 23q-61 0 -61 -64v-106h2q21 19 63 19q103 0 133 -92q11 -31 11 -125q0 -82 -10 -115q-35 -103 -157 -103zM207 101q30 0 39 27q3 12 3 81
q0 68 -3 80q-9 27 -39 27q-29 0 -38 -27q-4 -11 -4 -80q0 -70 4 -81q9 -27 38 -27z" />
    <glyph glyph-name="seven.alt02" horiz-adv-x="403" 
d="M341 275h-66l-78 -265q-3 -10 -13 -10h-106q-10 0 -7 12l79 263h-62q-10 0 -10 10v82q0 10 10 10h93l58 190v2h-198q-10 0 -10 10v91q0 10 10 10h314q10 0 10 -10v-88q0 -6 -2 -12l-57 -193h35q10 0 10 -10v-82q0 -10 -10 -10z" />
    <glyph glyph-name="nine.alt02" horiz-adv-x="412" 
d="M205 689q124 0 157 -103q10 -29 10 -115v-302q0 -86 -44.5 -132t-128.5 -46q-85 0 -138 39q-9 6 -3 14l48 79q5 8 14 3q38 -23 66 -23q61 0 61 64v106h-2q-21 -19 -63 -19q-103 0 -133 92q-11 31 -11 125q0 82 10 115q35 103 157 103zM205 579q-30 0 -39 -27
q-3 -12 -3 -81q0 -68 3 -80q9 -27 39 -27q29 0 38 27q4 11 4 80q0 70 -4 81q-9 27 -38 27z" />
    <glyph glyph-name="zero.nominator" horiz-adv-x="297" 
d="M148 266q-89 0 -112 72q-9 27 -9 139t9 139q23 72 112 72q90 0 113 -72q8 -24 8 -139t-8 -139q-23 -72 -113 -72zM148 347q16 0 23 15q3 9 3 115t-3 115q-7 15 -23 15q-17 0 -22 -15q-3 -9 -3 -115t3 -115q5 -15 22 -15z" />
    <glyph glyph-name="one.nominator" horiz-adv-x="297" 
d="M207 274h-75q-10 0 -10 10v292h-2l-56 -32q-12 -7 -12 5v75q0 9 8 14l59 37q10 5 16 5h72q10 0 10 -10v-386q0 -10 -10 -10z" />
    <glyph glyph-name="two.nominator" horiz-adv-x="297" 
d="M267 568q0 -48 -31 -94l-80 -116v-1h99q10 0 10 -10v-63q0 -10 -10 -10h-209q-10 0 -10 10v59q0 10 5 16l112 156q18 26 18 52q0 17 -3 26q-4 14 -22 14q-17 0 -22 -14q-3 -7 -3 -35q0 -12 -12 -10l-69 7q-10 1 -10 12q0 28 6 52q11 33 40 51t72 18q91 0 113 -69
q6 -18 6 -51z" />
    <glyph glyph-name="three.nominator" horiz-adv-x="297" 
d="M148 266q-91 0 -113 69q-5 20 -5 37q0 11 10 12l68 7q12 2 12 -10q0 -15 3 -21q6 -13 22 -13q17 0 23 14q3 6 3 31q0 26 -3 33q-5 15 -26 15h-7q-10 0 -10 10v64q0 10 10 10h9q20 0 25 15q2 5 2 28q0 21 -3 27q-6 13 -23 13q-16 0 -22 -13q-3 -6 -3 -21q0 -12 -12 -10
l-68 7q-10 1 -10 12q0 17 5 37q22 69 113 69q43 0 72.5 -18.5t40.5 -50.5q5 -20 5 -48q0 -31 -4 -44q-8 -27 -38 -41v-1q28 -15 37 -42q5 -14 5 -52q0 -36 -5 -56q-11 -32 -40.5 -50.5t-72.5 -18.5z" />
    <glyph glyph-name="four.nominator" horiz-adv-x="297" 
d="M244 274h-68q-10 0 -10 10v37q0 6 -6 6h-130q-10 0 -10 10v64q0 9 3 16l85 253q3 10 12 10h77q10 0 7 -10l-87 -258v-3h43q6 0 6 6v80q0 10 10 10h68q10 0 10 -10v-80q0 -6 5 -6h11q10 0 10 -10v-62q0 -10 -10 -10h-10q-6 0 -6 -6v-37q0 -10 -10 -10z" />
    <glyph glyph-name="five.nominator" horiz-adv-x="297" 
d="M148 266q-43 0 -72.5 18.5t-40.5 50.5q-5 20 -5 30q0 11 10 12l69 7q12 2 12 -10q0 -8 2 -13q5 -14 23 -14q17 0 22 14q3 7 3 44t-3 45q-4 13 -22 13q-15 0 -23 -14q-5 -9 -14 -9h-64q-10 0 -10 10v220q0 10 10 10h208q10 0 10 -10v-63q0 -10 -10 -10h-126q-6 0 -6 -6
v-62h1q17 12 48 12q72 0 91 -59q6 -17 6 -77q0 -51 -6 -70q-22 -69 -113 -69z" />
    <glyph glyph-name="six.nominator" horiz-adv-x="297" 
d="M148 266q-44 0 -74 18.5t-40 50.5q-6 19 -6 62q0 65 24 117l75 156q4 10 14 10h79q12 0 7 -10l-69 -147l1 -1q6 2 15 2q68 0 88 -62q7 -20 7 -65q0 -43 -6 -62q-11 -32 -41 -50.5t-74 -18.5zM174 396q0 28 -3 36q-6 14 -23 14q-16 0 -22 -14q-3 -8 -3 -36t3 -35
q6 -14 22 -14q17 0 23 14q3 7 3 35z" />
    <glyph glyph-name="seven.nominator" horiz-adv-x="297" 
d="M150 274h-76q-11 0 -8 10l103 312v2h-43q-6 0 -6 -6v-30q0 -10 -10 -10h-68q-10 0 -10 10v108q0 10 10 10h215q10 0 10 -10v-59q0 -10 -3 -19l-101 -308q-3 -10 -13 -10z" />
    <glyph glyph-name="eight.nominator" horiz-adv-x="297" 
d="M148 266q-43 0 -73 18.5t-41 51.5q-6 18 -6 57q0 31 5 48q9 29 33 44v2q-25 17 -34 44q-4 13 -4 37q0 32 6 50q11 33 41 51.5t73 18.5q44 0 74 -18.5t41 -51.5q6 -18 6 -50q0 -24 -4 -37q-9 -27 -34 -44v-2q24 -15 33 -44q5 -17 5 -48q0 -39 -6 -57q-11 -33 -41 -51.5
t-74 -18.5zM174 566q0 20 -3 27q-6 14 -23 14q-16 0 -22 -14q-3 -7 -3 -27t3 -28q6 -14 22 -14q17 0 23 14q3 8 3 28zM174 395q0 27 -3 34q-6 14 -23 14q-16 0 -22 -14q-3 -7 -3 -34t3 -34q6 -14 22 -14q17 0 23 14q3 7 3 34z" />
    <glyph glyph-name="nine.nominator" horiz-adv-x="297" 
d="M149 688q44 0 74 -18.5t40 -50.5q6 -19 6 -62q0 -65 -24 -117l-75 -156q-4 -10 -14 -10h-79q-12 0 -7 10l69 147l-1 1q-6 -2 -15 -2q-68 0 -88 62q-7 20 -7 65q0 43 6 62q11 32 41 50.5t74 18.5zM123 558q0 -28 3 -36q6 -14 23 -14q16 0 22 14q3 8 3 36t-3 35
q-6 14 -22 14q-17 0 -23 -14q-3 -7 -3 -35z" />
    <glyph glyph-name="zero.denominator" horiz-adv-x="297" 
d="M148 -8q-89 0 -112 72q-9 27 -9 139t9 139q23 72 112 72q90 0 113 -72q8 -24 8 -139t-8 -139q-23 -72 -113 -72zM148 73q16 0 23 15q3 9 3 115t-3 115q-7 15 -23 15q-17 0 -22 -15q-3 -9 -3 -115t3 -115q5 -15 22 -15z" />
    <glyph glyph-name="one.denominator" horiz-adv-x="297" 
d="M207 0h-75q-10 0 -10 10v292h-2l-56 -32q-12 -7 -12 5v75q0 9 8 14l59 37q10 5 16 5h72q10 0 10 -10v-386q0 -10 -10 -10z" />
    <glyph glyph-name="two.denominator" horiz-adv-x="297" 
d="M267 294q0 -48 -31 -94l-80 -116v-1h99q10 0 10 -10v-63q0 -10 -10 -10h-209q-10 0 -10 10v59q0 10 5 16l112 156q18 26 18 52q0 17 -3 26q-4 14 -22 14q-17 0 -22 -14q-3 -7 -3 -35q0 -12 -12 -10l-69 7q-10 1 -10 12q0 28 6 52q11 33 40 51t72 18q91 0 113 -69
q6 -18 6 -51z" />
    <glyph glyph-name="three.denominator" horiz-adv-x="297" 
d="M148 -8q-91 0 -113 69q-5 20 -5 37q0 11 10 12l68 7q12 2 12 -10q0 -15 3 -21q6 -13 22 -13q17 0 23 14q3 6 3 31q0 26 -3 33q-5 15 -26 15h-7q-10 0 -10 10v64q0 10 10 10h9q20 0 25 15q2 5 2 28q0 21 -3 27q-6 13 -23 13q-16 0 -22 -13q-3 -6 -3 -21q0 -12 -12 -10
l-68 7q-10 1 -10 12q0 17 5 37q22 69 113 69q43 0 72.5 -18.5t40.5 -50.5q5 -20 5 -48q0 -31 -4 -44q-8 -27 -38 -41v-1q28 -15 37 -42q5 -14 5 -52q0 -36 -5 -56q-11 -32 -40.5 -50.5t-72.5 -18.5z" />
    <glyph glyph-name="four.denominator" horiz-adv-x="297" 
d="M244 0h-68q-10 0 -10 10v37q0 6 -6 6h-130q-10 0 -10 10v64q0 9 3 16l85 253q3 10 12 10h77q10 0 7 -10l-87 -258v-3h43q6 0 6 6v80q0 10 10 10h68q10 0 10 -10v-80q0 -6 5 -6h11q10 0 10 -10v-62q0 -10 -10 -10h-10q-6 0 -6 -6v-37q0 -10 -10 -10z" />
    <glyph glyph-name="five.denominator" horiz-adv-x="297" 
d="M148 -8q-43 0 -72.5 18.5t-40.5 50.5q-5 20 -5 30q0 11 10 12l69 7q12 2 12 -10q0 -8 2 -13q5 -14 23 -14q17 0 22 14q3 7 3 44t-3 45q-4 13 -22 13q-15 0 -23 -14q-5 -9 -14 -9h-64q-10 0 -10 10v220q0 10 10 10h208q10 0 10 -10v-63q0 -10 -10 -10h-126q-6 0 -6 -6v-62
h1q17 12 48 12q72 0 91 -59q6 -17 6 -77q0 -51 -6 -70q-22 -69 -113 -69z" />
    <glyph glyph-name="six.denominator" horiz-adv-x="297" 
d="M147 -8q-44 0 -74 18.5t-40 50.5q-6 19 -6 62q0 65 24 117l75 156q4 10 14 10h79q12 0 7 -10l-69 -147l1 -1q6 2 15 2q68 0 88 -62q7 -20 7 -65q0 -43 -6 -62q-11 -32 -41 -50.5t-74 -18.5zM173 122q0 28 -3 36q-6 14 -23 14q-16 0 -22 -14q-3 -8 -3 -36t3 -35
q6 -14 22 -14q17 0 23 14q3 7 3 35z" />
    <glyph glyph-name="seven.denominator" horiz-adv-x="297" 
d="M150 0h-76q-11 0 -8 10l103 312v2h-43q-6 0 -6 -6v-30q0 -10 -10 -10h-68q-10 0 -10 10v108q0 10 10 10h215q10 0 10 -10v-59q0 -10 -3 -19l-101 -308q-3 -10 -13 -10z" />
    <glyph glyph-name="eight.denominator" horiz-adv-x="297" 
d="M148 -8q-43 0 -73 18.5t-41 51.5q-6 18 -6 57q0 31 5 48q9 29 33 44v2q-25 17 -34 44q-4 13 -4 37q0 32 6 50q11 33 41 51.5t73 18.5q44 0 74 -18.5t41 -51.5q6 -18 6 -50q0 -24 -4 -37q-9 -27 -34 -44v-2q24 -15 33 -44q5 -17 5 -48q0 -39 -6 -57q-11 -33 -41 -51.5
t-74 -18.5zM174 292q0 20 -3 27q-6 14 -23 14q-16 0 -22 -14q-3 -7 -3 -27t3 -28q6 -14 22 -14q17 0 23 14q3 8 3 28zM174 121q0 27 -3 34q-6 14 -23 14q-16 0 -22 -14q-3 -7 -3 -34t3 -34q6 -14 22 -14q17 0 23 14q3 7 3 34z" />
    <glyph glyph-name="nine.denominator" horiz-adv-x="297" 
d="M148 414q44 0 74 -18.5t40 -50.5q6 -19 6 -62q0 -65 -24 -117l-75 -156q-4 -10 -14 -10h-79q-12 0 -7 10l69 147l-1 1q-6 -2 -15 -2q-68 0 -88 62q-7 20 -7 65q0 43 6 62q11 32 41 50.5t74 18.5zM122 284q0 -28 3 -36q6 -14 23 -14q16 0 22 14q3 8 3 36t-3 35
q-6 14 -22 14q-17 0 -23 -14q-3 -7 -3 -35z" />
    </font>
</defs>
</svg>
